<svg width="80" height="70" viewBox="0 0 80 70" fill="none" xmlns="http://www.w3.org/2000/svg">
<path d="M47.1872 40.5396C47.1832 40.5216 47.1761 40.5041 47.1664 40.4878C46.0112 37.6696 46.5696 34.4762 48.7168 31.7056C51.9168 27.5798 52.9616 22.6518 51.0688 18.1256C47.6288 9.91605 35.36 6.12485 24.144 9.78585C12.984 13.4258 6.70398 22.9458 10.0768 31.147C11.0202 33.4182 12.6331 35.4308 14.752 36.9808C16.5584 38.3192 17.096 40.4234 16.1488 42.4016C14.9248 44.9608 14.7088 47.7468 15.784 50.355C18.3584 56.641 27.4832 59.5782 36.104 56.9014C44.8 54.1952 49.744 46.883 47.1872 40.5396Z" fill="#A6E0F7"/>
<path d="M74.6032 41.8879L70.1136 40.7679C69.6802 39.2202 68.9787 37.7396 68.0336 36.3775L70.3056 32.8075C70.399 32.6593 70.435 32.4886 70.4082 32.321C70.3813 32.1534 70.2931 31.9979 70.1568 31.8779L67.088 29.1927C66.9511 29.0735 66.7738 28.9962 66.5826 28.9725C66.3914 28.9488 66.1966 28.9799 66.0272 29.0611L61.952 31.0505C60.3953 30.2234 58.7032 29.6097 56.9344 29.2305L55.6544 25.3105C55.5999 25.1488 55.487 25.007 55.3327 24.906C55.1785 24.8051 54.991 24.7505 54.7984 24.7505H50.4544C50.2615 24.7502 50.0737 24.8047 49.9191 24.9056C49.7645 25.0066 49.6514 25.1486 49.5968 25.3105L48.3168 29.2389C46.5483 29.619 44.8563 30.2327 43.2992 31.0589L39.2192 29.0709C39.0499 28.9897 38.8553 28.9586 38.6641 28.982C38.473 29.0055 38.2956 29.0823 38.1584 29.2011L35.088 31.8863C34.9517 32.0063 34.8635 32.1618 34.8366 32.3294C34.8098 32.497 34.8458 32.6677 34.9392 32.8159L37.2112 36.3873C36.267 37.7493 35.5656 39.2293 35.1312 40.7763L30.64 41.8963C30.4554 41.9442 30.2934 42.043 30.1781 42.1779C30.0628 42.3129 30.0003 42.4768 30 42.6453V46.4365C29.9998 46.6051 30.0621 46.7692 30.1774 46.9043C30.2928 47.0393 30.4551 47.138 30.64 47.1855L35.136 48.3055C35.5708 49.8528 36.2722 51.3332 37.216 52.6959L34.9376 56.2715C34.8448 56.4196 34.8092 56.59 34.836 56.7572C34.8628 56.9244 34.9506 57.0796 35.0864 57.1997L38.1568 59.8849C38.2936 60.0043 38.471 60.0815 38.6623 60.105C38.8537 60.1285 39.0485 60.0969 39.2176 60.0151L43.2976 58.0271C44.8546 58.8535 46.5466 59.4672 48.3152 59.8471L49.5952 63.7769C49.65 63.9387 49.7632 64.0806 49.9177 64.1815C50.0723 64.2824 50.26 64.3369 50.4528 64.3369H54.7904C54.9832 64.3369 55.1709 64.2824 55.3255 64.1815C55.48 64.0806 55.5931 63.9387 55.648 63.7769L56.928 59.8471C58.6966 59.4672 60.3886 58.8535 61.9456 58.0271L66.0272 60.0151C66.1963 60.0969 66.3911 60.1285 66.5824 60.105C66.7738 60.0815 66.9512 60.0043 67.088 59.8849L70.1568 57.1997C70.2928 57.0798 70.3807 56.9245 70.4076 56.7572C70.4344 56.5899 70.3986 56.4195 70.3056 56.2715L68.0336 52.7001C68.9781 51.3377 69.6795 49.8572 70.1136 48.3097L74.6032 47.1897C74.7881 47.1422 74.9504 47.0435 75.0658 46.9085C75.1811 46.7734 75.2434 46.6093 75.2432 46.4407V42.6355C75.243 42.4671 75.1806 42.3033 75.0653 42.1686C74.9499 42.0338 74.7878 41.9354 74.6032 41.8879ZM52.624 54.2793C50.4207 54.2796 48.2669 53.7081 46.4348 52.6372C44.6027 51.5664 43.1747 50.0441 42.3314 48.2631C41.4881 46.482 41.2674 44.5222 41.6972 42.6313C42.1269 40.7405 43.1879 39.0037 44.7458 37.6405C46.3037 36.2773 48.2887 35.3489 50.4496 34.9729C52.6106 34.5969 54.8504 34.79 56.8859 35.5279C58.9214 36.2658 60.6611 37.5153 61.885 39.1183C63.1088 40.7214 63.7619 42.606 63.7616 44.5339C63.7616 47.1185 62.5882 49.5973 60.4995 51.4249C58.4108 53.2526 55.5779 54.2793 52.624 54.2793Z" fill="white"/>
<path d="M45.1392 15.6406L42.528 14.9882C42.2758 14.0883 41.8684 13.2273 41.32 12.4347L42.64 10.3599C42.6945 10.2738 42.7156 10.1745 42.7 10.077C42.6844 9.97953 42.633 9.88913 42.5536 9.81945L40.7648 8.25985C40.6853 8.19048 40.582 8.1458 40.4708 8.13265C40.3595 8.11951 40.2464 8.13861 40.1488 8.18705L37.7792 9.33785C36.8733 8.85795 35.8893 8.50154 34.8608 8.28085L34.1152 5.99605C34.0848 5.90139 34.0199 5.81801 33.9304 5.75861C33.8408 5.69921 33.7315 5.66706 33.6192 5.66705H31.096C30.9834 5.66699 30.8739 5.69909 30.7841 5.75847C30.6942 5.81785 30.6291 5.90128 30.5984 5.99605L29.8528 8.28085C28.8246 8.50092 27.8409 8.85738 26.936 9.33785L24.5632 8.18285C24.465 8.13522 24.3519 8.11684 24.2407 8.13048C24.1296 8.14412 24.0265 8.18904 23.9472 8.25845L22.1584 9.82365C22.0813 9.89383 22.032 9.98386 22.0179 10.0804C22.0038 10.177 22.0256 10.2749 22.08 10.3599L23.4016 12.4374C22.8523 13.2294 22.4444 14.09 22.192 14.9896L19.5824 15.642C19.4736 15.6684 19.3778 15.7253 19.3096 15.804C19.2413 15.8826 19.2045 15.9787 19.2048 16.0774V18.2852C19.2048 18.3839 19.2417 18.4799 19.3099 18.5585C19.3781 18.6371 19.4738 18.6941 19.5824 18.7206L22.192 19.373C22.4448 20.2726 22.8526 21.1332 23.4016 21.9252L22.08 24.0014C22.0254 24.0875 22.0043 24.1868 22.0199 24.2843C22.0355 24.3818 22.0869 24.4722 22.1664 24.5418L23.9552 26.1056C24.0343 26.1755 24.1373 26.2207 24.2486 26.2343C24.3599 26.248 24.4732 26.2293 24.5712 26.1812L26.9456 25.0248C27.8503 25.5064 28.8339 25.8638 29.8624 26.0846L30.6064 28.3694C30.6378 28.4641 30.7034 28.5473 30.7934 28.6066C30.8834 28.6659 30.9929 28.6981 31.1056 28.6984H33.6288C33.7413 28.6983 33.8507 28.6661 33.9404 28.6067C34.0302 28.5474 34.0955 28.4641 34.1264 28.3694L34.872 26.0846C35.9008 25.8635 36.8849 25.5061 37.7904 25.0248L40.1488 26.1798C40.2472 26.2276 40.3606 26.246 40.472 26.2324C40.5834 26.2188 40.6868 26.1738 40.7664 26.1042L42.56 24.5362C42.6395 24.4669 42.691 24.3767 42.7066 24.2794C42.7222 24.1821 42.7011 24.0831 42.6464 23.9972L41.3264 21.9196C41.8751 21.1283 42.2835 20.2688 42.5376 19.3702L45.1488 18.7178C45.2568 18.6906 45.3519 18.6334 45.4197 18.5549C45.4875 18.4764 45.5243 18.3808 45.5248 18.2824V16.076C45.5249 15.9775 45.4882 15.8817 45.4203 15.8031C45.3524 15.7245 45.2571 15.6675 45.1488 15.6406H45.1392ZM32.3568 21.6606C31.3441 21.6606 30.3542 21.3979 29.5123 20.9056C28.6703 20.4134 28.014 19.7137 27.6265 18.8951C27.239 18.0765 27.1376 17.1757 27.3352 16.3066C27.5327 15.4376 28.0203 14.6393 28.7364 14.0128C29.4524 13.3863 30.3647 12.9596 31.3579 12.7867C32.3511 12.6139 33.3806 12.7026 34.3161 13.0417C35.2517 13.3808 36.0513 13.955 36.6139 14.6917C37.1765 15.4284 37.4768 16.2946 37.4768 17.1806C37.4768 18.3688 36.9374 19.5083 35.9772 20.3485C35.017 21.1886 33.7147 21.6606 32.3568 21.6606Z" fill="white"/>
<path d="M54.792 64.9836H50.4544C50.0982 64.9836 49.7517 64.8818 49.4676 64.6939C49.1835 64.5059 48.9772 64.2419 48.88 63.942L47.72 60.372C46.1706 60.0066 44.6819 59.4668 43.2912 58.7662L39.584 60.5722C39.2729 60.7224 38.9146 60.7803 38.5628 60.7374C38.2109 60.6945 37.8844 60.5531 37.632 60.3342L34.56 57.649C34.3091 57.429 34.1468 57.1435 34.0974 56.8357C34.0481 56.5279 34.1144 56.2144 34.2864 55.9424L36.352 52.6972C35.551 51.4805 34.9341 50.1779 34.5168 48.822L30.4368 47.8056C30.0943 47.7206 29.7928 47.5403 29.5778 47.292C29.3627 47.0437 29.2459 46.741 29.2448 46.4294V42.6355C29.2454 42.324 29.3622 42.0212 29.5773 41.7731C29.7924 41.525 30.0942 41.3451 30.4368 41.2606L34.5168 40.2429C34.9341 38.8875 35.551 37.5853 36.352 36.3691L34.2896 33.1239C34.1172 32.8522 34.0504 32.5388 34.0991 32.231C34.1479 31.9232 34.3096 31.6376 34.56 31.4173L37.6288 28.7321C37.8804 28.5127 38.2066 28.3708 38.5584 28.3276C38.9101 28.2845 39.2683 28.3424 39.5792 28.4927L43.288 30.2987C44.6806 29.6011 46.1702 29.0637 47.72 28.6999L48.88 25.1299C48.9773 24.83 49.1836 24.566 49.4677 24.3778C49.7518 24.1896 50.0981 24.0875 50.4544 24.0869H54.7936C55.1495 24.0882 55.4953 24.1907 55.7789 24.3787C56.0625 24.5668 56.2687 24.8304 56.3664 25.1299L57.528 28.6999C59.0767 29.0671 60.5652 29.6067 61.9568 30.3057L65.664 28.4997C65.9749 28.3494 66.3331 28.2915 66.6849 28.3346C67.0366 28.3778 67.3628 28.5197 67.6144 28.7391L70.6832 31.4243C70.9341 31.6443 71.0964 31.9297 71.1458 32.2376C71.1951 32.5454 71.1288 32.8589 70.9568 33.1308L68.8928 36.376C69.6898 37.5907 70.304 38.8904 70.72 40.2429L74.8016 41.2606C75.1442 41.3451 75.446 41.525 75.6611 41.7731C75.8763 42.0212 75.993 42.324 75.9936 42.6355V46.4336C75.9926 46.7452 75.8757 47.0479 75.6607 47.2962C75.4456 47.5445 75.1441 47.7248 74.8016 47.8098L70.72 48.8248C70.3026 50.1809 69.6863 51.4839 68.8864 52.7014L70.9504 55.9452C71.1229 56.2171 71.1895 56.5307 71.1402 56.8386C71.0908 57.1466 70.9282 57.432 70.6768 57.6518L67.6144 60.3398C67.3629 60.5594 67.0367 60.7014 66.6849 60.7446C66.3331 60.7878 65.9748 60.7297 65.664 60.5792L61.9568 58.7718C60.5659 59.4724 59.0773 60.0126 57.528 60.379L56.3664 63.9448C56.2687 64.2442 56.0621 64.5075 55.778 64.695C55.494 64.8824 55.1478 64.9837 54.792 64.9836ZM43.3008 57.3676C43.4374 57.3662 43.5717 57.3987 43.688 57.4614C45.1777 58.2522 46.7962 58.8399 48.488 59.2044C48.6158 59.2319 48.733 59.2885 48.8277 59.3684C48.9224 59.4483 48.9912 59.5487 49.0272 59.6594L50.3072 63.5878C50.3162 63.6145 50.3347 63.6378 50.3601 63.6545C50.3855 63.6711 50.4163 63.6802 50.448 63.6802H54.7872C54.8187 63.6799 54.8491 63.6707 54.8742 63.6541C54.8992 63.6374 54.9175 63.6142 54.9264 63.5878L56.2064 59.6594C56.2426 59.5488 56.3115 59.4484 56.4061 59.3686C56.5008 59.2887 56.6179 59.2321 56.7456 59.2044C58.4406 58.8405 60.0624 58.2527 61.5552 57.4614C61.6673 57.4024 61.7952 57.3702 61.9261 57.3679C62.0569 57.3657 62.1862 57.3936 62.3008 57.4488L66.3808 59.4368C66.4086 59.4495 66.4403 59.4542 66.4714 59.4502C66.5024 59.4461 66.5312 59.4336 66.5536 59.4144L69.6224 56.7306C69.6449 56.711 69.6594 56.6854 69.6638 56.6579C69.6681 56.6303 69.662 56.6023 69.6464 56.578L67.3744 53.0094C67.3115 52.909 67.2799 52.7959 67.2827 52.6814C67.2855 52.5669 67.3227 52.455 67.3904 52.357C68.2947 51.0514 68.9665 49.6328 69.3824 48.15C69.4135 48.0381 69.478 47.9355 69.5694 47.8526C69.6608 47.7696 69.7757 47.7095 69.9024 47.6782L74.392 46.5582C74.4223 46.5504 74.4488 46.5341 74.4675 46.5118C74.4863 46.4896 74.4963 46.4627 74.496 46.435V42.6355C74.4958 42.6079 74.4856 42.5812 74.4669 42.5591C74.4482 42.5369 74.422 42.5205 74.392 42.5122L69.9024 41.3923C69.7756 41.3608 69.6606 41.3003 69.5693 41.2172C69.4779 41.1341 69.4134 41.0312 69.3824 40.919C68.9661 39.4364 68.2945 38.0178 67.3904 36.7121C67.3227 36.6143 67.2855 36.5027 67.2827 36.3884C67.2799 36.2741 67.3115 36.1612 67.3744 36.061L69.648 32.4869C69.6627 32.4626 69.6683 32.435 69.664 32.4079C69.6597 32.3807 69.6457 32.3554 69.624 32.3357L66.56 29.6547C66.5374 29.6357 66.5085 29.6234 66.4775 29.6197C66.4465 29.6159 66.4149 29.6208 66.3872 29.6337L62.3056 31.6203C62.1915 31.676 62.0626 31.7043 61.9319 31.7023C61.8012 31.7004 61.6735 31.6682 61.5616 31.6091C60.0693 30.8169 58.4474 30.2291 56.752 29.8661C56.6244 29.8386 56.5074 29.7821 56.4129 29.7021C56.3185 29.6222 56.25 29.5217 56.2144 29.4111L54.9344 25.4827C54.9238 25.4569 54.9049 25.4344 54.8798 25.418C54.8548 25.4016 54.8248 25.3919 54.7936 25.3903H50.4544C50.4232 25.3919 50.3932 25.4016 50.3682 25.418C50.3432 25.4344 50.3242 25.4569 50.3136 25.4827L49.0336 29.4125C48.9976 29.5232 48.9288 29.6236 48.8341 29.7035C48.7394 29.7834 48.6222 29.84 48.4944 29.8675C46.7994 30.2302 45.1779 30.818 43.6864 31.6105C43.5746 31.6696 43.4468 31.7018 43.3161 31.7037C43.1855 31.7057 43.0565 31.6774 42.9424 31.6217L38.8608 29.6351C38.8331 29.6222 38.8016 29.6173 38.7705 29.6211C38.7395 29.6248 38.7106 29.6371 38.688 29.6561L35.6224 32.3399C35.6005 32.3595 35.5862 32.3847 35.5816 32.4118C35.577 32.439 35.5823 32.4667 35.5968 32.4911L37.8688 36.0624C37.9322 36.1624 37.9644 36.2752 37.9621 36.3895C37.9599 36.5037 37.9233 36.6155 37.856 36.7134C36.9508 38.0189 36.2785 39.4376 35.8624 40.9205C35.831 41.0321 35.7665 41.1347 35.6755 41.2177C35.5845 41.3008 35.4702 41.3614 35.344 41.3937L30.8528 42.5137C30.8227 42.5219 30.7962 42.5382 30.7773 42.5603C30.7583 42.5824 30.7478 42.6092 30.7472 42.6368V46.435C30.7479 46.4625 30.7585 46.4891 30.7774 46.5109C30.7964 46.5328 30.8228 46.5489 30.8528 46.5568L35.344 47.6768C35.4701 47.7088 35.5844 47.7692 35.6754 47.8521C35.7663 47.9349 35.8309 48.0371 35.8624 48.1486C36.2778 49.6331 36.9501 51.0532 37.856 52.3598C37.9233 52.4581 37.9598 52.5701 37.9621 52.6845C37.9643 52.799 37.9322 52.912 37.8688 53.0122L35.5968 56.5822C35.5824 56.6064 35.5772 56.6339 35.5818 56.6608C35.5864 56.6877 35.6006 56.7126 35.6224 56.732L38.6912 59.4186C38.7146 59.4364 38.7434 59.4478 38.7741 59.4516C38.8047 59.4553 38.836 59.4512 38.864 59.4396L42.944 57.4516C43.0548 57.3984 43.1792 57.3704 43.3056 57.3704L43.3008 57.3676ZM52.624 54.9316C50.4765 54.9314 48.3693 54.4219 46.5263 53.4574C44.6834 52.4928 43.1736 51.1092 42.1577 49.4538C41.1417 47.7984 40.6575 45.9329 40.7565 44.0559C40.8555 42.1788 41.5341 40.3604 42.72 38.7938C42.7698 38.7168 42.8371 38.6493 42.9176 38.5957C42.9982 38.5421 43.0903 38.5034 43.1885 38.4819C43.2867 38.4605 43.3889 38.4568 43.4888 38.471C43.5887 38.4852 43.6842 38.5171 43.7696 38.5647C43.855 38.6122 43.9284 38.6745 43.9854 38.7477C44.0423 38.8209 44.0817 38.9035 44.101 38.9905C44.1203 39.0774 44.1192 39.1669 44.0977 39.2534C44.0762 39.3399 44.0348 39.4218 43.976 39.4939L43.9616 39.5134C42.5278 41.4055 41.9532 43.6979 42.3504 45.9413C42.7475 48.1848 44.0879 50.2176 46.1087 51.6414C48.1295 53.0652 50.6852 53.7773 53.2748 53.6383C55.8645 53.4992 58.3014 52.519 60.1082 50.8897C61.9149 49.2604 62.9611 47.0995 63.0418 44.8304C63.1226 42.5613 62.2319 40.3476 60.5445 38.6231C58.8571 36.8986 56.4946 35.7877 53.9198 35.508C51.3451 35.2283 48.7437 35.8 46.6256 37.111C46.546 37.1608 46.4559 37.1963 46.3606 37.2156C46.2653 37.2349 46.1666 37.2375 46.0701 37.2234C45.9736 37.2093 45.8812 37.1787 45.7982 37.1334C45.7152 37.088 45.6432 37.0288 45.5864 36.9591C45.5296 36.8895 45.489 36.8107 45.4669 36.7273C45.4449 36.6439 45.4419 36.5575 45.458 36.473C45.4741 36.3886 45.5091 36.3078 45.5609 36.2352C45.6127 36.1626 45.6804 36.0996 45.76 36.0499C47.2854 35.105 49.044 34.4883 50.8929 34.2499C52.7419 34.0115 54.629 34.1581 56.401 34.6778C58.1731 35.1975 59.78 36.0756 61.0913 37.2409C62.4025 38.4061 63.3812 39.8255 63.9477 41.3839C64.5142 42.9423 64.6526 44.5956 64.3516 46.2095C64.0506 47.8235 63.3188 49.3525 62.2155 50.6725C61.1122 51.9924 59.6687 53.0661 58.0021 53.8061C56.3355 54.5462 54.4929 54.9318 52.624 54.9316Z" fill="#337CF2"/>
<path d="M18.1376 48.6527H15.7952C15.5284 48.6519 15.2692 48.5753 15.0565 48.4344C14.8438 48.2935 14.6892 48.096 14.616 47.8715L14.04 46.1047C13.3052 45.9182 12.5963 45.6609 11.9264 45.3375L10.0928 46.2307C9.86031 46.344 9.59221 46.3886 9.32841 46.3578C9.06461 46.3271 8.81923 46.2226 8.6288 46.0599L6.9728 44.6067C6.78605 44.4408 6.66578 44.2265 6.63001 43.9958C6.59424 43.7651 6.6449 43.5305 6.7744 43.3271L7.7968 41.7199C7.42693 41.1333 7.13285 40.5126 6.92 39.8691L4.8944 39.3679C4.63757 39.3041 4.41142 39.1689 4.25008 38.9828C4.08874 38.7967 4.00096 38.5697 4 38.3361V36.2851C4.00079 36.0516 4.08852 35.8247 4.24991 35.6388C4.41131 35.4528 4.63756 35.318 4.8944 35.2547L6.912 34.7507C7.12504 34.1072 7.41911 33.4865 7.7888 32.8999L6.7744 31.2941C6.64525 31.0903 6.59523 30.8554 6.63188 30.6246C6.66852 30.3938 6.78985 30.1797 6.9776 30.0145L8.64 28.5599C8.82852 28.3957 9.07284 28.2895 9.33625 28.2572C9.59966 28.2248 9.86795 28.2682 10.1008 28.3807L11.9376 29.2753C12.6082 28.9518 13.3176 28.694 14.0528 28.5067L14.6256 26.7427C14.699 26.518 14.8539 26.3202 15.0668 26.179C15.2797 26.0379 15.5393 25.9611 15.8064 25.9601H18.144C18.411 25.9609 18.6704 26.0377 18.8831 26.1789C19.0958 26.3201 19.2503 26.518 19.3232 26.7427L19.8992 28.5067C20.6338 28.6943 21.3426 28.952 22.0128 29.2753L23.84 28.3863C24.0734 28.2738 24.3422 28.2305 24.6061 28.2628C24.87 28.2951 25.1148 28.4013 25.304 28.5655L26.96 30.0159C27.1479 30.1807 27.2696 30.3944 27.3068 30.6249C27.344 30.8554 27.2948 31.0902 27.1664 31.2941L26.1424 32.8999C26.512 33.4865 26.8061 34.1073 27.0192 34.7507L29.04 35.2603C29.2965 35.3243 29.5223 35.4596 29.6834 35.6457C29.8444 35.8318 29.9319 36.0587 29.9328 36.2921V38.3431C29.9319 38.5763 29.8442 38.803 29.6832 38.9888C29.5222 39.1747 29.2964 39.3097 29.04 39.3735L27.0208 39.8775C26.8077 40.5209 26.5136 41.1416 26.144 41.7283L27.1648 43.3327C27.294 43.5364 27.344 43.7714 27.3073 44.0022C27.2707 44.2329 27.1493 44.4471 26.9616 44.6123L25.304 46.0599C25.1152 46.2246 24.8705 46.3313 24.6066 46.3641C24.3427 46.3969 24.0737 46.354 23.84 46.2419L22.0032 45.3473C21.333 45.6701 20.6242 45.9274 19.8896 46.1145L19.3184 47.8799C19.2447 48.1045 19.0898 48.3022 18.8769 48.4432C18.6641 48.5843 18.4047 48.6613 18.1376 48.6625V48.6527ZM16 47.3493H17.9456L18.5856 45.3893C18.6221 45.279 18.6912 45.179 18.7858 45.0994C18.8805 45.0197 18.9974 44.9633 19.1248 44.9357C20.0065 44.7449 20.8498 44.4376 21.6256 44.0243C21.7374 43.9652 21.8651 43.933 21.9957 43.9307C22.1263 43.9285 22.2552 43.9565 22.3696 44.0117L24.3984 45.0001L25.7728 43.7961L24.64 42.0251C24.5768 41.925 24.545 41.812 24.5478 41.6977C24.5506 41.5834 24.5879 41.4717 24.656 41.3741C25.1257 40.6948 25.4748 39.9569 25.6912 39.1859C25.7226 39.0741 25.7872 38.9716 25.8786 38.8887C25.9699 38.8058 26.0847 38.7456 26.2112 38.7141L28.4512 38.1541V36.4601L26.2112 35.9001C26.0847 35.869 25.9699 35.809 25.8786 35.7264C25.7872 35.6437 25.7225 35.5413 25.6912 35.4297C25.4771 34.6586 25.1296 33.9207 24.6608 33.2415C24.5933 33.1434 24.5565 33.0315 24.5539 32.917C24.5514 32.8025 24.5833 32.6894 24.6464 32.5891L25.776 30.8139L24.4 29.6099L22.3728 30.5983C22.2584 30.654 22.1292 30.6823 21.9983 30.6803C21.8674 30.6784 21.7394 30.6462 21.6272 30.5871C20.8496 30.1739 20.004 29.8679 19.12 29.6799C18.9921 29.6527 18.8748 29.5962 18.78 29.5163C18.6853 29.4363 18.6165 29.3357 18.5808 29.2249L17.9408 27.2649H16L15.36 29.2249C15.324 29.3358 15.255 29.4364 15.1599 29.5164C15.0649 29.5963 14.9473 29.6528 14.8192 29.6799C13.9375 29.8707 13.0946 30.1791 12.32 30.5941C12.2077 30.6529 12.0798 30.6849 11.9489 30.6869C11.8181 30.6889 11.6889 30.6607 11.5744 30.6053L9.5456 29.6169L8.1712 30.8209L9.3008 32.5961C9.36424 32.6961 9.39633 32.8089 9.3938 32.9233C9.39127 33.0376 9.35422 33.1493 9.2864 33.2471C8.81634 33.9268 8.46728 34.6651 8.2512 35.4367C8.21986 35.5483 8.1552 35.6507 8.06385 35.7334C7.97249 35.816 7.8577 35.876 7.7312 35.9071L5.4912 36.4671V38.1681L7.7312 38.7281C7.85789 38.7593 7.97282 38.8195 8.06419 38.9024C8.15557 38.9853 8.22011 39.088 8.2512 39.1999C8.46591 39.9683 8.8128 40.7038 9.28 41.3811C9.3478 41.4791 9.38483 41.591 9.38736 41.7056C9.38989 41.8201 9.35782 41.9332 9.2944 42.0335L8.1648 43.8087L9.5392 45.0127L11.568 44.0243C11.6824 43.9686 11.8116 43.9403 11.9425 43.9422C12.0734 43.9442 12.2014 43.9764 12.3136 44.0355C13.0883 44.45 13.9312 44.7579 14.8128 44.9483C14.942 44.9743 15.0609 45.03 15.1571 45.1098C15.2533 45.1896 15.3234 45.2904 15.36 45.4019L16 47.3493Z" fill="#337CF2"/>
<path d="M16.96 41.3251C16.0525 41.3254 15.1652 41.0901 14.4104 40.6492C13.6556 40.2082 13.0672 39.5813 12.7195 38.8477C12.3719 38.1141 12.2807 37.3069 12.4575 36.5279C12.6342 35.749 13.071 35.0334 13.7125 34.4717C14.3541 33.91 15.1716 33.5273 16.0616 33.3721C16.9517 33.2169 17.8744 33.2961 18.713 33.5998C19.5516 33.9034 20.2685 34.4178 20.773 35.078C21.2775 35.7381 21.5469 36.5143 21.5472 37.3085C21.5472 38.3733 21.064 39.3945 20.2039 40.1477C19.3437 40.9008 18.1769 41.3243 16.96 41.3251ZM16.96 34.6051C16.3471 34.6048 15.7478 34.7636 15.2379 35.0613C14.7281 35.3591 14.3306 35.7824 14.0958 36.2778C13.8609 36.7732 13.7992 37.3185 13.9185 37.8446C14.0377 38.3706 14.3326 38.854 14.7658 39.2334C15.199 39.6129 15.7511 39.8714 16.3522 39.9763C16.9534 40.0812 17.5765 40.0278 18.143 39.8228C18.7094 39.6178 19.1936 39.2704 19.5344 38.8246C19.8752 38.3788 20.0573 37.8546 20.0576 37.3183C20.0585 36.9617 19.979 36.6086 19.8237 36.2789C19.6685 35.9493 19.4405 35.6496 19.1528 35.3971C18.8651 35.1446 18.5234 34.9442 18.1472 34.8073C17.7709 34.6705 17.3675 34.5998 16.96 34.5995V34.6051Z" fill="#337CF2"/>
<path d="M33.6192 29.3439H31.096C30.8216 29.3435 30.5547 29.265 30.3357 29.1203C30.1166 28.9756 29.9573 28.7725 29.8816 28.5417L29.2544 26.6139C28.4459 26.4111 27.666 26.1294 26.9296 25.7739L24.9264 26.7539C24.6861 26.8696 24.4094 26.9141 24.1377 26.8808C23.866 26.8475 23.614 26.7381 23.4192 26.5691L21.632 24.9983C21.4388 24.8279 21.3138 24.6073 21.2757 24.3696C21.2377 24.1319 21.2886 23.8898 21.4208 23.6795L22.5408 21.9267C22.1345 21.2823 21.8125 20.5999 21.5808 19.8925L19.3776 19.3437C19.1139 19.2773 18.882 19.1378 18.7167 18.9462C18.5513 18.7546 18.4616 18.5212 18.4608 18.2811V16.0761C18.4608 15.8358 18.5502 15.6021 18.7157 15.4103C18.8811 15.2186 19.1135 15.0792 19.3776 15.0135L21.5808 14.4647C21.8125 13.7572 22.1345 13.0748 22.5408 12.4305L21.4208 10.6777C21.2901 10.467 21.2401 10.2252 21.2781 9.98782C21.3161 9.75043 21.4402 9.52998 21.632 9.35887L23.4192 7.79507C23.6139 7.62583 23.8661 7.51645 24.1379 7.48338C24.4097 7.4503 24.6864 7.49532 24.9264 7.61167L26.9296 8.59167C27.666 8.2379 28.446 7.95844 29.2544 7.75867L29.8816 5.82947C29.9561 5.59758 30.1149 5.39326 30.3341 5.24748C30.5532 5.10171 30.8207 5.02243 31.096 5.02167H33.6192C33.8933 5.02245 34.1598 5.10089 34.3787 5.24525C34.5976 5.3896 34.7572 5.59211 34.8336 5.82247L35.4608 7.75867C36.2696 7.9607 37.0496 8.24251 37.7856 8.59867L39.7888 7.61867C40.029 7.50277 40.3056 7.45801 40.5773 7.49107C40.8489 7.52413 41.1011 7.63323 41.296 7.80207L43.0832 9.36727C43.2765 9.53737 43.4015 9.75779 43.4392 9.99537C43.477 10.2329 43.4257 10.4748 43.2928 10.6847L42.1728 12.4389C42.5802 13.0823 42.9023 13.7643 43.1328 14.4717L45.3392 15.0205C45.6025 15.0873 45.8339 15.227 45.9989 15.4185C46.1639 15.6101 46.2535 15.8432 46.2544 16.0831V18.2923C46.2535 18.5321 46.1639 18.7653 45.9989 18.9568C45.8339 19.1484 45.6025 19.288 45.3392 19.3549L43.1328 19.9037C42.9023 20.611 42.5802 21.2931 42.1728 21.9365L43.2928 23.6907C43.4257 23.9005 43.477 24.1424 43.4392 24.38C43.4015 24.6176 43.2765 24.838 43.0832 25.0081L41.296 26.5747C41.1013 26.7437 40.8492 26.8531 40.5776 26.8864C40.3059 26.9197 40.0292 26.8752 39.7888 26.7595L37.7856 25.7795C37.0499 26.1362 36.2699 26.418 35.4608 26.6195L34.8336 28.5599C34.7583 28.791 34.599 28.9944 34.38 29.1393C34.1609 29.2843 33.8939 29.363 33.6192 29.3635V29.3439ZM31.2672 28.0405H33.44L34.1392 25.8999C34.1754 25.7892 34.2443 25.6889 34.339 25.609C34.4336 25.5291 34.5507 25.4725 34.6784 25.4449C35.6333 25.2413 36.5469 24.9108 37.3872 24.4649C37.4994 24.4058 37.6274 24.3736 37.7583 24.3716C37.8892 24.3697 38.0184 24.398 38.1328 24.4537L40.3552 25.5359L41.9056 24.1807L40.6688 22.2375C40.6052 22.1374 40.5728 22.0243 40.5751 21.9098C40.5773 21.7952 40.6141 21.6832 40.6816 21.5851C41.1912 20.8497 41.5689 20.0504 41.8016 19.2149C41.8332 19.1034 41.8977 19.0011 41.9887 18.9183C42.0797 18.8355 42.1939 18.775 42.32 18.7431L44.7632 18.1355V16.2273L42.3168 15.6183C42.1907 15.5863 42.0765 15.5259 41.9855 15.4431C41.8945 15.3603 41.83 15.258 41.7984 15.1465C41.5657 14.311 41.188 13.5116 40.6784 12.7763C40.6109 12.6781 40.5741 12.5661 40.5719 12.4516C40.5696 12.337 40.602 12.224 40.6656 12.1239L41.9024 10.1807L40.3648 8.81987L38.1408 9.90207C38.0267 9.95779 37.8978 9.9861 37.7671 9.98414C37.6364 9.98217 37.5087 9.94999 37.3968 9.89087C36.5565 9.44496 35.6429 9.11445 34.688 8.91087C34.5604 8.88344 34.4434 8.82687 34.349 8.74693C34.2545 8.667 34.186 8.56655 34.1504 8.45587L33.44 6.31947H31.2688L30.5712 8.46007C30.5351 8.57072 30.4662 8.67107 30.3715 8.75096C30.2768 8.83085 30.1597 8.88746 30.032 8.91507C29.0771 9.11865 28.1636 9.44916 27.3232 9.89507C27.2111 9.95418 27.0831 9.98634 26.9521 9.98831C26.8212 9.99027 26.692 9.96197 26.5776 9.90627L24.3552 8.81987L22.8096 10.1695L24.048 12.1141C24.1111 12.2141 24.143 12.327 24.1405 12.4413C24.138 12.5555 24.1011 12.6672 24.0336 12.7651C23.5243 13.5005 23.1466 14.2998 22.9136 15.1353C22.8822 15.2471 22.8176 15.3496 22.7262 15.4325C22.6349 15.5153 22.5202 15.5756 22.3936 15.6071L19.9488 16.2217V18.1299L22.4 18.7445C22.5266 18.776 22.6413 18.8362 22.7326 18.9191C22.824 19.0019 22.8886 19.1045 22.92 19.2163C23.1527 20.0518 23.5304 20.8511 24.04 21.5865C24.1075 21.6846 24.1444 21.7965 24.1469 21.911C24.1494 22.0255 24.1175 22.1385 24.0544 22.2389L22.816 24.1793L24.3616 25.5345L26.584 24.4509C26.6986 24.3954 26.8278 24.3673 26.9588 24.3695C27.0897 24.3717 27.2176 24.4041 27.3296 24.4635C28.1703 24.9088 29.0838 25.2393 30.0384 25.4435C30.1661 25.4711 30.2832 25.5277 30.3779 25.6076C30.4726 25.6875 30.5415 25.7878 30.5776 25.8985L31.2672 28.0405ZM32.3568 22.3005C31.5776 22.3018 30.8061 22.1661 30.088 21.9015C29.9138 21.8298 29.778 21.7019 29.7091 21.5446C29.6402 21.3873 29.6436 21.2127 29.7184 21.0575C29.7932 20.9023 29.9338 20.7784 30.1107 20.7118C30.2875 20.6452 30.487 20.6411 30.6672 20.7003C31.5927 21.0388 32.6231 21.0883 33.5853 20.8405C34.5476 20.5927 35.3831 20.0626 35.9513 19.3394C36.5196 18.6161 36.7861 17.7438 36.7061 16.8689C36.626 15.994 36.2042 15.1699 35.5116 14.535C34.819 13.9001 33.8978 13.4932 32.9027 13.3825C31.9077 13.2718 30.8994 13.4642 30.0473 13.9273C29.1952 14.3904 28.5513 15.096 28.2236 15.9256C27.8959 16.7551 27.9046 17.658 28.248 18.4827C28.2891 18.5631 28.3112 18.65 28.3128 18.7381C28.3145 18.8262 28.2958 18.9137 28.2578 18.9952C28.2198 19.0768 28.1632 19.1508 28.0917 19.2128C28.0201 19.2748 27.9349 19.3234 27.8412 19.3557C27.7476 19.3881 27.6474 19.4035 27.5467 19.4011C27.4461 19.3987 27.347 19.3784 27.2556 19.3416C27.1641 19.3047 27.0821 19.252 27.0145 19.1867C26.947 19.1214 26.8952 19.0448 26.8624 18.9615C26.8575 18.9514 26.8532 18.9411 26.8496 18.9307C26.4222 17.9059 26.3794 16.7885 26.7273 15.7409C27.0752 14.6933 27.7957 13.7701 28.7842 13.1053C29.7727 12.4404 30.9777 12.0687 32.2241 12.044C33.4706 12.0193 34.6935 12.3429 35.7154 12.9679C36.7373 13.5929 37.5048 14.4867 37.9066 15.5194C38.3083 16.5522 38.3233 17.6701 37.9493 18.7108C37.5754 19.7515 36.832 20.6607 35.8272 21.3065C34.8223 21.9523 33.6084 22.301 32.3616 22.3019L32.3568 22.3005Z" fill="#337CF2"/>
<path d="M51.7968 44.9791C51.6361 44.8994 51.5088 44.7767 51.4336 44.6291C51.1712 44.1391 51.4112 43.4405 51.9712 43.0709L57.5808 39.3665C58.1392 38.9955 58.8064 39.0935 59.0704 39.5835C59.3344 40.0735 59.0928 40.7721 58.5328 41.1487L52.9328 44.8531C52.5424 45.0981 52.1136 45.1345 51.7968 44.9791Z" fill="#337CF2"/>
<path d="M50.8912 43.9599C50.9525 43.8188 51.0558 43.6946 51.1904 43.6001C51.4005 43.4524 51.6677 43.3816 51.9362 43.4025C52.2046 43.4233 52.4534 43.5343 52.6304 43.7121L56.3104 47.4109C56.3961 47.4941 56.4622 47.5913 56.5049 47.6969C56.5476 47.8025 56.5661 47.9144 56.5592 48.0263C56.5524 48.1381 56.5204 48.2477 56.4651 48.3487C56.4098 48.4497 56.3322 48.5402 56.2368 48.6149L56.2096 48.6359C55.9995 48.7836 55.7323 48.8544 55.4639 48.8335C55.1954 48.8127 54.9466 48.7017 54.7696 48.5239L51.0784 44.8251C50.9611 44.709 50.8818 44.5673 50.8488 44.415C50.8159 44.2627 50.8305 44.1055 50.8912 43.9599Z" fill="#337CF2"/>
</svg>
