<svg width="80" height="70" viewBox="0 0 80 70" fill="none" xmlns="http://www.w3.org/2000/svg">
<path d="M50.6208 11.7851C47.5941 12.2604 44.4727 11.8501 41.7392 10.6175C37.0416 8.50629 31.376 8.45869 26.9888 10.8737C22.456 13.3937 20.5008 17.9101 21.488 22.3719C22.0896 25.0907 21.5056 27.8319 19.824 30.0327C17.32 33.2947 16.8272 37.9007 19.7696 43.0191C20.1078 43.5884 20.5456 44.108 21.0672 44.5591C28.616 50.8759 37.7072 50.4755 42.8352 46.4141C45.7056 44.1433 49.8544 43.2795 53.984 43.9515C62.4 45.3221 71.3856 42.2197 75.3328 33.5999C75.8268 32.3569 76.0499 31.0439 75.9904 29.7289C74.784 16.8867 61.76 10.0253 50.6208 11.7851Z" fill="#A6E0F7"/>
<path d="M64.64 56.3625H11.4384C9.3168 56.3625 7.5984 54.8141 7.5984 52.9115V22.4559C7.5984 20.5533 9.3248 19.0049 11.4384 19.0049H64.64C66.7616 19.0049 68.4896 20.5533 68.4896 22.4559V53.5541H68.408C68.252 54.3329 67.7902 55.0396 67.1023 55.5523C66.4144 56.065 65.5435 56.3515 64.64 56.3625ZM11.4384 20.2901C10.1264 20.2901 9.0576 21.2617 9.0576 22.4559V52.9115C9.0576 54.1057 10.1264 55.0787 11.4384 55.0787H64.64C65.952 55.0787 67.0192 54.1057 67.0192 52.9115V52.2689H67.0336V22.4559C67.0336 21.2617 65.9648 20.2901 64.6528 20.2901H11.4384Z" fill="#337CF2"/>
<path d="M64.9696 53.0991H11.1136V22.2682H64.9696V53.0991ZM12.5824 51.8152H63.5008V23.552H12.5824V51.8152Z" fill="#337CF2"/>
<path d="M9.512 60.3104H65.992C65.992 60.3104 70.2544 60.3104 70.704 55.7198H4.8C5.2512 60.3104 9.512 60.3104 9.512 60.3104Z" fill="white"/>
<path d="M65.984 60.9531H9.512C9.4624 60.9531 4.5712 60.8929 4.072 55.7731L4.0032 55.0731H71.496L71.4272 55.7731C70.9248 60.8999 66.0336 60.9531 65.984 60.9531ZM9.5152 59.6679H65.984C66.1168 59.6679 69.1568 59.5965 69.8576 56.3625H5.6384C6.3376 59.5895 9.368 59.6665 9.5152 59.6679Z" fill="#337CF2"/>
<path d="M43.9504 55.7198H32.12V58.0145H43.9504V55.7198Z" fill="white"/>
<path d="M44.6832 58.6599H31.3856V55.0787H44.6832V58.6599ZM32.8544 57.3761H43.216V56.3653H32.8544V57.3761Z" fill="#337CF2"/>
<path d="M37.4064 16.5395C36.5369 15.7759 35.4619 15.216 34.2804 14.9112C33.0988 14.6064 31.8486 14.5664 30.6448 14.7951C30.5022 14.8239 30.3709 14.8855 30.2647 14.9737C30.1584 15.0618 30.081 15.1732 30.0406 15.2963C30.0001 15.4194 29.998 15.5498 30.0345 15.6738C30.0709 15.7979 30.1447 15.9111 30.248 16.0019L33.768 19.0819C34.2593 19.5186 34.5336 20.1074 34.5312 20.7201C34.5289 21.3329 34.25 21.9201 33.7553 22.3538C33.2607 22.7876 32.5902 23.0328 31.8899 23.0362C31.1896 23.0396 30.5161 22.8008 30.016 22.3719L26.5056 19.2919C26.4022 19.201 26.2729 19.1361 26.1311 19.1038C25.9893 19.0715 25.8402 19.0731 25.6993 19.1085C25.5585 19.1438 25.431 19.2115 25.3302 19.3046C25.2295 19.3977 25.1591 19.5127 25.1264 19.6377C24.9003 20.5432 24.9012 21.4809 25.1291 22.3861C25.357 23.2913 25.8065 24.1425 26.4467 24.881C27.0868 25.6195 27.9022 26.2279 28.8369 26.6641C29.7716 27.1003 30.8033 27.354 31.8608 27.4077C31.9152 27.4077 31.984 27.4189 32.0656 27.4189C33.8558 27.5964 35.5246 28.2991 36.8 29.4125L52.4128 43.0751C53.0923 43.6086 53.9799 43.8937 54.8925 43.8715C55.8051 43.8493 56.6732 43.5216 57.3179 42.9559C57.9625 42.3903 58.3345 41.6297 58.3573 40.8311C58.38 40.0325 58.0517 39.2567 57.44 38.6637L41.8256 25.0025C40.5487 23.8919 39.7442 22.4326 39.5456 20.8669C39.5345 20.8077 39.5297 20.7477 39.5312 20.6877C39.4187 19.1247 38.6614 17.6506 37.4 16.5395H37.4064Z" fill="#A6E0F7"/>
<path d="M54.9264 44.6291C54.3618 44.6299 53.8026 44.5331 53.2809 44.3442C52.7592 44.1554 52.2853 43.8783 51.8864 43.5287L36.272 29.8661C35.1237 28.8648 33.6255 28.2285 32.016 28.0587L31.8688 28.0489H31.8416C30.6761 27.9929 29.5384 27.7161 28.5071 27.2377C27.4758 26.7592 26.5756 26.0904 25.8687 25.2777C25.1618 24.4649 24.6651 23.5275 24.4129 22.5303C24.1607 21.533 24.159 20.4997 24.408 19.5019C24.4685 19.2639 24.6011 19.0445 24.7919 18.8668C24.9826 18.689 25.2245 18.5594 25.4921 18.4916C25.7598 18.4237 26.0434 18.4201 26.3131 18.4811C26.5829 18.5421 26.829 18.6655 27.0256 18.8383L30.536 21.9183C30.8982 22.2324 31.3881 22.4078 31.8981 22.4058C32.408 22.4038 32.8962 22.2247 33.2552 21.9078C33.6142 21.5909 33.8146 21.1622 33.8124 20.716C33.8101 20.2698 33.6054 19.8426 33.2432 19.5285L29.7232 16.4485C29.5266 16.2768 29.3861 16.0621 29.3166 15.8268C29.247 15.5914 29.2508 15.3441 29.3276 15.1105C29.4044 14.8769 29.5513 14.6656 29.7532 14.4986C29.955 14.3315 30.2043 14.2149 30.4752 14.1609C31.801 13.9069 33.1786 13.9503 34.4801 14.2868C35.7817 14.6233 36.9649 15.2422 37.92 16.0859C39.306 17.3076 40.1382 18.9277 40.2624 20.6457V20.6989C40.2592 20.7212 40.2592 20.7438 40.2624 20.7661V20.7941C40.4453 22.2138 41.1756 23.5367 42.3328 24.5447L57.9472 38.2087C58.5481 38.7347 58.9573 39.4048 59.123 40.1342C59.2887 40.8637 59.2035 41.6198 58.8781 42.3069C58.5527 42.994 58.0017 43.5812 57.2949 43.9943C56.5881 44.4074 55.7572 44.6278 54.9072 44.6277L54.9264 44.6291ZM31.8864 26.7623L32.0144 26.7707C32.0309 26.7715 32.0475 26.7715 32.064 26.7707H32.1472C34.099 26.9685 35.9175 27.7365 37.3088 28.9505L52.9232 42.6117C53.1843 42.8477 53.4964 43.0358 53.8414 43.1652C54.1864 43.2946 54.5574 43.3626 54.9327 43.3652C55.308 43.3679 55.6802 43.3052 56.0276 43.1807C56.3749 43.0563 56.6905 42.8726 56.9559 42.6403C57.2213 42.4081 57.4313 42.132 57.5735 41.828C57.7157 41.5241 57.7874 41.1984 57.7844 40.87C57.7813 40.5416 57.7036 40.217 57.5558 39.9151C57.4079 39.6132 57.1929 39.3401 56.9232 39.1117L41.3104 25.4491C39.9203 24.2373 39.042 22.6483 38.8192 20.9425C38.8064 20.8613 38.8 20.7794 38.8 20.6975C38.7382 19.8669 38.4724 19.0578 38.0208 18.3252C37.5692 17.5927 36.9424 16.954 36.1831 16.4526C35.4238 15.9512 34.5499 15.5991 33.6209 15.4201C32.6919 15.241 31.7298 15.2394 30.8 15.4153C30.7794 15.4208 30.7621 15.4331 30.7517 15.4495C30.7413 15.466 30.7385 15.4853 30.744 15.5035C30.7472 15.5173 30.755 15.53 30.7664 15.5399L34.2864 18.6199C34.8758 19.1831 35.1944 19.9235 35.1759 20.687C35.1574 21.4506 34.8033 22.1785 34.1872 22.7194C33.571 23.2603 32.7403 23.5726 31.8678 23.5913C30.9953 23.61 30.1481 23.3337 29.5024 22.8199L25.9824 19.7245C25.9744 19.7176 25.9649 19.7122 25.9545 19.7085C25.944 19.7049 25.9328 19.7032 25.9216 19.7035C25.899 19.7034 25.8772 19.7109 25.8608 19.7245C25.8494 19.7344 25.8416 19.7471 25.8384 19.7609C25.6366 20.5743 25.6382 21.4163 25.8433 22.229C26.0483 23.0418 26.4518 23.8062 27.0262 24.4697C27.6006 25.1332 28.3322 25.6801 29.1708 26.0729C30.0094 26.4657 30.9353 26.6952 31.8848 26.7455L31.8864 26.7623Z" fill="#337CF2"/>
<path d="M54.6864 35.1623C54.4705 34.9909 54.2146 34.8625 53.9364 34.7861C53.6582 34.7097 53.3644 34.6871 53.0752 34.7199C53.0347 34.7264 52.993 34.7231 52.9544 34.7106C52.9158 34.698 52.8818 34.6766 52.856 34.6485L52.8432 34.6359C52.7984 34.5969 52.772 34.5445 52.7693 34.4893C52.7666 34.434 52.7879 34.3799 52.8288 34.3377C52.93 34.2322 53.0215 34.1199 53.1024 34.0017C53.2982 33.679 53.3706 33.3099 53.309 32.9486C53.2474 32.5872 53.055 32.2527 52.76 31.9941C52.4593 31.7148 52.0674 31.5237 51.6378 31.4467C51.2082 31.3698 50.7619 31.4109 50.36 31.5643C50.3328 31.5755 50.264 31.5881 50.2368 31.5643C50.2096 31.5405 50.2368 31.4803 50.2496 31.4565C50.5265 31.1338 50.6715 30.739 50.6613 30.3355C50.651 29.932 50.4861 29.5432 50.1931 29.2316C49.9 28.9199 49.4958 28.7035 49.0453 28.617C48.5948 28.5304 48.1241 28.5789 47.7088 28.7545C47.696 28.7545 47.6416 28.7909 47.6144 28.7671C47.5872 28.7433 47.6416 28.6831 47.6416 28.6831L47.84 28.5039C48.2378 28.1753 48.4702 27.7219 48.4859 27.2434C48.5017 26.7649 48.2996 26.3005 47.924 25.9524C47.5485 25.6043 47.0303 25.401 46.4834 25.3872C45.9366 25.3734 45.4058 25.5503 45.008 25.8789L44.9568 25.9223L39.9312 30.3085C39.8896 30.3449 39.848 30.3687 39.808 30.4051L39.7808 30.4289C39.6582 30.5399 39.5111 30.6279 39.3484 30.6876C39.1858 30.7474 39.0109 30.7775 38.8345 30.7764C38.6581 30.7752 38.4838 30.7427 38.3222 30.6808C38.1606 30.6189 38.0151 30.5289 37.8944 30.4163L36.6144 29.3047C35.44 30.3925 34.7568 31.8247 34.9616 33.3087L35.1792 34.8753C35.2435 35.3454 35.1847 35.8221 35.0073 36.2694C34.8299 36.7167 34.5385 37.1228 34.1552 37.4569L28.6496 42.2799L37.5296 50.0485L44.072 44.3225C44.3924 44.0414 44.773 43.8183 45.192 43.6659L48.1168 42.5599C49.6028 41.9277 50.9553 41.0794 52.1168 40.0511L54.7392 37.7915C55.1293 37.4533 55.3508 36.9939 55.3553 36.5134C55.3598 36.033 55.147 35.5704 54.7632 35.2267L54.6848 35.1623H54.6864Z" fill="#FCFCFC"/>
<path d="M37.5296 50.9515L27.6096 42.2715L33.6336 37.0019C33.9391 36.7367 34.1713 36.4139 34.3124 36.0582C34.4536 35.7025 34.4999 35.3233 34.448 34.9495L34.24 33.3871C34.0224 31.8023 34.696 30.1545 36.088 28.8637L36.6048 28.3863L38.4144 29.9599C38.4666 30.0133 38.5311 30.0565 38.6037 30.0865C38.6763 30.1165 38.7553 30.1327 38.8356 30.134C38.9159 30.1353 38.9956 30.1218 39.0694 30.0942C39.1433 30.0666 39.2096 30.0256 39.264 29.9739L39.2912 29.9501C39.3296 29.9179 39.3664 29.8899 39.4016 29.8633L44.4416 25.4673L44.5072 25.4127C44.7741 25.1917 45.0881 25.019 45.4314 24.9044C45.7746 24.7898 46.1403 24.7355 46.5076 24.7448C46.8748 24.754 47.2364 24.8265 47.5715 24.9582C47.9067 25.0899 48.2089 25.2781 48.4608 25.5121C48.8078 25.834 49.0487 26.2322 49.1577 26.6644C49.2667 27.0965 49.2399 27.5464 49.08 27.9663C49.6821 28.0577 50.2331 28.3199 50.648 28.7125C50.9334 28.9872 51.1445 29.3145 51.2659 29.6703C51.3872 30.026 51.4155 30.4011 51.3488 30.7677C52.0796 30.8076 52.7676 31.0829 53.28 31.5405C53.6574 31.8693 53.914 32.2892 54.017 32.7464C54.1199 33.2036 54.0644 33.6773 53.8576 34.1067C54.3501 34.1905 54.8071 34.3905 55.1792 34.6849L55.2848 34.7745C55.5437 35.0042 55.7483 35.2763 55.887 35.5752C56.0256 35.8742 56.0955 36.1941 56.0927 36.5167C56.0898 36.8393 56.0143 37.1583 55.8705 37.4553C55.7267 37.7524 55.5173 38.0217 55.2544 38.2479L52.64 40.5075C51.4214 41.586 50.0023 42.4755 48.4432 43.1381L48.4128 43.1507L45.4896 44.2497C45.1566 44.37 44.8542 44.5471 44.6 44.7705L37.5296 50.9515ZM29.6896 42.2715L37.5296 49.1315L43.5536 43.8605C43.9417 43.5189 44.4034 43.2482 44.912 43.0639L47.8096 41.9733C49.2169 41.3733 50.4975 40.5685 51.5968 39.5933L54.2256 37.3281C54.4785 37.1102 54.6223 36.8134 54.6253 36.5029C54.6283 36.1923 54.4903 35.8935 54.2416 35.6719L54.1936 35.6313C54.0573 35.5237 53.8962 35.443 53.7212 35.3947C53.5462 35.3464 53.3613 35.3316 53.1792 35.3513C53.0187 35.373 52.8544 35.3587 52.7019 35.3097C52.5494 35.2608 52.4136 35.1787 52.3072 35.0713C52.139 34.9171 52.0421 34.714 52.035 34.5009C52.0279 34.2879 52.1112 34.0802 52.2688 33.9177C52.3401 33.8437 52.4048 33.7651 52.4624 33.6825C52.5806 33.4821 52.6228 33.254 52.5828 33.0312C52.5428 32.8084 52.4227 32.6025 52.24 32.4435C52.0451 32.256 51.7882 32.1264 51.5052 32.0727C51.2221 32.019 50.9269 32.0439 50.6608 32.1439C50.5061 32.2184 50.3275 32.2461 50.153 32.2225C49.9784 32.1989 49.8177 32.1255 49.6958 32.0136C49.574 31.9017 49.4979 31.7577 49.4794 31.604C49.4609 31.4503 49.5011 31.2955 49.5936 31.1639L49.656 31.0743C49.8399 30.8544 49.9316 30.5858 49.9156 30.3137C49.8996 30.0416 49.7768 29.7826 49.568 29.5805C49.3754 29.3998 49.1214 29.2781 48.8436 29.2335C48.5658 29.1888 48.279 29.2236 48.0256 29.3327L47.8752 29.3957H47.8224C47.6931 29.4239 47.5577 29.4223 47.4293 29.3911C47.3009 29.36 47.1839 29.3003 47.0896 29.2179C46.9536 29.0919 46.8759 28.9262 46.8714 28.7529C46.867 28.5797 46.9362 28.4111 47.0656 28.2799L47.1184 28.2281L47.3232 28.0489C47.4527 27.9445 47.5573 27.8187 47.631 27.6788C47.7046 27.5389 47.7459 27.3876 47.7525 27.2336C47.759 27.0797 47.7307 26.9261 47.6691 26.7818C47.6075 26.6375 47.5139 26.5052 47.3936 26.3927C47.2744 26.281 47.1309 26.1913 46.9716 26.1288C46.8122 26.0663 46.6402 26.0323 46.4656 26.0287C46.1136 26.021 45.7723 26.1347 45.5152 26.3451L45.48 26.3745L40.4528 30.7621C40.4144 30.7957 40.3792 30.8223 40.3424 30.8489L40.3024 30.8811C40.1128 31.0516 39.886 31.1871 39.6355 31.2796C39.385 31.3721 39.1159 31.4198 38.844 31.4198C38.5721 31.4198 38.303 31.3721 38.0525 31.2796C37.802 31.1871 37.5752 31.0516 37.3856 30.8811L36.6656 30.2567C35.9024 31.1681 35.5456 32.2265 35.6896 33.2359L35.9088 34.8011C35.988 35.3684 35.9178 35.9439 35.7037 36.4838C35.4896 37.0237 35.1373 37.5136 34.6736 37.9161L29.6896 42.2715ZM50.0752 30.9693L50.032 30.9861L50.0752 30.9693Z" fill="#337CF2"/>
<path d="M54.6864 35.1623C54.4705 34.9908 54.2146 34.8625 53.9364 34.7861C53.6582 34.7097 53.3644 34.6871 53.0752 34.7199C53.0347 34.7263 52.993 34.7231 52.9544 34.7105C52.9158 34.698 52.8818 34.6765 52.856 34.6485L52.8432 34.6359C52.7983 34.5969 52.772 34.5445 52.7693 34.4892C52.7666 34.434 52.7879 34.3798 52.8288 34.3377C52.93 34.2322 53.0215 34.1198 53.1024 34.0017C53.2982 33.679 53.3706 33.3099 53.309 32.9485C53.2474 32.5872 53.055 32.2527 52.76 31.9941C52.4593 31.7148 52.0674 31.5236 51.6378 31.4467C51.2082 31.3698 50.7619 31.4108 50.36 31.5643L46.3168 34.9467C45.1464 35.9661 43.7957 36.8137 42.3168 37.4569L39.3936 38.5559C38.9769 38.7126 38.5971 38.9357 38.2736 39.2139L36.0736 41.1375C36.0736 41.1375 37.6048 42.4773 36.224 43.6239C35.9342 43.8784 35.5576 44.0433 35.1512 44.0938C34.7447 44.1444 34.3305 44.0777 33.9712 43.9039L32.2768 45.4103L37.5488 50.0233L44.0928 44.2987C44.413 44.017 44.7936 43.7934 45.2128 43.6407L48.136 42.5417C49.6217 41.9085 50.9742 41.0598 52.136 40.0315L54.7584 37.7719C55.1461 37.4324 55.3639 36.9722 55.3639 36.4923C55.3639 36.0124 55.1461 35.5521 54.7584 35.2127L54.688 35.1553L54.6864 35.1623Z" fill="#FCFCFC"/>
<path d="M37.544 50.9389L31.2368 45.4201L33.8304 43.1199L34.3104 43.3537C34.5311 43.4587 34.7847 43.4985 35.0333 43.4669C35.2819 43.4354 35.5121 43.3343 35.6896 43.1787C35.7962 43.1033 35.8836 43.0094 35.9464 42.9029C36.0092 42.7963 36.046 42.6795 36.0544 42.5599C36.0544 42.1399 35.6528 41.6933 35.5424 41.5981L35.024 41.1431L37.744 38.7631C38.133 38.4275 38.5905 38.1587 39.0928 37.9707L41.9968 36.8773C43.3994 36.2676 44.6804 35.464 45.7904 34.4973L49.9344 31.0309L50.0464 30.9847C50.5852 30.7766 51.1841 30.7187 51.7618 30.8189C52.3395 30.9191 52.8679 31.1725 53.2752 31.5447C53.6526 31.8734 53.9092 32.2933 54.0122 32.7506C54.1151 33.2078 54.0596 33.6814 53.8528 34.1109C54.3453 34.1947 54.8023 34.3947 55.1744 34.6891L55.2688 34.7689C55.5293 34.9964 55.736 35.2667 55.877 35.5642C56.018 35.8618 56.0906 36.1807 56.0906 36.5028C56.0906 36.8249 56.018 37.1438 55.877 37.4413C55.736 37.7388 55.5293 38.0091 55.2688 38.2367L52.64 40.4963C51.4241 41.5725 50.0075 42.4597 48.4512 43.1199L48.4192 43.1325L45.496 44.2399C45.1627 44.3598 44.8602 44.5369 44.6064 44.7607L37.544 50.9389ZM33.304 45.4131L37.544 49.1231L43.568 43.8521C43.955 43.51 44.4164 43.2392 44.9248 43.0555L47.824 41.9649C49.2307 41.3648 50.5108 40.56 51.6096 39.5849L54.24 37.3211C54.489 37.1025 54.6287 36.8065 54.6287 36.4979C54.6287 36.1893 54.489 35.8933 54.24 35.6747L54.1968 35.6369C54.0603 35.5297 53.8991 35.4493 53.7242 35.401C53.5492 35.3527 53.3645 35.3377 53.1824 35.3569C53.0219 35.3786 52.8576 35.3643 52.7051 35.3153C52.5526 35.2663 52.4168 35.1843 52.3104 35.0769C52.1422 34.9227 52.0453 34.7195 52.0382 34.5065C52.0311 34.2935 52.1144 34.0857 52.272 33.9233C52.3429 33.8496 52.4076 33.7714 52.4656 33.6895C52.5837 33.4888 52.6258 33.2605 52.5858 33.0375C52.5458 32.8145 52.4258 32.6085 52.2432 32.4491C52.0603 32.2744 51.8236 32.1497 51.5616 32.0901C51.2995 32.0305 51.0234 32.0385 50.7664 32.1131L46.824 35.4129C45.5996 36.4778 44.1867 37.3627 42.64 38.0337L42.6032 38.0477L39.68 39.1467C39.347 39.2719 39.0432 39.4499 38.784 39.6717L37.0448 41.1935C37.3527 41.6028 37.5194 42.0811 37.5248 42.5711C37.5165 42.8586 37.4413 43.1416 37.3038 43.4028C37.1662 43.6639 36.9692 43.8978 36.7248 44.0901C36.3924 44.3783 35.9781 44.5837 35.5248 44.6851C35.0714 44.7864 34.5953 44.7802 34.1456 44.6669L33.304 45.4131Z" fill="#337CF2"/>
<path d="M35.8496 52.4579L41.7696 47.2779L31.9344 38.6721L16.1792 52.4579H35.8496Z" fill="white"/>
<path d="M36.16 53.0991H14.4L31.928 37.7677L42.808 47.2877L36.16 53.0991ZM17.9568 51.8153H35.5568L40.7376 47.2821L31.9376 39.5821L17.9568 51.8153Z" fill="#337CF2"/>
<path d="M29.9072 38.1135C29.5544 38.4276 29.3568 38.8504 29.3568 39.2909C29.3568 39.7313 29.5544 40.1541 29.9072 40.4683L39.36 48.7395C39.5367 48.8941 39.7465 49.0167 39.9774 49.1004C40.2082 49.1841 40.4557 49.2272 40.7056 49.2272C40.9555 49.2272 41.203 49.1841 41.4338 49.1004C41.6647 49.0167 41.8745 48.8941 42.0512 48.7395C42.2279 48.5848 42.3681 48.4013 42.4637 48.1993C42.5593 47.9972 42.6086 47.7807 42.6086 47.5621C42.6086 47.3434 42.5593 47.1269 42.4637 46.9249C42.3681 46.7228 42.2279 46.5393 42.0512 46.3847L32.5984 38.1135C32.2469 37.8015 31.7682 37.6243 31.2675 37.6209C30.7668 37.6175 30.285 37.7881 29.928 38.0953L29.9072 38.1135Z" fill="white"/>
<path d="M40.7056 49.8693C40.3594 49.8702 40.0163 49.811 39.6964 49.6952C39.3764 49.5794 39.0859 49.4092 38.8416 49.1945L29.3888 40.9233C28.8997 40.4886 28.6256 39.903 28.6256 39.293C28.6256 38.683 28.8997 38.0974 29.3888 37.6627L29.9072 38.1163L29.392 37.6599L29.4176 37.6375C29.9123 37.2115 30.58 36.9746 31.2741 36.9788C31.9682 36.983 32.6321 37.2279 33.12 37.6599L42.568 45.9269C42.9366 46.2496 43.1876 46.6606 43.2892 47.108C43.3909 47.5555 43.3387 48.0192 43.1392 48.4407C42.9397 48.8622 42.6019 49.2225 42.1684 49.476C41.735 49.7295 41.2254 49.8649 40.704 49.8651L40.7056 49.8693ZM29.9072 38.1093L30.4288 38.5615C30.211 38.755 30.0889 39.0158 30.0889 39.2874C30.0889 39.559 30.211 39.8198 30.4288 40.0133L39.8784 48.2817C40.0976 48.4735 40.3949 48.5812 40.7048 48.5812C41.0148 48.5812 41.312 48.4735 41.5312 48.2817C41.7504 48.0899 41.8735 47.8298 41.8735 47.5586C41.8735 47.2874 41.7504 47.0273 41.5312 46.8355L32.08 38.5685C31.9737 38.4734 31.8471 38.3975 31.7073 38.3453C31.5675 38.293 31.4173 38.2654 31.2653 38.2639C31.1132 38.2625 30.9624 38.2873 30.8213 38.3369C30.6803 38.3866 30.5518 38.46 30.4432 38.5531L29.9072 38.1093Z" fill="#337CF2"/>
<path d="M35.8768 39.7151L47.7968 29.9235L50.944 32.8089L39.4672 42.8553L35.8768 39.7151Z" fill="#FCFCFC"/>
</svg>
