<svg width="80" height="70" viewBox="0 0 80 70" fill="none" xmlns="http://www.w3.org/2000/svg">
<path d="M42.4 26.0301C39.3726 26.086 36.4166 25.2222 34.0352 23.5857C29.9072 20.7731 24.4352 19.9023 19.7152 21.7503C14.8368 23.6809 12.056 28.0335 12.16 32.7305C12.2144 35.6033 11.1104 38.3095 9.05279 40.3241C6.00159 43.3047 4.61119 47.9429 6.46399 53.5933C6.67744 54.2178 7.00137 54.8092 7.42399 55.346C13.4864 62.8794 22.3568 63.7461 28.12 60.3287C31.3344 58.4093 35.5184 58.111 39.3872 59.3865C47.248 61.9736 56.5552 60.0864 62.0592 51.8265C62.6992 50.8465 63.3264 49.1203 63.448 47.9513C64.784 34.6611 53.5168 25.8033 42.4 26.0301Z" fill="#A6E0F7"/>
<path d="M72.2064 35.5599H65.0064V29.1773H72.2064C72.3883 29.1756 72.5688 29.2054 72.7375 29.2651C72.9062 29.3247 73.0597 29.413 73.1893 29.5248C73.3188 29.6365 73.4218 29.7696 73.4923 29.9164C73.5628 30.0631 73.5994 30.2207 73.6 30.3799V34.3587C73.6 34.5179 73.5638 34.6756 73.4936 34.8226C73.4233 34.9695 73.3203 35.1028 73.1906 35.2145C73.0609 35.3263 72.9071 35.4144 72.7381 35.4737C72.5692 35.533 72.3884 35.5623 72.2064 35.5599Z" fill="#A6E0F7"/>
<path d="M72.2064 36.2305H64.2352V28.4997H72.2064C72.7794 28.4971 73.3302 28.6936 73.7376 29.0462C74.145 29.3988 74.3758 29.8785 74.3792 30.3799V34.3587C74.3823 34.6012 74.3299 34.8418 74.2252 35.0663C74.1206 35.2909 73.9656 35.4948 73.7696 35.6663C73.5652 35.8468 73.3216 35.9898 73.0532 36.0867C72.7847 36.1836 72.4968 36.2324 72.2064 36.2305ZM65.784 34.8753H72.2064C72.292 34.876 72.3769 34.8619 72.4563 34.8337C72.5356 34.8056 72.6078 34.7641 72.6688 34.7115C72.7208 34.666 72.7618 34.6118 72.7893 34.5522C72.8168 34.4925 72.8302 34.4286 72.8288 34.3643V30.3799C72.8278 30.3096 72.8107 30.2402 72.7786 30.1757C72.7466 30.1113 72.7001 30.0531 72.642 30.0046C72.5838 29.9561 72.5152 29.9182 72.4402 29.8933C72.3651 29.8683 72.2851 29.8566 72.2048 29.8591H65.784V34.8753Z" fill="#337CF2"/>
<path d="M63.0832 40.1799H58.192C57.9542 40.183 57.718 40.145 57.4971 40.0678C57.2763 39.9907 57.075 39.8761 56.905 39.7306C56.735 39.5851 56.5996 39.4116 56.5066 39.22C56.4136 39.0285 56.3649 38.8228 56.3632 38.6147V26.1253C56.3687 25.7056 56.5644 25.305 56.9073 25.0115C57.2502 24.718 57.7123 24.5556 58.192 24.5601H63.0832C65.4384 24.5601 67.3568 26.1925 67.3568 28.2085V36.5399C67.36 38.5489 65.4512 40.1799 63.0832 40.1799Z" fill="white"/>
<path d="M63.0832 40.8589H58.192C57.5076 40.863 56.8493 40.6295 56.3613 40.2096C55.8734 39.7897 55.5956 39.2177 55.5888 38.6189V30.1993C55.5888 30.0196 55.6704 29.8472 55.8156 29.7202C55.9609 29.5931 56.1578 29.5217 56.3632 29.5217C56.5686 29.5217 56.7656 29.5931 56.9108 29.7202C57.056 29.8472 57.1376 30.0196 57.1376 30.1993V38.6161C57.1386 38.7354 57.1669 38.8534 57.2207 38.9631C57.2745 39.0727 57.3528 39.1719 57.4511 39.2547C57.5493 39.3375 57.6654 39.4023 57.7927 39.4453C57.9199 39.4883 58.0557 39.5086 58.192 39.5051H63.0832C65.0128 39.5051 66.5824 38.1765 66.5824 36.5441V29.1773C66.5824 28.9976 66.664 28.8252 66.8092 28.6982C66.9544 28.5711 67.1514 28.4997 67.3568 28.4997C67.5622 28.4997 67.7592 28.5711 67.9044 28.6982C68.0496 28.8252 68.1312 28.9976 68.1312 29.1773V36.5399C68.1312 38.9199 65.8672 40.8589 63.0832 40.8589Z" fill="#337CF2"/>
<path d="M45.8688 56.018H26.56C26.2583 56.0179 25.961 55.955 25.6925 55.8346C25.424 55.7141 25.1921 55.5396 25.0158 55.3254C24.8396 55.1111 24.724 54.8633 24.6787 54.6023C24.6334 54.3413 24.6596 54.0746 24.7552 53.8242L28.7808 43.313H43.6608L47.68 53.8256C47.7758 54.0764 47.802 54.3435 47.7563 54.6049C47.7107 54.8663 47.5946 55.1144 47.4175 55.3286C47.2405 55.5429 47.0077 55.7172 46.7384 55.8371C46.4691 55.957 46.171 56.019 45.8688 56.018Z" fill="white"/>
<path d="M45.8688 56.6998H26.56C26.1355 56.6998 25.717 56.6114 25.3392 56.442C24.9614 56.2725 24.6351 56.0269 24.3872 55.7253C24.1393 55.4237 23.9769 55.0749 23.9135 54.7076C23.8501 54.3403 23.8874 53.965 24.0224 53.6128L28.224 42.6396H44.224L48.416 53.6142C48.5491 53.9661 48.5849 54.3406 48.5205 54.707C48.4561 55.0734 48.2933 55.4211 48.0455 55.7217C47.7976 56.0223 47.4718 56.2672 47.0948 56.4363C46.7178 56.6054 46.3004 56.6938 45.8768 56.6942L45.8688 56.6998ZM29.3344 43.9906L25.4864 54.0398C25.4276 54.1883 25.4105 54.347 25.4366 54.5025C25.4626 54.658 25.5309 54.8057 25.6359 54.9332C25.7408 55.0607 25.8793 55.1643 26.0395 55.2351C26.1998 55.306 26.3772 55.3421 26.5568 55.3404H45.8688C46.0484 55.3421 46.2258 55.306 46.386 55.2351C46.5463 55.1643 46.6848 55.0607 46.7897 54.9332C46.8946 54.8057 46.963 54.658 46.989 54.5025C47.015 54.347 46.9979 54.1883 46.9392 54.0398L43.0992 43.9906H29.3344Z" fill="#337CF2"/>
<path d="M29.4992 10.4915V19.8631C29.5051 20.2824 29.7007 20.6826 30.0432 20.976C30.3857 21.2694 30.8471 21.432 31.3264 21.4283H41.0976C41.3353 21.4312 41.5712 21.393 41.792 21.3158C42.0127 21.2386 42.2137 21.124 42.3836 20.9785C42.5534 20.833 42.6887 20.6595 42.7816 20.4681C42.8745 20.2766 42.9231 20.071 42.9248 19.8631V10.4915H29.4992Z" fill="#A6E0F7"/>
<path d="M41.0976 22.1689H31.3264C30.6227 22.1726 29.946 21.9319 29.4447 21.4997C28.9435 21.0674 28.6587 20.4788 28.6528 19.8631V9.75085H43.7712V19.8631C43.7653 20.4788 43.4805 21.0674 42.9793 21.4997C42.478 21.9319 41.8013 22.1726 41.0976 22.1689ZM30.3456 11.2321V19.8631C30.3479 19.9736 30.3751 20.0827 30.4257 20.184C30.4762 20.2854 30.5492 20.377 30.6403 20.4536C30.7314 20.5302 30.8389 20.5903 30.9567 20.6305C31.0744 20.6706 31.2001 20.6901 31.3264 20.6877H41.0976C41.2239 20.6901 41.3496 20.6706 41.4673 20.6305C41.5851 20.5903 41.6926 20.5302 41.7837 20.4536C41.8748 20.377 41.9478 20.2854 41.9983 20.184C42.0489 20.0827 42.0761 19.9736 42.0784 19.8631V11.2321H30.3456Z" fill="#337CF2"/>
<path d="M44.7664 11.5639H27.6576C27.4181 11.5702 27.1796 11.5343 26.9562 11.4584C26.7328 11.3825 26.5291 11.2682 26.3571 11.1222C26.1852 10.9762 26.0485 10.8014 25.9551 10.6083C25.8618 10.4152 25.8137 10.2077 25.8137 9.998C25.8137 9.78833 25.8618 9.58079 25.9551 9.38768C26.0485 9.19458 26.1852 9.01984 26.3571 8.87381C26.5291 8.72778 26.7328 8.61344 26.9562 8.53757C27.1796 8.4617 27.4181 8.42583 27.6576 8.4321H44.7664C45.0059 8.42583 45.2444 8.4617 45.4678 8.53757C45.6912 8.61344 45.8949 8.72778 46.0669 8.87381C46.2388 9.01984 46.3755 9.19458 46.4689 9.38768C46.5622 9.58079 46.6103 9.78833 46.6103 9.998C46.6103 10.2077 46.5622 10.4152 46.4689 10.6083C46.3755 10.8014 46.2388 10.9762 46.0669 11.1222C45.8949 11.2682 45.6912 11.3825 45.4678 11.4584C45.2444 11.5343 45.0059 11.5702 44.7664 11.5639Z" fill="white"/>
<path d="M44.7648 12.2401H27.6576C26.9786 12.2401 26.3275 12.0041 25.8474 11.584C25.3673 11.1639 25.0976 10.5942 25.0976 10.0001C25.0976 9.40599 25.3673 8.83623 25.8474 8.41615C26.3275 7.99607 26.9786 7.76007 27.6576 7.76007H44.7648C45.4437 7.76007 46.0949 7.99607 46.575 8.41615C47.0551 8.83623 47.3248 9.40599 47.3248 10.0001C47.3248 10.5942 47.0551 11.1639 46.575 11.584C46.0949 12.0041 45.4437 12.2401 44.7648 12.2401ZM27.6576 9.10967C27.3836 9.10555 27.1189 9.19667 26.9215 9.36305C26.7242 9.52944 26.6103 9.75752 26.6048 9.99727C26.6058 10.1165 26.634 10.2343 26.6877 10.3439C26.7415 10.4535 26.8196 10.5526 26.9177 10.6354C27.0157 10.7182 27.1317 10.783 27.2587 10.8261C27.3858 10.8692 27.5214 10.8896 27.6576 10.8863H44.7648C45.0392 10.8904 45.3044 10.7991 45.502 10.6325C45.6997 10.4658 45.8137 10.2374 45.8192 9.99727C45.818 9.87804 45.7896 9.76023 45.7357 9.65073C45.6817 9.54122 45.6034 9.44224 45.5052 9.35958C45.407 9.27691 45.2909 9.21223 45.1638 9.16932C45.0366 9.12641 44.901 9.10613 44.7648 9.10967H27.6576Z" fill="#337CF2"/>
<path d="M44.5552 18.2979H53.3136C57.0208 18.2979 60.0336 20.8655 60.0336 24.0379V40.6993C60.0336 43.8647 57.0224 46.4393 53.3136 46.4393H19.1104C15.4032 46.4393 12.3904 43.8703 12.3904 40.6993V24.0309C12.3904 20.8767 15.4016 18.2909 19.1104 18.2909H28.2768" fill="#FAFBFC"/>
<path d="M60.032 30.9007V40.7007C60.032 43.8661 57.0208 46.4407 53.312 46.4407H19.1104C15.4032 46.4407 12.3904 43.8717 12.3904 40.7007V24.0309C12.3904 20.8767 15.4016 18.2909 19.1104 18.2909H28.2768" fill="#FAFBFC"/>
<path d="M53.3136 47.1099H19.1104C14.9792 47.1099 11.6176 44.2343 11.6176 40.7007V24.0309C11.6176 20.4959 14.9776 17.6203 19.1104 17.6203H28.2768C28.4759 17.6282 28.6638 17.703 28.8015 17.8291C28.9392 17.9552 29.016 18.1228 29.016 18.2972C29.016 18.4716 28.9392 18.6392 28.8015 18.7653C28.6638 18.8914 28.4759 18.9662 28.2768 18.9741H19.1104C15.832 18.9741 13.1664 21.2421 13.1664 24.0309V40.7007C13.1664 43.4881 15.832 45.7561 19.1104 45.7561H53.3136C56.5904 45.7561 59.2576 43.4881 59.2576 40.7007V30.9007C59.2576 30.721 59.3392 30.5486 59.4844 30.4216C59.6297 30.2945 59.8266 30.2231 60.032 30.2231C60.2374 30.2231 60.4344 30.2945 60.5796 30.4216C60.7248 30.5486 60.8064 30.721 60.8064 30.9007V40.7007C60.8 44.2399 57.44 47.1099 53.3136 47.1099Z" fill="#337CF2"/>
<path d="M44.5552 18.2979H53.3136C54.4675 18.2961 55.6029 18.5515 56.6128 19.0399" fill="#FAFBFC"/>
<path d="M56.6128 19.7133C56.4824 19.7135 56.3541 19.6846 56.24 19.6293C55.343 19.1989 54.3365 18.9736 53.3136 18.9741H44.5552C44.4506 18.9782 44.3462 18.9638 44.2482 18.9317C44.1502 18.8995 44.0607 18.8503 43.985 18.7871C43.9093 18.7238 43.8491 18.6478 43.808 18.5636C43.7668 18.4794 43.7456 18.3887 43.7456 18.2972C43.7456 18.2056 43.7668 18.115 43.808 18.0308C43.8491 17.9466 43.9093 17.8705 43.985 17.8073C44.0607 17.744 44.1502 17.6948 44.2482 17.6627C44.3462 17.6305 44.4506 17.6161 44.5552 17.6203H53.3136C54.6 17.6186 55.8659 17.9018 56.9936 18.4435C57.1434 18.5163 57.2613 18.6306 57.3289 18.7684C57.3965 18.9062 57.4099 19.0597 57.3671 19.2049C57.3243 19.3501 57.2276 19.4788 57.0923 19.5708C56.957 19.6628 56.7906 19.7129 56.6192 19.7133H56.6128Z" fill="#337CF2"/>
<path d="M50.8672 48.5169C50.3648 48.5169 49.9648 47.8169 49.9648 46.9517V17.7911C49.9648 16.9231 50.3712 16.2245 50.8672 16.2245C51.3632 16.2245 51.7696 16.9245 51.7696 17.7911V46.9517C51.776 47.8183 51.3696 48.5169 50.8672 48.5169Z" fill="#337CF2"/>
<path d="M22.08 48.5169C21.5792 48.5169 21.1776 47.8169 21.1776 46.9517V17.7911C21.1776 16.9231 21.584 16.2245 22.08 16.2245C22.576 16.2245 22.9824 16.9245 22.9824 17.7911V46.9517C22.984 47.8183 22.5776 48.5169 22.08 48.5169Z" fill="#337CF2"/>
<path d="M42.32 40.9611H30.104C29.424 40.9611 28.7718 40.7247 28.291 40.304C27.8101 39.8832 27.54 39.3126 27.54 38.7176C27.54 38.1225 27.8101 37.5519 28.291 37.1312C28.7718 36.7104 29.424 36.4741 30.104 36.4741H42.32C43 36.4741 43.6522 36.7104 44.133 37.1312C44.6139 37.5519 44.884 38.1225 44.884 38.7176C44.884 39.3126 44.6139 39.8832 44.133 40.304C43.6522 40.7247 43 40.9611 42.32 40.9611ZM30.104 37.8293C29.8295 37.8251 29.5644 37.9164 29.3668 38.0831C29.1691 38.2497 29.0551 38.4781 29.0496 38.7183C29.051 38.8374 29.0796 38.9552 29.1336 39.0646C29.1876 39.174 29.2659 39.2729 29.3641 39.3555C29.4622 39.4382 29.5782 39.5028 29.7053 39.5458C29.8323 39.5888 29.9678 39.6092 30.104 39.6059H42.32C42.4567 39.6106 42.5931 39.5912 42.721 39.5487C42.8489 39.5062 42.9657 39.4415 43.0643 39.3585C43.163 39.2756 43.2415 39.176 43.2951 39.0659C43.3487 38.9558 43.3763 38.8373 43.3763 38.7176C43.3763 38.5978 43.3487 38.4794 43.2951 38.3692C43.2415 38.2591 43.163 38.1595 43.0643 38.0766C42.9657 37.9936 42.8489 37.929 42.721 37.8865C42.5931 37.844 42.4567 37.8245 42.32 37.8293H30.104Z" fill="#337CF2"/>
<path d="M42.32 34.7087H30.104C29.4251 34.7087 28.7739 34.4727 28.2938 34.0526C27.8137 33.6325 27.544 33.0628 27.544 32.4687C27.544 31.8746 27.8137 31.3049 28.2938 30.8848C28.7739 30.4647 29.4251 30.2287 30.104 30.2287H42.32C42.999 30.2287 43.6501 30.4647 44.1302 30.8848C44.6103 31.3049 44.88 31.8746 44.88 32.4687C44.88 33.0628 44.6103 33.6325 44.1302 34.0526C43.6501 34.4727 42.999 34.7087 42.32 34.7087ZM30.104 31.5783C29.8298 31.5742 29.565 31.6652 29.3673 31.8316C29.1697 31.9979 29.0555 32.226 29.0496 32.4659C29.0508 32.5852 29.0792 32.7031 29.1331 32.8126C29.187 32.9222 29.2654 33.0213 29.3635 33.1041C29.4617 33.1868 29.5778 33.2517 29.7049 33.2947C29.832 33.3378 29.9677 33.3583 30.104 33.3549H42.32C42.4567 33.3596 42.5931 33.3402 42.721 33.2977C42.8489 33.2552 42.9657 33.1905 43.0643 33.1076C43.163 33.0246 43.2415 32.9251 43.2951 32.8149C43.3487 32.7048 43.3763 32.5863 43.3763 32.4666C43.3763 32.3469 43.3487 32.2284 43.2951 32.1183C43.2415 32.0081 43.163 31.9086 43.0643 31.8256C42.9657 31.7427 42.8489 31.678 42.721 31.6355C42.5931 31.593 42.4567 31.5735 42.32 31.5783H30.104Z" fill="#337CF2"/>
<path d="M42.32 28.4577H30.104C29.4251 28.4577 28.7739 28.2217 28.2938 27.8016C27.8137 27.3815 27.544 26.8117 27.544 26.2177C27.544 25.6236 27.8137 25.0538 28.2938 24.6337C28.7739 24.2137 29.4251 23.9777 30.104 23.9777H42.32C42.999 23.9777 43.6501 24.2137 44.1302 24.6337C44.6103 25.0538 44.88 25.6236 44.88 26.2177C44.88 26.8117 44.6103 27.3815 44.1302 27.8016C43.6501 28.2217 42.999 28.4577 42.32 28.4577ZM30.104 25.3273C29.8298 25.3231 29.565 25.4142 29.3673 25.5806C29.1697 25.7469 29.0555 25.975 29.0496 26.2149C29.0508 26.3342 29.0792 26.452 29.1331 26.5616C29.187 26.6712 29.2654 26.7703 29.3635 26.853C29.4617 26.9358 29.5778 27.0006 29.7049 27.0437C29.832 27.0868 29.9677 27.1072 30.104 27.1039H42.32C42.4567 27.1086 42.5931 27.0892 42.721 27.0467C42.8489 27.0041 42.9657 26.9395 43.0643 26.8565C43.163 26.7736 43.2415 26.674 43.2951 26.5639C43.3487 26.4538 43.3763 26.3353 43.3763 26.2156C43.3763 26.0958 43.3487 25.9774 43.2951 25.8672C43.2415 25.7571 43.163 25.6575 43.0643 25.5746C42.9657 25.4916 42.8489 25.427 42.721 25.3845C42.5931 25.342 42.4567 25.3225 42.32 25.3273H30.104Z" fill="#337CF2"/>
<path d="M55.064 30.5408V27.815C55.0657 27.505 55.2071 27.208 55.4575 26.9886C55.708 26.7692 56.0472 26.6451 56.4016 26.6432H56.64C56.9947 26.6447 57.3343 26.7687 57.5851 26.9881C57.8359 27.2075 57.9775 27.5047 57.9792 27.815V30.5408C57.9771 30.8509 57.8353 31.1478 57.5845 31.3669C57.3338 31.586 56.9944 31.7098 56.64 31.7112H56.408C56.0528 31.7109 55.7121 31.5876 55.4604 31.3684C55.2086 31.1491 55.0661 30.8517 55.064 30.5408Z" fill="#337CF2"/>
<path d="M41.92 20.2005H45.0352C45.3896 20.2023 45.7288 20.3264 45.9793 20.5458C46.2297 20.7652 46.3711 21.0622 46.3728 21.3723V21.5753C46.3707 21.8851 46.2291 22.1818 45.9787 22.4009C45.7283 22.62 45.3893 22.7439 45.0352 22.7457H41.92C41.5656 22.7442 41.2262 22.6205 40.9755 22.4014C40.7247 22.1822 40.5829 21.8854 40.5808 21.5753V21.3723C40.5825 21.062 40.7241 20.7648 40.9749 20.5453C41.2257 20.3259 41.5654 20.202 41.92 20.2005Z" fill="#337CF2"/>
<path d="M37.2608 22.5077C37.1495 22.5077 37.0393 22.4885 36.9365 22.4512C36.8337 22.4139 36.7404 22.3592 36.6617 22.2903C36.5831 22.2213 36.5208 22.1395 36.4784 22.0495C36.4359 21.9595 36.4142 21.863 36.4144 21.7657C36.4144 19.4515 38.3824 17.5657 40.8016 17.5657C41.0199 17.574 41.2261 17.6557 41.3773 17.7938C41.5284 17.9319 41.6128 18.1158 41.6128 18.307C41.6128 18.4982 41.5284 18.682 41.3773 18.8201C41.2261 18.9582 41.0199 19.04 40.8016 19.0483C39.3152 19.0483 38.1072 20.2663 38.1072 21.7643C38.1076 21.8618 38.086 21.9584 38.0437 22.0485C38.0013 22.1387 37.9391 22.2207 37.8604 22.2898C37.7818 22.3588 37.6883 22.4136 37.5854 22.451C37.4825 22.4884 37.3722 22.5077 37.2608 22.5077Z" fill="#337CF2"/>
<path d="M34.584 22.1577C34.3595 22.1577 34.1442 22.0796 33.9855 21.9407C33.8268 21.8018 33.7376 21.6135 33.7376 21.4171C33.738 19.7771 34.4818 18.2042 35.8057 17.0434C37.1297 15.8825 38.9257 15.2286 40.8 15.2249C41.0245 15.2249 41.2398 15.3029 41.3985 15.4418C41.5572 15.5807 41.6464 15.769 41.6464 15.9655C41.6464 16.1619 41.5572 16.3502 41.3985 16.4891C41.2398 16.628 41.0245 16.7061 40.8 16.7061C39.374 16.7094 38.0078 17.2076 37.0011 18.0913C35.9944 18.975 35.4295 20.1721 35.4304 21.4199C35.4295 21.6158 35.34 21.8034 35.1814 21.9417C35.0227 22.08 34.8079 22.1577 34.584 22.1577Z" fill="#337CF2"/>
<path d="M31.7776 21.5165C31.6663 21.5165 31.5561 21.4973 31.4533 21.4599C31.3505 21.4226 31.2572 21.368 31.1785 21.299C31.0999 21.2301 31.0376 21.1483 30.9952 21.0583C30.9527 20.9683 30.931 20.8718 30.9312 20.7745C30.9312 16.4345 34.5616 12.8939 39.024 12.8939C39.2485 12.8939 39.4638 12.9719 39.6225 13.1108C39.7812 13.2497 39.8704 13.438 39.8704 13.6345C39.8704 13.8309 39.7812 14.0193 39.6225 14.1581C39.4638 14.297 39.2485 14.3751 39.024 14.3751C35.496 14.3751 32.624 17.2465 32.624 20.7745C32.6242 20.8718 32.6025 20.9683 32.56 21.0583C32.5176 21.1483 32.4553 21.2301 32.3767 21.299C32.298 21.368 32.2047 21.4226 32.1019 21.4599C31.9991 21.4973 31.8889 21.5165 31.7776 21.5165Z" fill="#337CF2"/>
<path d="M60.64 28.1889C60.5775 28.1891 60.5153 28.1829 60.4544 28.1707C60.2357 28.1272 60.0455 28.0097 59.9256 27.8439C59.8057 27.6781 59.7657 27.4774 59.8144 27.2859C59.8796 27.0145 59.8774 26.734 59.8078 26.4635C59.7383 26.1929 59.603 25.9386 59.4112 25.7179C58.9682 25.1993 58.3242 24.8399 57.6 24.7071C57.4915 24.6859 57.3888 24.6463 57.2978 24.5904C57.2067 24.5345 57.1292 24.4635 57.0695 24.3814C57.0099 24.2993 56.9693 24.2078 56.9501 24.1119C56.9309 24.0161 56.9334 23.9179 56.9576 23.823C56.9818 23.728 57.0271 23.6381 57.0909 23.5585C57.1548 23.4789 57.2359 23.411 57.3298 23.3588C57.4236 23.3066 57.5282 23.2711 57.6377 23.2543C57.7473 23.2375 57.8595 23.2397 57.968 23.2609C59.0967 23.4714 60.098 24.0368 60.7824 24.8499C61.1155 25.2402 61.349 25.6885 61.4671 26.1645C61.5853 26.6406 61.5853 27.1332 61.4672 27.6093C61.4251 27.7737 61.3202 27.9207 61.1698 28.0261C61.0195 28.1314 60.8326 28.1888 60.64 28.1889Z" fill="#337CF2"/>
<path d="M63.04 28.6663C62.9791 28.6664 62.9184 28.6603 62.8592 28.6481C62.6407 28.6053 62.4506 28.4883 62.3306 28.323C62.2106 28.1576 62.1705 27.9573 62.2192 27.7661C62.489 26.6593 62.2485 25.5041 61.5501 24.5517C60.8517 23.5992 59.7518 22.9266 58.4896 22.6799C58.3811 22.6588 58.2784 22.6193 58.1873 22.5635C58.0962 22.5077 58.0186 22.4368 57.9589 22.3547C57.8992 22.2727 57.8585 22.1812 57.8392 22.0854C57.8199 21.9896 57.8223 21.8914 57.8464 21.7965C57.8705 21.7015 57.9157 21.6116 57.9794 21.532C58.0432 21.4523 58.1242 21.3844 58.218 21.3321C58.3117 21.2799 58.4163 21.2443 58.5258 21.2274C58.6353 21.2105 58.7475 21.2126 58.856 21.2337C60.5581 21.5657 62.0411 22.4733 62.9811 23.7585C63.9212 25.0438 64.242 26.6022 63.8736 28.0937C63.8299 28.2579 63.7235 28.4042 63.5719 28.5083C63.4203 28.6124 63.2327 28.6681 63.04 28.6663Z" fill="#337CF2"/>
<path d="M65.7968 27.7325C65.735 27.7324 65.6733 27.7267 65.6128 27.7157C65.3944 27.6722 65.2046 27.5549 65.0847 27.3894C64.9648 27.2239 64.9246 27.0236 64.9728 26.8323C65.664 24.0883 63.3056 21.2883 59.7152 20.5897C59.496 20.5472 59.3051 20.4302 59.1845 20.2645C59.0639 20.0989 59.0234 19.898 59.072 19.7063C59.1206 19.5145 59.2543 19.3475 59.4436 19.2419C59.6329 19.1364 59.8624 19.101 60.0816 19.1435C64.5824 20.0185 67.5184 23.6109 66.6272 27.1515C66.5858 27.3169 66.4807 27.4649 66.3296 27.5706C66.1784 27.6764 65.9903 27.7335 65.7968 27.7325Z" fill="#337CF2"/>
</svg>
