<svg width="80" height="70" viewBox="0 0 80 70" fill="none" xmlns="http://www.w3.org/2000/svg">
<path d="M61.4016 22.0989C58.0597 20.9843 55.2725 18.8765 53.528 16.1447C52.0318 13.7571 49.8168 11.7737 47.1234 10.4098C44.4299 9.04596 41.361 8.35373 38.2496 8.40826C35.1383 8.4628 32.1035 9.26203 29.4746 10.7192C26.8457 12.1764 24.7233 14.2358 23.3376 16.6739C21.6324 19.681 18.7255 22.0362 15.168 23.2931C9.91999 25.1383 5.52159 29.3831 4.11679 36.0023C3.9616 36.7301 3.9616 37.4767 4.11679 38.2045C6.28159 48.4903 15.7024 53.0193 24.2656 51.8251C29.0656 51.1489 33.9264 52.5517 37.4832 55.4553C44.7104 61.3478 56.312 63.193 67.5632 56.8819C68.8864 56.1441 70.6576 54.5929 71.5008 53.4365C81.2 40.1799 74.0144 26.3941 61.4016 22.0989Z" fill="#A6E0F7"/>
<path d="M47.9728 60.9909H32.0272L35.2272 49.9309H44.7888L47.9728 60.9909Z" fill="white"/>
<path d="M68.1231 18.9251V50.2137C68.1233 50.4561 68.0689 50.6961 67.963 50.92C67.8571 51.144 67.7018 51.3475 67.5059 51.5189C67.3101 51.6902 67.0775 51.8262 66.8216 51.9188C66.5656 52.0115 66.2913 52.0591 66.0143 52.0589H13.9872C13.7101 52.0593 13.4357 52.0118 13.1797 51.9192C12.9236 51.8266 12.691 51.6907 12.4951 51.5193C12.2992 51.3479 12.1439 51.1443 12.0381 50.9203C11.9322 50.6962 11.878 50.4561 11.8784 50.2137V18.9251C11.878 18.6827 11.9322 18.4426 12.0381 18.2185C12.1439 17.9945 12.2992 17.7909 12.4951 17.6195C12.691 17.4481 12.9236 17.3122 13.1797 17.2196C13.4357 17.127 13.7101 17.0795 13.9872 17.0799H66.0143C66.2913 17.0797 66.5656 17.1273 66.8216 17.22C67.0775 17.3126 67.3101 17.4486 67.5059 17.6199C67.7018 17.7913 67.8571 17.9948 67.963 18.2188C68.0689 18.4427 68.1233 18.6827 68.1231 18.9251Z" fill="white"/>
<path d="M68.1231 28.3989V18.9251C68.1233 18.6827 68.0689 18.4427 67.963 18.2188C67.8571 17.9948 67.7018 17.7913 67.5059 17.6199C67.3101 17.4486 67.0775 17.3126 66.8216 17.22C66.5656 17.1273 66.2913 17.0797 66.0143 17.0799H13.9872C13.7101 17.0795 13.4357 17.127 13.1797 17.2196C12.9236 17.3122 12.691 17.4481 12.4951 17.6195C12.2992 17.7909 12.1439 17.9945 12.0381 18.2185C11.9322 18.4426 11.878 18.6827 11.8784 18.9251V28.3989H68.1231Z" fill="#A6E0F7"/>
<path d="M36 28.6453H44.0144V45.8653H36V28.6453Z" fill="white"/>
<path d="M68.1231 23.0103V18.9251C68.1233 18.6827 68.0689 18.4427 67.963 18.2188C67.8571 17.9948 67.7018 17.7913 67.5059 17.6199C67.3101 17.4486 67.0775 17.3126 66.8216 17.22C66.5656 17.1273 66.2913 17.0797 66.0143 17.0799H13.9872C13.7101 17.0795 13.4357 17.127 13.1797 17.2196C12.9236 17.3122 12.691 17.4481 12.4951 17.6195C12.2992 17.7909 12.1439 17.9945 12.0381 18.2185C11.9322 18.4426 11.878 18.6827 11.8784 18.9251V23.0103H68.1231Z" fill="white"/>
<path d="M11.8784 45.8457V50.2011C11.878 50.4435 11.9322 50.6836 12.0381 50.9077C12.1439 51.1317 12.2992 51.3353 12.4951 51.5067C12.691 51.6781 12.9236 51.814 13.1797 51.9066C13.4357 51.9992 13.7101 52.0467 13.9872 52.0463H66.0143C66.2913 52.0465 66.5656 51.9989 66.8216 51.9062C67.0775 51.8136 67.3101 51.6776 67.5059 51.5063C67.7018 51.3349 67.8571 51.1314 67.963 50.9075C68.0689 50.6835 68.1233 50.4435 68.1231 50.2011V45.8457H11.8784Z" fill="white"/>
<path d="M51.3904 22.8871C51.3887 25.5298 50.188 28.0639 48.0523 29.9324C45.9165 31.801 43.0203 32.8512 40 32.8523C33.7008 32.8523 28.5264 28.2631 28.6112 22.7513C28.6311 21.2404 29.045 19.7534 29.8214 18.4037C30.5978 17.054 31.7161 15.8772 33.0912 14.9631C33.299 14.8219 33.548 14.7346 33.8097 14.711C34.0715 14.6875 34.3355 14.7287 34.5718 14.8299C34.8082 14.9311 35.0073 15.0883 35.1467 15.2836C35.286 15.4789 35.3599 15.7045 35.36 15.9347V20.1795C35.3613 20.5055 35.5098 20.8179 35.7733 21.0484C36.0368 21.279 36.3938 21.409 36.7664 21.4101H43.2352C43.6077 21.409 43.9645 21.2789 44.2277 21.0484C44.4909 20.8178 44.6392 20.5054 44.64 20.1795V15.9347C44.6408 15.7052 44.7149 15.4805 44.854 15.2859C44.9931 15.0913 45.1916 14.9346 45.4271 14.8336C45.6626 14.7325 45.9257 14.6911 46.1867 14.714C46.4476 14.7369 46.6961 14.8232 46.904 14.9631C48.299 15.8921 49.4298 17.0907 50.2081 18.4652C50.9863 19.8398 51.3909 21.3531 51.3904 22.8871Z" fill="white"/>
<path d="M17.2352 20.6596C17.3277 20.6604 17.4194 20.645 17.505 20.6144C17.5906 20.5838 17.6684 20.5385 17.7338 20.4813C17.7991 20.4241 17.8509 20.356 17.8858 20.2811C17.9208 20.2062 17.9384 20.126 17.9376 20.045V20.0324C17.9376 19.8694 17.8636 19.7131 17.7319 19.5979C17.6001 19.4826 17.4215 19.4178 17.2352 19.4178C17.0489 19.4178 16.8703 19.4826 16.7385 19.5979C16.6068 19.7131 16.5328 19.8694 16.5328 20.0324V20.045C16.532 20.126 16.5495 20.2062 16.5845 20.2811C16.6195 20.356 16.6712 20.4241 16.7366 20.4813C16.802 20.5385 16.8798 20.5838 16.9654 20.6144C17.051 20.645 17.1427 20.6604 17.2352 20.6596Z" fill="#337CF2"/>
<path d="M19.9488 20.6597C20.0414 20.6606 20.1333 20.6454 20.2191 20.6149C20.3049 20.5843 20.3829 20.5391 20.4485 20.4819C20.514 20.4246 20.5659 20.3565 20.601 20.2815C20.6361 20.2065 20.6537 20.1261 20.6529 20.0451V20.0325C20.6442 19.8744 20.5664 19.7253 20.4354 19.616C20.3045 19.5068 20.1305 19.4459 19.9496 19.4459C19.7687 19.4459 19.5947 19.5068 19.4638 19.616C19.3329 19.7253 19.255 19.8744 19.2464 20.0325V20.0451C19.2455 20.126 19.2631 20.2063 19.2981 20.2812C19.3331 20.3561 19.3848 20.4241 19.4502 20.4814C19.5156 20.5386 19.5934 20.5838 19.679 20.6144C19.7646 20.6451 19.8563 20.6605 19.9488 20.6597Z" fill="#337CF2"/>
<path d="M22.6623 20.6597C22.7549 20.6606 22.8468 20.6454 22.9326 20.6149C23.0184 20.5843 23.0964 20.5391 23.1619 20.4819C23.2275 20.4246 23.2793 20.3565 23.3144 20.2815C23.3495 20.2065 23.3671 20.1261 23.3663 20.0451V20.0325C23.3577 19.8744 23.2798 19.7253 23.1489 19.616C23.018 19.5068 22.844 19.4459 22.6631 19.4459C22.4822 19.4459 22.3083 19.5068 22.1774 19.616C22.0465 19.7253 21.9686 19.8744 21.96 20.0325V20.0451C21.9604 20.208 22.0345 20.3641 22.1662 20.4793C22.2978 20.5945 22.4762 20.6593 22.6623 20.6597Z" fill="#337CF2"/>
<path d="M66.0144 16.4639H49.6192C48.964 15.7177 48.1977 15.0515 47.3408 14.4829C47.0248 14.272 46.648 14.142 46.2525 14.1074C45.857 14.0728 45.4583 14.135 45.1008 14.2869C44.7497 14.4386 44.4542 14.6734 44.248 14.9647C44.0418 15.256 43.9332 15.5921 43.9344 15.9347V16.4527H39.2416C39.0553 16.4527 38.8767 16.5174 38.7449 16.6327C38.6132 16.748 38.5392 16.9043 38.5392 17.0673C38.5392 17.2303 38.6132 17.3866 38.7449 17.5019C38.8767 17.6171 39.0553 17.6819 39.2416 17.6819H43.9376V20.1795C43.9387 20.2605 43.9213 20.3409 43.8864 20.416C43.8515 20.4911 43.7998 20.5593 43.7344 20.6167C43.6689 20.674 43.5911 20.7194 43.5054 20.7501C43.4197 20.7808 43.3278 20.7962 43.2352 20.7955H36.7664C36.6738 20.7962 36.5819 20.7808 36.4962 20.7501C36.4105 20.7194 36.3327 20.674 36.2673 20.6167C36.2018 20.5593 36.1502 20.4911 36.1153 20.416C36.0804 20.3409 36.0629 20.2605 36.064 20.1795V15.9347C36.0633 15.5909 35.9528 15.2542 35.7451 14.9624C35.5374 14.6706 35.2406 14.4354 34.8883 14.2833C34.536 14.1312 34.1421 14.0683 33.7511 14.1016C33.3601 14.1348 32.9874 14.263 32.6752 14.4717C31.8183 15.0393 31.053 15.7057 30.4 16.4527H13.9872C13.2421 16.4545 12.5282 16.7142 12.0012 17.1751C11.4742 17.636 11.1769 18.2606 11.1744 18.9125V50.1885C11.1765 50.8407 11.4735 51.4657 12.0006 51.9268C12.5276 52.388 13.2419 52.6479 13.9872 52.6497H33.7008L31.48 60.3638H29.328C29.1473 60.3713 28.9769 60.4394 28.852 60.554C28.7272 60.6686 28.6576 60.8208 28.6576 60.9791C28.6576 61.1374 28.7272 61.2896 28.852 61.4041C28.9769 61.5187 29.1473 61.5868 29.328 61.5944H50.6864C50.7816 61.5983 50.8767 61.5854 50.966 61.5562C51.0552 61.5271 51.1368 61.4824 51.2058 61.4249C51.2747 61.3674 51.3296 61.2982 51.3671 61.2216C51.4046 61.1449 51.424 61.0624 51.424 60.9791C51.424 60.8957 51.4046 60.8132 51.3671 60.7366C51.3296 60.6599 51.2747 60.5908 51.2058 60.5332C51.1368 60.4757 51.0552 60.431 50.966 60.4019C50.8767 60.3728 50.7816 60.3598 50.6864 60.3638H48.536L46.3136 52.6497H66.0144C66.7595 52.6475 67.4733 52.3875 68 51.9263C68.5267 51.4652 68.8235 50.8405 68.8256 50.1885V18.9251C68.8235 18.2732 68.5267 17.6484 68 17.1873C67.4733 16.7262 66.7595 16.4661 66.0144 16.4639ZM12.5744 45.2297V23.6249H27.9344C28.1327 26.1494 29.3662 28.5263 31.408 30.3183C32.515 31.3023 33.8272 32.0917 35.2736 32.6437V45.2549H12.5808L12.5744 45.2297ZM36.6896 33.0623C37.7635 33.3337 38.8759 33.4704 39.9936 33.4683C41.1114 33.465 42.2235 33.3284 43.2992 33.0623V42.4423C43.2992 42.523 43.3174 42.603 43.3527 42.6775C43.388 42.7521 43.4397 42.8199 43.5049 42.8769C43.5702 42.934 43.6476 42.9793 43.7328 43.0101C43.818 43.041 43.9094 43.0569 44.0016 43.0569C44.0939 43.0569 44.1852 43.041 44.2704 43.0101C44.3556 42.9793 44.4331 42.934 44.4983 42.8769C44.5635 42.8199 44.6152 42.7521 44.6505 42.6775C44.6858 42.603 44.704 42.523 44.704 42.4423V32.6199C46.7607 31.8554 48.5361 30.6089 49.8348 29.0178C51.1335 27.4267 51.9049 25.5528 52.064 23.6025H67.424V45.2199H36.704L36.6896 33.0623ZM66.0144 17.6945C66.387 17.6956 66.744 17.8256 67.0075 18.0562C67.271 18.2867 67.4195 18.5991 67.4208 18.9251V22.3999H52.0784C51.996 20.75 51.4715 19.1401 50.5472 17.7001L66.0144 17.6945ZM33.5184 15.4545C33.6416 15.3667 33.7948 15.3175 33.9536 15.3145C34.0637 15.3177 34.1722 15.3386 34.2736 15.3761C34.3927 15.4259 34.4932 15.5043 34.5632 15.6023C34.6332 15.7002 34.6698 15.8136 34.6688 15.9291V20.1739C34.6682 20.4164 34.7223 20.6567 34.828 20.8809C34.9337 21.1051 35.089 21.3088 35.285 21.4804C35.4809 21.6519 35.7136 21.788 35.9697 21.8807C36.2259 21.9733 36.5004 22.0209 36.7776 22.0205H43.248C43.5253 22.0209 43.7999 21.9734 44.0561 21.8807C44.3124 21.788 44.5452 21.652 44.7412 21.4805C44.9373 21.3089 45.0927 21.1052 45.1986 20.881C45.3045 20.6568 45.3588 20.4165 45.3584 20.1739V15.9347C45.3569 15.8193 45.3931 15.7058 45.4628 15.6079C45.5326 15.5099 45.6329 15.4314 45.752 15.3817C45.8719 15.3274 46.0071 15.3043 46.1415 15.3153C46.276 15.3262 46.404 15.3706 46.5104 15.4433C48.2842 16.6296 49.5885 18.2724 50.2402 20.1408C50.8919 22.0092 50.8581 24.0093 50.1437 25.8601C49.4292 27.7108 48.0699 29.3192 46.2569 30.4591C44.4439 31.599 42.2682 32.2132 40.0356 32.2154C37.8031 32.2176 35.6259 31.6076 33.81 30.4712C31.9941 29.3348 30.6307 27.729 29.9116 25.8797C29.1924 24.0303 29.1536 22.0303 29.8005 20.1606C30.4475 18.2909 31.7477 16.6456 33.5184 15.4559V15.4545ZM13.9872 17.6945H29.4544C28.5257 19.1349 28.0004 20.7475 27.9216 22.3999H12.5808V18.9251C12.5821 18.5991 12.7307 18.2867 12.9941 18.0562C13.2576 17.8256 13.6146 17.6956 13.9872 17.6945ZM47.0736 60.3764H32.928L35.1488 52.6623H44.8384L47.0736 60.3764ZM66.0144 51.4317H13.9872C13.6146 51.4306 13.2576 51.3006 12.9941 51.0701C12.7307 50.8396 12.5821 50.5272 12.5808 50.2011V46.4603H67.4208V50.2011C67.4214 50.3629 67.3855 50.5232 67.315 50.6727C67.2446 50.8223 67.141 50.9582 67.0103 51.0726C66.8796 51.1869 66.7243 51.2776 66.5534 51.3392C66.3825 51.4009 66.1993 51.4323 66.0144 51.4317Z" fill="#337CF2"/>
<path d="M26.6144 33.2471H24.5056C24.3147 33.2471 24.1315 33.1807 23.9965 33.0625C23.8615 32.9444 23.7856 32.7841 23.7856 32.6171C23.7856 32.45 23.8615 32.2897 23.9965 32.1716C24.1315 32.0534 24.3147 31.9871 24.5056 31.9871H26.6144C26.8054 31.9871 26.9885 32.0534 27.1235 32.1716C27.2586 32.2897 27.3344 32.45 27.3344 32.6171C27.3344 32.7841 27.2586 32.9444 27.1235 33.0625C26.9885 33.1807 26.8054 33.2471 26.6144 33.2471Z" fill="#337CF2"/>
<path d="M30.256 33.2471H29.328C29.137 33.2471 28.9539 33.1807 28.8189 33.0625C28.6839 32.9444 28.608 32.7841 28.608 32.6171C28.608 32.45 28.6839 32.2897 28.8189 32.1716C28.9539 32.0534 29.137 31.9871 29.328 31.9871H30.256C30.447 31.9871 30.6301 32.0534 30.7651 32.1716C30.9001 32.2897 30.976 32.45 30.976 32.6171C30.976 32.7841 30.9001 32.9444 30.7651 33.0625C30.6301 33.1807 30.447 33.2471 30.256 33.2471Z" fill="#337CF2"/>
<path d="M30.256 35.7557H24.5056C24.3147 35.7557 24.1315 35.6893 23.9965 35.5712C23.8615 35.4531 23.7856 35.2928 23.7856 35.1258C23.7856 34.9587 23.8615 34.7985 23.9965 34.6804C24.1315 34.5622 24.3147 34.4958 24.5056 34.4958H30.256C30.447 34.4958 30.6301 34.5622 30.7651 34.6804C30.9002 34.7985 30.976 34.9587 30.976 35.1258C30.976 35.2928 30.9002 35.4531 30.7651 35.5712C30.6301 35.6893 30.447 35.7557 30.256 35.7557Z" fill="#337CF2"/>
<path d="M17.9952 35.1666C17.9028 35.1677 17.8112 35.1519 17.7263 35.12C17.6414 35.0882 17.5651 35.0411 17.5024 34.9818L16.5184 34.1208C16.4528 34.0634 16.4008 33.9953 16.3654 33.9203C16.3299 33.8454 16.3116 33.7651 16.3116 33.6839C16.3116 33.6028 16.3299 33.5225 16.3654 33.4475C16.4008 33.3726 16.4528 33.3045 16.5184 33.2471C16.5839 33.1898 16.6618 33.1443 16.7474 33.1132C16.8331 33.0822 16.9249 33.0662 17.0176 33.0662C17.1103 33.0662 17.2021 33.0822 17.2878 33.1132C17.3734 33.1443 17.4512 33.1898 17.5168 33.2471L17.9968 33.6671L19.7264 32.1551C19.7913 32.0955 19.8691 32.0479 19.9553 32.015C20.0415 31.9822 20.1344 31.9647 20.2284 31.9637C20.3224 31.9626 20.4157 31.9781 20.5029 32.0091C20.59 32.0401 20.6691 32.086 20.7357 32.1441C20.8022 32.2023 20.8548 32.2714 20.8904 32.3476C20.9259 32.4238 20.9437 32.5054 20.9427 32.5877C20.9417 32.67 20.9219 32.7513 20.8845 32.8268C20.847 32.9023 20.7927 32.9704 20.7248 33.0273L18.4848 34.9874C18.4219 35.0454 18.3459 35.0913 18.2616 35.1221C18.1773 35.153 18.0865 35.1681 17.9952 35.1666Z" fill="#337CF2"/>
<path d="M26.6144 40.0007H24.5056C24.3147 40.0007 24.1315 39.9343 23.9965 39.8161C23.8615 39.698 23.7856 39.5377 23.7856 39.3707C23.7856 39.2036 23.8615 39.0433 23.9965 38.9252C24.1315 38.807 24.3147 38.7407 24.5056 38.7407H26.6144C26.8054 38.7407 26.9885 38.807 27.1235 38.9252C27.2586 39.0433 27.3344 39.2036 27.3344 39.3707C27.3344 39.5377 27.2586 39.698 27.1235 39.8161C26.9885 39.9343 26.8054 40.0007 26.6144 40.0007Z" fill="#337CF2"/>
<path d="M30.256 40.0007H29.328C29.137 40.0007 28.9539 39.9343 28.8189 39.8161C28.6839 39.698 28.608 39.5377 28.608 39.3707C28.608 39.2036 28.6839 39.0433 28.8189 38.9252C28.9539 38.807 29.137 38.7407 29.328 38.7407H30.256C30.447 38.7407 30.6301 38.807 30.7651 38.9252C30.9001 39.0433 30.976 39.2036 30.976 39.3707C30.976 39.5377 30.9001 39.698 30.7651 39.8161C30.6301 39.9343 30.447 40.0007 30.256 40.0007Z" fill="#337CF2"/>
<path d="M30.256 42.4983H24.5056C24.3147 42.4983 24.1315 42.4319 23.9965 42.3138C23.8615 42.1956 23.7856 42.0354 23.7856 41.8683C23.7856 41.7012 23.8615 41.541 23.9965 41.4228C24.1315 41.3047 24.3147 41.2383 24.5056 41.2383H30.256C30.447 41.2383 30.6301 41.3047 30.7651 41.4228C30.9002 41.541 30.976 41.7012 30.976 41.8683C30.976 42.0354 30.9002 42.1956 30.7651 42.3138C30.6301 42.4319 30.447 42.4983 30.256 42.4983Z" fill="#337CF2"/>
<path d="M17.9952 41.9201C17.903 41.9212 17.8115 41.9055 17.7267 41.8739C17.6418 41.8423 17.5654 41.7956 17.5024 41.7367L16.5184 40.8799C16.4528 40.8225 16.4008 40.7544 16.3654 40.6795C16.3299 40.6045 16.3116 40.5242 16.3116 40.4431C16.3116 40.2792 16.386 40.1221 16.5184 40.0063C16.6508 39.8904 16.8304 39.8253 17.0176 39.8253C17.2048 39.8253 17.3844 39.8904 17.5168 40.0063L17.9968 40.4263L19.7264 38.9129C19.8588 38.797 20.0384 38.7319 20.2256 38.7319C20.4128 38.7319 20.5924 38.797 20.7248 38.9129C20.8572 39.0287 20.9316 39.1858 20.9316 39.3497C20.9316 39.5135 20.8572 39.6706 20.7248 39.7865L18.4848 41.7465C18.353 41.857 18.1778 41.9191 17.9952 41.9201Z" fill="#337CF2"/>
<path d="M59.3344 33.2471H57.2256C57.0347 33.2471 56.8515 33.1807 56.7165 33.0625C56.5815 32.9444 56.5056 32.7841 56.5056 32.6171C56.5056 32.45 56.5815 32.2897 56.7165 32.1716C56.8515 32.0534 57.0347 31.9871 57.2256 31.9871H59.3344C59.5254 31.9871 59.7085 32.0534 59.8435 32.1716C59.9786 32.2897 60.0544 32.45 60.0544 32.6171C60.0544 32.7841 59.9786 32.9444 59.8435 33.0625C59.7085 33.1807 59.5254 33.2471 59.3344 33.2471Z" fill="#337CF2"/>
<path d="M62.976 33.2471H62.048C61.857 33.2471 61.6739 33.1807 61.5389 33.0625C61.4039 32.9444 61.328 32.7841 61.328 32.6171C61.328 32.45 61.4039 32.2897 61.5389 32.1716C61.6739 32.0534 61.857 31.9871 62.048 31.9871H62.976C63.167 31.9871 63.3501 32.0534 63.4851 32.1716C63.6202 32.2897 63.696 32.45 63.696 32.6171C63.696 32.7841 63.6202 32.9444 63.4851 33.0625C63.3501 33.1807 63.167 33.2471 62.976 33.2471Z" fill="#337CF2"/>
<path d="M62.976 35.7557H57.2256C57.0347 35.7557 56.8515 35.6893 56.7165 35.5712C56.5815 35.4531 56.5056 35.2928 56.5056 35.1258C56.5056 34.9587 56.5815 34.7985 56.7165 34.6804C56.8515 34.5622 57.0347 34.4958 57.2256 34.4958H62.976C63.167 34.4958 63.3501 34.5622 63.4851 34.6804C63.6202 34.7985 63.696 34.9587 63.696 35.1258C63.696 35.2928 63.6202 35.4531 63.4851 35.5712C63.3501 35.6893 63.167 35.7557 62.976 35.7557Z" fill="#337CF2"/>
<path d="M50.7201 35.1666C50.6277 35.1675 50.5362 35.1515 50.4514 35.1197C50.3665 35.0878 50.2902 35.0409 50.2272 34.9818L49.2432 34.1208C49.1108 34.0049 49.0364 33.8478 49.0364 33.6839C49.0364 33.5201 49.1108 33.363 49.2432 33.2471C49.3756 33.1313 49.5552 33.0662 49.7424 33.0662C49.9297 33.0662 50.1092 33.1313 50.2416 33.2471L50.7217 33.6671L52.4513 32.1551C52.5162 32.0955 52.594 32.0479 52.6802 32.015C52.7665 31.9822 52.8593 31.9647 52.9533 31.9637C53.0474 31.9626 53.1407 31.9781 53.2278 32.0091C53.3149 32.0401 53.3941 32.086 53.4606 32.1441C53.5272 32.2023 53.5798 32.2714 53.6153 32.3476C53.6509 32.4238 53.6687 32.5054 53.6677 32.5877C53.6667 32.67 53.6469 32.7513 53.6094 32.8268C53.572 32.9023 53.5177 32.9704 53.4497 33.0273L51.2097 34.9874C51.1467 35.0453 51.0706 35.0911 50.9863 35.1219C50.9021 35.1528 50.8114 35.168 50.7201 35.1666Z" fill="#337CF2"/>
<path d="M59.3344 40.0007H57.2256C57.0347 40.0007 56.8515 39.9343 56.7165 39.8161C56.5815 39.698 56.5056 39.5377 56.5056 39.3707C56.5056 39.2036 56.5815 39.0433 56.7165 38.9252C56.8515 38.807 57.0347 38.7407 57.2256 38.7407H59.3344C59.5254 38.7407 59.7085 38.807 59.8435 38.9252C59.9786 39.0433 60.0544 39.2036 60.0544 39.3707C60.0544 39.5377 59.9786 39.698 59.8435 39.8161C59.7085 39.9343 59.5254 40.0007 59.3344 40.0007Z" fill="#337CF2"/>
<path d="M62.976 40.0007H62.048C61.857 40.0007 61.6739 39.9343 61.5389 39.8161C61.4039 39.698 61.328 39.5377 61.328 39.3707C61.328 39.2036 61.4039 39.0433 61.5389 38.9252C61.6739 38.807 61.857 38.7407 62.048 38.7407H62.976C63.167 38.7407 63.3501 38.807 63.4851 38.9252C63.6202 39.0433 63.696 39.2036 63.696 39.3707C63.696 39.5377 63.6202 39.698 63.4851 39.8161C63.3501 39.9343 63.167 40.0007 62.976 40.0007Z" fill="#337CF2"/>
<path d="M62.976 42.4983H57.2256C57.0347 42.4983 56.8515 42.4319 56.7165 42.3138C56.5815 42.1956 56.5056 42.0354 56.5056 41.8683C56.5056 41.7012 56.5815 41.541 56.7165 41.4228C56.8515 41.3047 57.0347 41.2383 57.2256 41.2383H62.976C63.167 41.2383 63.3501 41.3047 63.4851 41.4228C63.6202 41.541 63.696 41.7012 63.696 41.8683C63.696 42.0354 63.6202 42.1956 63.4851 42.3138C63.3501 42.4319 63.167 42.4983 62.976 42.4983Z" fill="#337CF2"/>
<path d="M50.72 41.9201C50.6278 41.9209 50.5365 41.9051 50.4516 41.8735C50.3668 41.842 50.2904 41.7954 50.2272 41.7367L49.2384 40.8799C49.1728 40.8225 49.1208 40.7544 49.0854 40.6795C49.0499 40.6045 49.0316 40.5242 49.0316 40.4431C49.0316 40.3619 49.0499 40.2816 49.0854 40.2067C49.1208 40.1317 49.1728 40.0636 49.2384 40.0063C49.3039 39.9489 49.3818 39.9034 49.4674 39.8724C49.5531 39.8413 49.6449 39.8253 49.7376 39.8253C49.8303 39.8253 49.9221 39.8413 50.0078 39.8724C50.0934 39.9034 50.1712 39.9489 50.2368 40.0063L50.7168 40.4263L52.4464 38.9129C52.5788 38.797 52.7584 38.7319 52.9456 38.7319C53.0383 38.7319 53.1301 38.7479 53.2158 38.779C53.3014 38.81 53.3792 38.8555 53.4448 38.9129C53.5103 38.9702 53.5624 39.0383 53.5978 39.1133C53.6333 39.1882 53.6516 39.2685 53.6516 39.3497C53.6516 39.4308 53.6333 39.5111 53.5978 39.5861C53.5624 39.661 53.5103 39.7291 53.4448 39.7865L51.2208 41.7199C51.0905 41.8416 50.9105 41.9136 50.72 41.9201Z" fill="#337CF2"/>
</svg>
