<svg width="150" height="150" viewBox="0 0 150 150" fill="none" xmlns="http://www.w3.org/2000/svg">
<path d="M142.522 107.813H7.0313V144.142H142.522V107.813Z" fill="#5F86FE"/>
<path d="M58.5938 51.5625V70.3125H7.03125V103.125H58.5938H86.7188V51.5625H58.5938Z" fill="#5F86FE"/>
<path d="M21.0939 46.8754H16.4064V70.313H21.0939V46.8754Z" fill="#3A69FF"/>
<path d="M58.5942 70.313H4.68753V75.0005H58.5942V70.313Z" fill="#3A69FF"/>
<path d="M89.0632 44.5315H56.2504V51.5628H89.0632V44.5315Z" fill="#3A69FF"/>
<path d="M82.0319 56.2504H63.2817V65.6254H82.0319V56.2504Z" fill="#3A69FF"/>
<path d="M7.03125 70.3125L21.0938 58.5938V70.3125L32.8125 58.5938V70.3125H7.03125Z" fill="#154DFC"/>
<path d="M32.8125 70.3125L46.875 58.5938V70.3125L58.5938 58.5938V70.3125H32.8125Z" fill="#154DFC"/>
<path d="M79.6881 84.3756H51.5629V103.126H79.6881V84.3756Z" fill="#3A69FF"/>
<path d="M42.1878 84.3756H14.0626V103.126H42.1878V84.3756Z" fill="#3A69FF"/>
<path d="M98.4375 63.2812C102.321 63.2812 105.469 66.4292 105.469 70.3125V103.125H91.4062V70.3125C91.4062 66.4292 94.5542 63.2812 98.4375 63.2812Z" fill="#FCC419"/>
<path d="M117.188 63.2812C121.071 63.2812 124.219 66.4292 124.219 70.3125V103.125H110.156V70.3125C110.156 66.4292 113.304 63.2812 117.188 63.2812Z" fill="#FCC419"/>
<path d="M135.938 63.2812C139.821 63.2812 142.969 66.4292 142.969 70.3125V103.125H128.906V70.3125C128.906 66.4292 132.054 63.2812 135.938 63.2812Z" fill="#FCC419"/>
<path d="M142.969 30.4702C142.968 34.353 139.82 37.5005 135.938 37.5015H99.6094C95.7261 37.5015 92.5781 34.3535 92.5781 30.4702C92.5781 26.5869 95.7261 23.439 99.6094 23.439H100.781C100.779 20.9519 101.766 18.5661 103.525 16.8075C105.283 15.0489 107.669 14.0619 110.156 14.064C110.611 14.0646 111.065 14.0979 111.516 14.1636C112.946 11.3059 115.384 9.07954 118.359 7.91454C119.117 7.61655 119.902 7.39285 120.703 7.24657C121.742 7.05436 122.801 6.99041 123.855 7.05614C126.075 7.19324 128.22 7.9072 130.078 9.12743C130.934 9.6892 131.721 10.3501 132.422 11.0965C135.539 14.388 136.689 19.079 135.448 23.439H135.938C139.821 23.439 142.969 26.5869 142.969 30.4702Z" fill="#5F86FE"/>
<path d="M25.7814 107.813H14.0626V119.532H25.7814V107.813Z" fill="#FCC419"/>
<path d="M42.1878 107.813H30.469V120.704H42.1878V107.813Z" fill="#FCC419"/>
<path d="M19.922 126.563C23.1581 126.563 25.7814 123.94 25.7814 120.704C25.7814 117.468 23.1581 114.845 19.922 114.845C16.686 114.845 14.0626 117.468 14.0626 120.704C14.0626 123.94 16.686 126.563 19.922 126.563Z" fill="#F5A000"/>
<path d="M36.3284 126.563C39.5645 126.563 42.1878 123.94 42.1878 120.704C42.1878 117.468 39.5645 114.845 36.3284 114.845C33.0923 114.845 30.469 117.468 30.469 120.704C30.469 123.94 33.0923 126.563 36.3284 126.563Z" fill="#F5A000"/>
<path d="M86.7187 21.1022C86.7187 13.331 80.4189 7.03118 72.6477 7.03118H71.1375C67.68 7.02021 64.4202 8.64216 62.3437 11.4067L60.8118 13.4495C59.4163 15.3106 57.2259 16.406 54.8997 16.4062H53.1255C49.2551 16.3988 45.6656 18.4255 43.6725 21.7432L43.6169 21.8361C41.2138 25.8413 37.2327 28.6471 32.6525 29.5631L30.9082 29.912C29.1525 30.2632 27.6572 31.4053 26.8564 33.0067C26.1684 34.383 24.9617 35.4296 23.5019 35.9161L21.7875 36.4877C19.9736 37.0921 18.7501 38.7893 18.75 40.7012V42.1874L18.8288 42.1086C20.2798 40.6575 22.245 39.8378 24.2971 39.8276L29.0807 39.8035C30.0001 39.7991 30.8806 39.4319 31.5308 38.7817C32.3348 37.9774 33.4226 37.5212 34.5598 37.5113C34.742 37.5096 34.9289 37.5084 35.1164 37.5072C36.6407 37.4977 38.1006 36.891 39.1828 35.8174L39.1998 35.8007C39.6339 35.3702 40.1337 35.0114 40.6805 34.7378L45.4538 32.3513C47.7025 31.2271 50.4182 31.6678 52.1959 33.4455C53.3312 34.5811 54.8743 35.2142 56.48 35.2033C58.4388 35.1899 65.6288 35.1805 72.6621 35.174C80.4282 35.1665 86.7195 28.8682 86.7187 21.1022L86.7187 21.1022Z" fill="#F5A000"/>
<path d="M5.85937 103.125C5.85937 103.772 6.38404 104.297 7.03125 104.297H86.7188C87.366 104.297 87.8906 103.772 87.8906 103.125V52.7344H89.0625C89.7097 52.7344 90.2344 52.2097 90.2344 51.5625V44.5312C90.2344 43.884 89.7097 43.3594 89.0625 43.3594H56.25C55.6028 43.3594 55.0781 43.884 55.0781 44.5312V51.5625C55.0781 52.2097 55.6028 52.7344 56.25 52.7344H57.4219V58.1083L48.0469 67.4833V58.5938C48.0469 58.139 47.7839 57.7253 47.3721 57.5324C46.9603 57.3395 46.474 57.4023 46.1247 57.6935L33.9844 67.8105V58.5938C33.9844 58.1197 33.6988 57.6924 33.2609 57.511C32.8229 57.3296 32.3188 57.43 31.9837 57.7652L22.2656 67.4833V46.875C22.2656 46.2278 21.741 45.7031 21.0938 45.7031H16.4063C15.7591 45.7031 15.2344 46.2278 15.2344 46.875V61.9512L6.60704 69.1406H4.68752C4.04031 69.1406 3.51564 69.6653 3.51564 70.3125V75C3.51564 75.6472 4.04031 76.1719 4.68752 76.1719H5.85939L5.85937 103.125ZM41.0156 101.953H15.2344V85.5469H41.0156V101.953ZM52.7344 101.953V85.5469H78.5156V101.953H52.7344ZM57.4219 45.7031H87.8906V50.3906H57.4219V45.7031ZM85.5469 52.7344V101.953H80.8594V84.375C80.8594 83.7278 80.3347 83.2031 79.6875 83.2031H51.5625C50.9153 83.2031 50.3906 83.7278 50.3906 84.375V101.953H43.3594V84.375C43.3594 83.7278 42.8347 83.2031 42.1875 83.2031H14.0625C13.4153 83.2031 12.8906 83.7278 12.8906 84.375V101.953H8.20312V76.1719H58.5938C59.241 76.1719 59.7656 75.6472 59.7656 75V52.7344H85.5469ZM57.4219 69.1406H49.7042L57.4219 61.4229V69.1406ZM45.7031 69.1406H36.0492L45.7031 61.0957V69.1406ZM31.6406 69.1406H23.9229L31.6406 61.4229V69.1406ZM17.5781 48.0469H19.9219V58.0447L17.5781 59.998V48.0469ZM19.9219 61.0957V69.1406H10.268L19.9219 61.0957ZM5.85937 71.4844H57.4219V73.8281H5.85937V71.4844Z" fill="black"/>
<path d="M63.2812 66.7969H82.0312C82.6785 66.7969 83.2031 66.2722 83.2031 65.625V56.25C83.2031 55.6028 82.6785 55.0781 82.0312 55.0781H63.2812C62.634 55.0781 62.1094 55.6028 62.1094 56.25V65.625C62.1094 66.2722 62.634 66.7969 63.2812 66.7969ZM64.4531 57.4219H80.8594V64.4531H64.4531V57.4219Z" fill="black"/>
<path d="M42.9117 123.17C44.0501 123.306 45.1655 123.592 46.2293 124.02C50.159 125.56 54.5255 125.56 58.4552 124.02C61.8113 122.721 65.5314 122.721 68.8875 124.02C72.8163 125.561 77.1822 125.561 81.1111 124.02C84.4672 122.721 88.1872 122.721 91.5434 124.02C95.473 125.56 99.8396 125.56 103.769 124.02C107.124 122.72 110.844 122.72 114.199 124.02C118.129 125.56 122.495 125.56 126.425 124.02C129.781 122.72 133.502 122.72 136.858 124.02L142.521 126.363C143.119 126.611 143.805 126.327 144.052 125.729C144.3 125.131 144.016 124.445 143.418 124.198L137.755 121.854C133.824 120.317 129.459 120.317 125.529 121.854C122.173 123.157 118.452 123.157 115.096 121.854C111.167 120.317 106.802 120.317 102.873 121.854C99.5174 123.157 95.7958 123.157 92.4404 121.854C88.5101 120.317 84.1449 120.317 80.2146 121.854C76.8601 123.157 73.1394 123.157 69.7849 121.854C65.8545 120.317 61.4894 120.317 57.559 121.854C54.2033 123.157 50.4814 123.157 47.1258 121.854C45.9162 121.364 44.6491 121.031 43.3553 120.862C43.3553 120.809 43.3594 120.756 43.3594 120.702V117.482C44.3438 117.632 45.3074 117.897 46.2305 118.27C50.1604 119.807 54.5249 119.807 58.4549 118.27C61.8114 116.971 65.5321 116.971 68.8887 118.27C72.8178 119.807 77.1816 119.807 81.1107 118.27C84.4673 116.971 88.188 116.971 91.5445 118.27C95.4745 119.807 99.839 119.807 103.769 118.27C107.124 116.971 110.843 116.971 114.199 118.27C118.129 119.807 122.493 119.807 126.423 118.27C129.78 116.971 133.5 116.971 136.857 118.27L142.52 120.614C143.118 120.862 143.803 120.578 144.051 119.979C144.298 119.381 144.014 118.696 143.416 118.448L137.753 116.105C133.823 114.568 129.458 114.568 125.528 116.105C122.172 117.404 118.451 117.404 115.095 116.105C111.165 114.568 106.802 114.568 102.872 116.105C99.5159 117.404 95.7952 117.404 92.4387 116.105C88.5087 114.568 84.1442 114.568 80.2143 116.105C76.859 117.404 73.1398 117.404 69.7846 116.105C65.8546 114.568 61.4901 114.568 57.5602 116.105C54.2036 117.404 50.4829 117.404 47.1264 116.105C45.9179 115.616 44.6521 115.283 43.3594 115.114V108.984H142.969C143.616 108.984 144.141 108.46 144.141 107.812C144.141 107.165 143.616 106.641 142.969 106.641H7.03125C6.38404 106.641 5.85938 107.165 5.85938 107.812C5.85938 108.46 6.38404 108.984 7.03125 108.984H12.8906V115.863C12.6735 115.941 12.4561 116.018 12.2461 116.105L6.58301 118.448C5.98499 118.696 5.70088 119.381 5.94844 119.979C6.196 120.578 6.88148 120.862 7.4795 120.614L12.8906 118.375V120.621C12.8906 120.626 12.8921 120.632 12.8924 120.637C12.8924 120.659 12.8906 120.681 12.8906 120.703C12.8914 121.001 12.911 121.298 12.9492 121.593C12.7119 121.676 12.4755 121.761 12.2461 121.857L6.58302 124.2C5.985 124.448 5.70089 125.133 5.94845 125.731C6.19601 126.329 6.88149 126.613 7.47951 126.366L13.1408 124.022C13.3002 123.957 13.4663 123.899 13.6313 123.839C14.2482 125.069 15.2105 126.093 16.4004 126.785C14.9742 126.936 13.5759 127.285 12.2461 127.822L6.58215 130.166C5.9911 130.418 5.71294 131.098 5.95853 131.692C6.20411 132.286 6.88188 132.571 7.47805 132.332L13.1423 129.988C16.2621 128.696 20.4542 128.696 23.5743 129.988C27.5042 131.524 31.8686 131.524 35.7985 129.988C38.9186 128.696 43.1107 128.697 46.2305 129.988C50.1604 131.524 54.5247 131.524 58.4546 129.988C61.5747 128.696 65.7668 128.696 68.8866 129.988C72.8166 131.524 77.1811 131.524 81.1111 129.988C84.2309 128.696 88.423 128.696 91.5431 129.988C95.473 131.524 99.8373 131.524 103.767 129.988C106.887 128.696 111.079 128.697 114.199 129.988C118.129 131.524 122.493 131.524 126.423 129.988C129.543 128.696 133.736 128.696 136.855 129.988L142.52 132.332C143.116 132.571 143.794 132.286 144.039 131.692C144.285 131.098 144.007 130.418 143.416 130.166L137.752 127.822C133.822 126.286 129.457 126.286 125.527 127.822C122.407 129.114 118.215 129.114 115.095 127.822C111.165 126.286 106.801 126.286 102.871 127.822C99.7512 129.114 95.5591 129.114 92.439 127.822C88.5091 126.286 84.1448 126.286 80.2149 127.822C77.095 129.114 72.9027 129.114 69.7828 127.822C65.8529 126.286 61.4886 126.286 57.5587 127.822C54.4386 129.114 50.2465 129.114 47.1267 127.822C44.8588 126.925 42.4198 126.543 39.9862 126.704C41.327 125.884 42.3564 124.64 42.9118 123.17H42.9117ZM15.2344 120.703C15.2344 118.114 17.333 116.016 19.9219 116.016C22.5107 116.016 24.6094 118.114 24.6094 120.703C24.6094 123.292 22.5107 125.391 19.9219 125.391C17.3343 125.388 15.2374 123.291 15.2344 120.703ZM29.2969 117.07C28.5104 117.051 27.7266 116.969 26.9531 116.825V108.984H29.2969V117.07ZM26.9514 120.636C26.9514 120.63 26.9531 120.625 26.9531 120.62V119.205C27.7287 119.328 28.5118 119.398 29.2969 119.414V120.703C29.2966 121.425 29.4079 122.144 29.6271 122.832C28.6474 122.828 27.6705 122.727 26.7105 122.531C26.8716 121.935 26.9531 121.321 26.9531 120.703C26.9531 120.681 26.9531 120.659 26.9514 120.637V120.636ZM31.6406 120.703C31.6406 118.114 33.7393 116.016 36.3281 116.016C38.917 116.016 41.0156 118.114 41.0156 120.703C41.0156 123.292 38.917 125.391 36.3281 125.391C33.7406 125.388 31.6437 123.291 31.6406 120.703ZM41.0156 108.984V115.468C38.3495 113.073 34.3068 113.073 31.6406 115.468V108.984H41.0156ZM15.2344 108.984H24.6094V115.468C22.0692 113.186 18.254 113.065 15.5748 115.183C15.4608 115.201 15.3472 115.22 15.2344 115.241V108.984ZM34.9034 127.822C31.7836 129.114 27.5915 129.114 24.4714 127.822C23.8614 127.573 23.2349 127.366 22.5964 127.203C23.8483 126.684 24.9248 125.817 25.6978 124.704C27.0049 125.018 28.3446 125.176 29.6889 125.176C30.0914 125.176 30.4846 125.157 30.8719 125.131C31.9854 126.504 33.5754 127.407 35.325 127.661C35.1856 127.715 35.0423 127.766 34.9034 127.822H34.9034Z" fill="black"/>
<path d="M143.417 135.919L137.753 133.576C133.823 132.039 129.458 132.039 125.529 133.576C122.409 134.866 118.216 134.866 115.097 133.576C111.167 132.039 106.802 132.039 102.872 133.576C99.7523 134.866 95.5603 134.867 92.4401 133.576C88.5103 132.039 84.1459 132.039 80.216 133.576C77.0962 134.866 72.9038 134.866 69.784 133.576C65.8542 132.039 61.4897 132.039 57.5599 133.576C54.4401 134.866 50.2477 134.866 47.1278 133.576C43.1979 132.039 38.8334 132.039 34.9034 133.576C31.7833 134.866 27.5912 134.867 24.4714 133.576C20.5416 132.039 16.1771 132.039 12.2473 133.576L6.58332 135.919C6.19209 136.076 5.91539 136.432 5.85872 136.849C5.80206 137.267 5.97415 137.683 6.3094 137.939C6.64464 138.194 7.09136 138.25 7.47921 138.085L13.1435 135.741C16.2633 134.45 20.4554 134.45 23.5755 135.741C27.5055 137.277 31.8697 137.277 35.7996 135.741C38.9194 134.45 43.1118 134.45 46.2317 135.741C50.1616 137.277 54.5258 137.277 58.4558 135.741C61.5759 134.45 65.7683 134.45 68.8878 135.741C72.8179 137.277 77.1822 137.277 81.1122 135.741C84.232 134.45 88.4241 134.45 91.5443 135.741C95.4742 137.277 99.8384 137.277 103.768 135.741C106.888 134.45 111.081 134.45 114.2 135.741C118.13 137.277 122.495 137.277 126.425 135.741C129.545 134.45 133.737 134.45 136.857 135.741L142.521 138.085C143.117 138.324 143.795 138.039 144.04 137.445C144.286 136.852 144.008 136.171 143.417 135.919Z" fill="black"/>
<path d="M143.417 141.885L137.753 139.541C133.823 138.005 129.458 138.005 125.529 139.541C122.408 140.832 118.216 140.832 115.097 139.541C111.167 138.005 106.802 138.005 102.872 139.541C99.7523 140.832 95.5602 140.832 92.4401 139.541C88.5102 138.005 84.1459 138.005 80.216 139.541C77.0962 140.832 72.9038 140.832 69.784 139.541C65.8541 138.005 61.4898 138.005 57.5599 139.541C54.4398 140.832 50.2477 140.832 47.1278 139.541C43.1979 138.005 38.8334 138.005 34.9034 139.541C31.7836 140.832 27.5915 140.832 24.4714 139.541C20.5415 138.005 16.1772 138.005 12.2473 139.541L6.58331 141.885C5.99226 142.136 5.7141 142.817 5.95969 143.411C6.20527 144.004 6.88304 144.29 7.47921 144.05L13.1435 141.707C16.2633 140.415 20.4554 140.415 23.5755 141.707C27.5054 143.243 31.8697 143.243 35.7996 141.707C38.9197 140.415 43.1118 140.415 46.2316 141.707C50.1615 143.243 54.5259 143.243 58.4558 141.707C61.5759 140.415 65.768 140.415 68.8878 141.707C72.8178 143.243 77.1822 143.243 81.1122 141.707C84.232 140.415 88.4241 140.415 91.5442 141.707C95.4741 143.243 99.8385 143.243 103.768 141.707C106.888 140.415 111.081 140.415 114.2 141.707C118.13 143.243 122.495 143.243 126.424 141.707C129.545 140.415 133.737 140.415 136.857 141.707L142.521 144.05C143.117 144.29 143.795 144.004 144.04 143.411C144.286 142.817 144.008 142.136 143.417 141.885Z" fill="black"/>
<path d="M98.4375 62.1094C93.9092 62.1145 90.2395 65.7842 90.2344 70.3125V103.125C90.2344 103.772 90.759 104.297 91.4062 104.297H105.469C106.116 104.297 106.641 103.772 106.641 103.125V70.3125C106.635 65.7842 102.966 62.1145 98.4375 62.1094ZM104.297 87.8906H92.5781V78.5156H104.297V87.8906ZM92.5781 101.953V90.2344H104.297V101.953H92.5781ZM104.297 76.1719H92.5781V70.3125C92.5781 67.0765 95.2015 64.4531 98.4375 64.4531C101.674 64.4531 104.297 67.0765 104.297 70.3125V76.1719Z" fill="black"/>
<path d="M108.984 103.125C108.984 103.772 109.509 104.297 110.156 104.297H124.219C124.866 104.297 125.391 103.772 125.391 103.125V70.3125C125.391 65.782 121.718 62.1094 117.188 62.1094C112.657 62.1094 108.984 65.782 108.984 70.3125V103.125ZM123.047 87.8906H111.328V78.5156H123.047V87.8906ZM111.328 101.953V90.2344H123.047V101.953H111.328ZM117.188 64.4531C120.422 64.4568 123.043 67.078 123.047 70.3125V76.1719H111.328V70.3125C111.332 67.078 113.953 64.4568 117.188 64.4531Z" fill="black"/>
<path d="M128.906 104.297H142.969C143.616 104.297 144.141 103.772 144.141 103.125V70.3125C144.141 65.782 140.468 62.1094 135.938 62.1094C131.407 62.1094 127.734 65.782 127.734 70.3125V103.125C127.734 103.772 128.259 104.297 128.906 104.297ZM141.797 87.8906H130.078V78.5156H141.797V87.8906ZM130.078 101.953V90.2344H141.797V101.953H130.078ZM135.938 64.4531C139.172 64.4568 141.793 67.078 141.797 70.3125V76.1719H130.078V70.3125C130.082 67.078 132.703 64.4568 135.938 64.4531Z" fill="black"/>
<path d="M117.206 58.5941C117.853 58.5941 118.378 58.0695 118.378 57.4223C118.378 56.775 117.853 56.2504 117.206 56.2504C116.558 56.2504 116.034 56.775 116.034 57.4223C116.034 58.0695 116.558 58.5941 117.206 58.5941Z" fill="black"/>
<path d="M120.519 55.2793C120.993 55.2793 121.421 54.9938 121.602 54.5558C121.784 54.1178 121.683 53.6137 121.348 53.2786C119.06 50.9905 115.35 50.9905 113.062 53.2786C112.604 53.7363 112.604 54.4783 113.062 54.936C113.519 55.3936 114.261 55.3936 114.719 54.936C116.092 53.5631 118.318 53.5631 119.691 54.936C119.91 55.1561 120.208 55.2797 120.519 55.2793V55.2793Z" fill="black"/>
<path d="M124.663 51.621C125.12 51.1634 125.12 50.4216 124.663 49.964C120.544 45.8453 113.866 45.8453 109.747 49.964C109.446 50.2589 109.326 50.6932 109.434 51.101C109.541 51.5088 109.86 51.8273 110.268 51.9349C110.676 52.0425 111.11 51.9226 111.405 51.621C112.943 50.0825 115.03 49.2181 117.205 49.2181C119.381 49.2181 121.468 50.0825 123.006 51.621C123.464 52.0781 124.205 52.0781 124.663 51.621Z" fill="black"/>
<path d="M127.148 48.6501C127.622 48.6501 128.05 48.3645 128.231 47.9266C128.413 47.4886 128.312 46.9845 127.977 46.6494C122.028 40.7002 112.382 40.7002 106.433 46.6494C106.131 46.9443 106.011 47.3785 106.119 47.7863C106.226 48.1941 106.545 48.5127 106.953 48.6204C107.36 48.728 107.795 48.6082 108.09 48.3067C110.507 45.8892 113.786 44.531 117.205 44.531C120.624 44.531 123.902 45.8892 126.32 48.3067C126.539 48.5268 126.838 48.6504 127.148 48.6501V48.6501Z" fill="black"/>
<path d="M99.6094 38.6718H135.938C140.283 38.6751 143.876 35.2896 144.132 30.9521C144.388 26.6145 141.218 22.8298 136.903 22.3218C137.738 17.539 136.026 12.666 132.383 9.45641C132.257 8.95357 131.814 8.59418 131.296 8.574C129.148 6.98936 126.59 6.05633 123.926 5.8863C118.587 5.55318 113.521 8.27695 110.855 12.9143C105.229 12.5455 100.306 16.6629 99.6741 22.2656H99.6094C95.0789 22.2656 91.4062 25.9383 91.4062 30.4687C91.4062 34.9992 95.0789 38.6718 99.6094 38.6718ZM99.6094 24.6093H100.781C101.428 24.6093 101.953 24.0847 101.953 23.4375C101.954 20.7553 103.267 18.2434 105.469 16.7115V28.125H101.807C101.269 27.1167 100.114 26.6038 99.0054 26.881C97.8968 27.1581 97.1191 28.1542 97.1191 29.2968C97.1191 30.4395 97.8968 31.4356 99.0054 31.7127C100.114 31.9899 101.269 31.477 101.807 30.4687H106.641C107.288 30.4687 107.812 29.944 107.812 29.2968V22.2656H111.328V29.613C110.409 30.1434 109.962 31.2247 110.236 32.2493C110.511 33.274 111.439 33.9865 112.5 33.9865C113.561 33.9865 114.489 33.274 114.764 32.2493C115.038 31.2247 114.591 30.1434 113.672 29.613V21.0937C113.672 20.4465 113.147 19.9218 112.5 19.9218H107.812V15.5774C108.573 15.3498 109.362 15.2342 110.156 15.2343C110.555 15.235 110.953 15.2644 111.347 15.3222C111.847 15.3943 112.337 15.1383 112.563 14.6868C113.792 12.2328 115.843 10.2884 118.359 9.19303V23.7536C117.441 24.284 116.993 25.3653 117.267 26.3899C117.542 27.4146 118.47 28.1271 119.531 28.1271C120.592 28.1271 121.521 27.4146 121.795 26.3899C122.07 25.3653 121.622 24.284 120.703 23.7536V12.8906H124.178L124.205 16.7308C123.29 17.2679 122.85 18.3524 123.132 19.375C123.414 20.3976 124.347 21.1034 125.408 21.0957C126.469 21.088 127.392 20.3688 127.659 19.3422C127.927 18.3156 127.471 17.2376 126.548 16.7138L126.514 11.7108C126.509 11.0667 125.986 10.5468 125.342 10.5468H120.703V8.45065C121.716 8.2408 122.752 8.16505 123.784 8.22536C126.069 8.37245 128.259 9.19266 130.078 10.5826V24.6093H125.391C124.743 24.6093 124.219 25.134 124.219 25.7812V29.613C123.3 30.1434 122.852 31.2247 123.127 32.2493C123.401 33.274 124.33 33.9865 125.391 33.9865C126.451 33.9865 127.38 33.274 127.655 32.2493C127.929 31.2247 127.481 30.1434 126.562 29.613V26.9531H130.078V30.4687C130.078 31.1159 130.603 31.6406 131.25 31.6406H135.082C135.612 32.5593 136.693 33.0072 137.718 32.7326C138.743 32.4581 139.455 31.5295 139.455 30.4687C139.455 29.4079 138.743 28.4794 137.718 28.2048C136.693 27.9303 135.612 28.3782 135.082 29.2968H132.422V12.9337C133.68 14.5976 134.466 16.5706 134.696 18.6442C134.861 20.1459 134.733 21.6652 134.321 23.1184C134.221 23.4717 134.292 23.8515 134.514 24.1444C134.735 24.4372 135.081 24.6094 135.448 24.6093H135.937C139.174 24.6093 141.797 27.2327 141.797 30.4687C141.797 33.7048 139.174 36.3281 135.937 36.3281H99.6094C96.3733 36.3281 93.75 33.7048 93.75 30.4687C93.75 27.2327 96.3733 24.6093 99.6094 24.6093H99.6094ZM99.6094 29.4433C99.5285 29.4433 99.4629 29.3777 99.4629 29.2968C99.4629 29.2159 99.5285 29.1504 99.6094 29.1504V29.4433Z" fill="black"/>
<path d="M18.3015 43.2713C18.7394 43.4528 19.2436 43.3526 19.5788 43.0173L19.6573 42.9388C20.8877 41.7024 22.5587 41.0053 24.3029 41.0008L29.0865 40.9768C30.3154 40.9739 31.4928 40.4828 32.3596 39.6116C32.9451 39.0224 33.7397 38.6887 34.5703 38.6832L35.1231 38.6791C36.9628 38.67 38.7243 37.9345 40.0242 36.6327C40.3701 36.2896 40.7685 36.0038 41.2043 35.786L45.9773 33.3983C47.7749 32.4972 49.9476 32.8498 51.368 34.2731C52.7291 35.6242 54.5709 36.3797 56.4888 36.3737C58.0811 36.3628 63.3721 36.3532 72.6639 36.3444C81.03 36.2667 87.77 29.4603 87.7656 21.0938C87.7611 12.7273 81.014 5.92804 72.6477 5.85924H71.1375C67.3082 5.83574 63.6958 7.634 61.4062 10.7035L59.8743 12.7466C58.6969 14.3088 56.8559 15.2294 54.8997 15.2342H53.1255C48.8479 15.2414 44.884 17.4797 42.6685 21.1387L42.612 21.2331C40.376 24.9527 36.6775 27.5592 32.4225 28.414L30.6776 28.7632C28.5646 29.1788 26.7649 30.5533 25.8079 32.4825C25.2614 33.5829 24.2974 34.419 23.1307 34.8043L21.416 35.3758C19.1226 36.1381 17.5759 38.2844 17.5781 40.7011V42.1874C17.5776 42.6618 17.8631 43.0898 18.3015 43.2713H18.3015ZM22.1575 37.5995L23.872 37.0279C25.6291 36.4474 27.081 35.1881 27.9041 33.5307C28.5396 32.2498 29.7344 31.3372 31.1373 31.061L32.8825 30.7121C37.7839 29.7277 42.0446 26.7256 44.6209 22.4413L44.6777 22.3469C46.4675 19.391 49.67 17.5832 53.1255 17.578H54.8997C57.5934 17.5716 60.1285 16.3038 61.7496 14.1526L63.2813 12.1094C65.1306 9.63304 68.0468 8.18297 71.1375 8.20299H72.6478C79.748 8.2331 85.4889 13.9956 85.4925 21.0958C85.496 28.1961 79.7608 33.9643 72.6607 34.0015C63.3642 34.0106 58.0688 34.0203 56.4718 34.0308C55.1811 34.0321 53.9422 33.5239 53.0241 32.6167C50.8914 30.479 47.6285 29.9494 44.9291 31.3027L40.1561 33.6913C39.4911 34.0243 38.8838 34.4617 38.3572 34.9868C37.4944 35.8469 36.3271 36.332 35.1088 36.3368L34.5498 36.3409C33.1046 36.3498 31.7216 36.9298 30.7023 37.9543C30.2713 38.3875 29.6859 38.6316 29.0748 38.6331L24.2912 38.6571C22.8163 38.6611 21.3654 39.0308 20.0684 39.7332C20.3796 38.7264 21.1576 37.9318 22.1575 37.5995L22.1575 37.5995Z" fill="black"/>
</svg>
