<svg width="150" height="150" viewBox="0 0 150 150" fill="none" xmlns="http://www.w3.org/2000/svg">
<path d="M146.306 79.3026C144.917 76.5436 144.915 73.2788 146.295 70.5154C151.417 60.2619 151.312 47.292 144.921 36.1429C137.91 23.9135 125.233 17.1872 112.739 17.7359C109.559 17.8756 106.49 16.4279 104.565 13.8929C98.2045 5.52051 87.3132 0 74.9433 0C62.5452 0 51.6324 5.54583 45.2789 13.9506C43.3548 16.4958 40.2817 17.9506 37.0936 17.8215C24.6356 17.3173 12.0125 24.0407 5.02244 36.234C-1.38782 47.416 -1.47436 60.4298 3.69391 70.6978C5.08269 73.4567 5.08526 76.7215 3.70481 79.4849C-1.41698 89.7385 -1.3125 102.708 5.07885 113.857C12.0897 126.087 24.7667 132.813 37.2606 132.264C40.4407 132.125 43.5096 133.572 45.4353 136.107C51.7952 144.479 62.6869 150 75.0567 150C87.4548 150 98.3676 144.454 104.721 136.049C106.645 133.504 109.718 132.049 112.906 132.179C125.365 132.683 137.988 125.959 144.978 113.766C151.388 102.584 151.474 89.5702 146.306 79.3026Z" fill="#F5F9FF"/>
<path opacity="0.6" d="M75.2501 15.1029C76.4892 15.1029 77.4936 14.0984 77.4936 12.8593C77.4936 11.6202 76.4892 10.6157 75.2501 10.6157C74.011 10.6157 73.0065 11.6202 73.0065 12.8593C73.0065 14.0984 74.011 15.1029 75.2501 15.1029Z" fill="#95BFFE"/>
<path opacity="0.5" d="M10.2275 63.1706C11.4666 63.1706 12.4711 62.1661 12.4711 60.9271C12.4711 59.688 11.4666 58.6835 10.2275 58.6835C8.98843 58.6835 7.98395 59.688 7.98395 60.9271C7.98395 62.1661 8.98843 63.1706 10.2275 63.1706Z" fill="#AD9CDB"/>
<path opacity="0.6" d="M10.2275 92.7265C11.4666 92.7265 12.4711 91.7221 12.4711 90.483C12.4711 89.2439 11.4666 88.2394 10.2275 88.2394C8.98843 88.2394 7.98395 89.2439 7.98395 90.483C7.98395 91.7221 8.98843 92.7265 10.2275 92.7265Z" fill="#FF8A80"/>
<path opacity="0.6" d="M71.1446 44.4007L73.0067 44.7953L70.8532 45.4061C69.7189 45.7279 68.8529 46.6462 68.5984 47.7975L68.199 49.603L67.7997 47.7975C67.5452 46.6462 66.6792 45.7279 65.5449 45.4061L63.3914 44.7953L65.2535 44.4007C66.4593 44.1453 67.4115 43.2209 67.7032 42.0234L68.1991 39.9875L68.6949 42.0234C68.9866 43.2209 69.9388 44.1449 71.1446 44.4007H71.1446Z" fill="#95BFFE"/>
<path opacity="0.6" d="M136.598 82.9388L138.46 83.3333L136.307 83.9442C135.172 84.266 134.306 85.1843 134.052 86.3356L133.653 88.141L133.253 86.3356C132.999 85.1843 132.133 84.266 130.998 83.9442L128.845 83.3333L130.707 82.9388C131.913 82.6833 132.865 81.759 133.157 80.5615L133.653 78.5256L134.148 80.5615C134.44 81.759 135.393 82.6833 136.598 82.9388H136.598Z" fill="#FF8A80"/>
<path d="M43.2692 120.135V113.88L38.8266 112.794C38.5022 111.648 38.0478 110.558 37.4814 109.537L39.8628 105.615L35.4394 101.192L31.5279 103.566C30.5096 102.997 29.4202 102.539 28.2756 102.211L27.1865 97.7563H20.9311L19.8452 102.199C18.6997 102.523 17.609 102.978 16.5888 103.544L12.6663 101.163L8.24295 105.586L10.6176 109.498C10.0481 110.516 9.59038 111.605 9.26283 112.75L4.80769 113.839V120.094L9.25032 121.18C9.57468 122.326 10.0292 123.417 10.5955 124.437L8.21411 128.359L12.6375 132.783L16.549 130.408C17.5673 130.978 18.6567 131.435 19.8013 131.763L20.8904 136.218H27.1458L28.2317 131.775C29.3772 131.451 30.4683 130.996 31.4881 130.43L35.4106 132.811L39.834 128.388L37.4593 124.477C38.0288 123.458 38.4865 122.369 38.8141 121.224L43.2692 120.135Z" fill="#E0F9DC"/>
<path d="M27.1455 137.821H20.8904C20.1519 137.821 19.509 137.316 19.3336 136.598L18.4583 133.017C17.8279 132.797 17.2096 132.54 16.6086 132.246L13.4695 134.152C12.8381 134.536 12.0269 134.438 11.5048 133.916L7.08139 129.492C6.55896 128.97 6.46121 128.159 6.84453 127.528L8.75864 124.375C8.46698 123.772 8.21089 123.154 7.99326 122.523L4.42755 121.651C3.71024 121.476 3.20543 120.833 3.20543 120.095V113.839C3.20543 113.101 3.70992 112.458 4.42755 112.282L8.00895 111.407C8.22882 110.777 8.4862 110.158 8.77946 109.557L6.8737 106.418C6.49068 105.787 6.58812 104.975 7.11056 104.453L11.534 100.03C12.0561 99.5077 12.8676 99.4096 13.4987 99.7933L16.6513 101.707C17.2535 101.415 17.8727 101.16 18.5032 100.942L19.375 97.3763C19.5506 96.659 20.1936 96.1542 20.9317 96.1542H27.1872C27.9256 96.1542 28.5686 96.6587 28.7439 97.3763L29.6192 100.958C30.2497 101.177 30.8679 101.435 31.4689 101.728L34.608 99.8224C35.2394 99.4391 36.0506 99.5369 36.5727 100.059L40.9961 104.482C41.5186 105.004 41.6163 105.816 41.233 106.447L39.3189 109.6C39.6105 110.202 39.8666 110.821 40.0843 111.452L43.65 112.323C44.3673 112.499 44.8721 113.142 44.8721 113.88V120.136C44.8721 120.874 44.3676 121.517 43.65 121.692L40.0686 122.568C39.8487 123.198 39.5913 123.817 39.2981 124.418L41.2038 127.557C41.5868 128.188 41.4894 128.999 40.967 129.521L36.5436 133.945C36.0215 134.467 35.2102 134.565 34.5788 134.181L31.4263 132.267C30.824 132.559 30.2048 132.815 29.5743 133.033L28.7025 136.598C28.5269 137.316 27.884 137.821 27.1455 137.821H27.1455ZM22.1484 134.615H25.8878L26.675 131.395C26.8122 130.834 27.2401 130.391 27.7955 130.233C28.8054 129.947 29.7862 129.542 30.7102 129.029C31.2128 128.75 31.8275 128.761 32.3199 129.06L35.167 130.789L37.8112 128.145L36.0891 125.308C35.7894 124.815 35.7785 124.198 36.0606 123.694C36.5759 122.772 36.9843 121.793 37.2734 120.783C37.4317 120.23 37.8743 119.804 38.4333 119.668L41.6666 118.877V115.138L38.4458 114.351C37.8852 114.213 37.4413 113.786 37.2843 113.23C36.9987 112.221 36.5939 111.24 36.0804 110.315C35.8009 109.812 35.8128 109.198 36.1115 108.706L37.8404 105.859L35.1961 103.214L32.3596 104.936C31.866 105.236 31.2487 105.247 30.7458 104.965C29.8237 104.449 28.8442 104.041 27.8346 103.752C27.2814 103.594 26.8558 103.151 26.7192 102.592L25.9285 99.359H22.1891L21.4019 102.579C21.2647 103.14 20.8368 103.584 20.2814 103.741C19.2715 104.027 18.2907 104.432 17.3667 104.945C16.8638 105.225 16.249 105.213 15.757 104.914L12.9099 103.186L10.2657 105.83L11.9878 108.666C12.2875 109.16 12.2984 109.776 12.0163 110.28C11.501 111.202 11.0926 112.182 10.8035 113.191C10.6452 113.745 10.2026 114.17 9.64359 114.307L6.41025 115.097V118.837L9.63108 119.624C10.1917 119.761 10.6356 120.189 10.7926 120.745C11.0782 121.754 11.483 122.734 11.9965 123.659C12.276 124.162 12.2641 124.777 11.9654 125.269L10.2365 128.116L12.8808 130.76L15.7173 129.038C16.2109 128.738 16.8275 128.727 17.3311 129.009C18.2532 129.525 19.2327 129.933 20.2423 130.222C20.7955 130.38 21.2211 130.823 21.3577 131.382L22.1484 134.615Z" fill="#BDBDCC"/>
<path d="M24.0384 124.479C28.1764 124.479 31.531 121.125 31.531 116.987C31.531 112.849 28.1764 109.494 24.0384 109.494C19.9003 109.494 16.5458 112.849 16.5458 116.987C16.5458 121.125 19.9003 124.479 24.0384 124.479Z" fill="white"/>
<path d="M24.0385 126.082C19.0234 126.082 14.9433 122.002 14.9433 116.987C14.9433 111.972 19.0234 107.892 24.0385 107.892C29.0535 107.892 33.1336 111.972 33.1336 116.987C33.1336 122.002 29.0535 126.082 24.0385 126.082ZM24.0385 111.097C20.7907 111.097 18.1484 113.74 18.1484 116.987C18.1484 120.235 20.7907 122.877 24.0385 122.877C27.2862 122.877 29.9285 120.235 29.9285 116.987C29.9285 113.739 27.2862 111.097 24.0385 111.097Z" fill="#BDBDCC"/>
<path d="M117.272 63.3882V135.736H26.3176V63.3882C26.3176 59.8478 29.1875 56.9779 32.7279 56.9779H110.862C114.402 56.9779 117.272 59.8478 117.272 63.3882Z" fill="#95BFFE"/>
<path d="M37.2151 56.9779H32.7279C29.1875 56.9779 26.3176 59.8478 26.3176 63.3882V135.736H30.8048V63.3882C30.8048 59.8478 33.6747 56.9779 37.2151 56.9779Z" fill="#BDD8FF"/>
<path d="M107.382 66.7177H36.2076V125.995H107.382V66.7177Z" fill="#EFEFEF"/>
<path d="M40.3742 66.7177H36.2076V125.995H40.3742V66.7177Z" fill="white"/>
<path d="M122.756 135.736H20.8333V141.987C20.8333 145.528 23.7032 148.397 27.2436 148.397H116.346C119.887 148.397 122.756 145.528 122.756 141.987L122.756 135.736Z" fill="#CCE3FF"/>
<path d="M25.9615 141.987V135.736H20.8333V141.987C20.8333 145.528 23.7032 148.397 27.2436 148.397H32.3718C28.8314 148.397 25.9615 145.528 25.9615 141.987Z" fill="#EBF5FF"/>
<path d="M142.628 69.8718H89.1901C86.0038 69.8718 83.4208 67.2888 83.4208 64.1026V23.3699H148.397V64.1026C148.397 67.2888 145.814 69.8718 142.628 69.8718Z" fill="#FFFAE6"/>
<path d="M88.2285 64.1026V23.3699H83.4208V64.1026C83.4208 67.2888 86.0038 69.8718 89.1901 69.8718H93.9978C90.8115 69.8718 88.2285 67.2888 88.2285 64.1026Z" fill="white"/>
<path d="M96.9231 48.0548L108.946 54.2702V50.6564L101.469 46.8946L108.946 43.1327V39.5189L96.9231 45.7346V48.0548Z" fill="#5B5B7F"/>
<path d="M111.354 54.5558H114.804L121.657 36.7468H118.182L111.354 54.5558Z" fill="#5B5B7F"/>
<path d="M122.872 39.5221V43.1346L130.403 46.8945L122.872 50.6545V54.2673L134.808 48.1224L134.895 48.0775V45.7115L122.872 39.5221Z" fill="#5B5B7F"/>
<path d="M148.397 23.3699H83.4208V17.3077C83.4208 14.1215 86.0038 11.5385 89.1901 11.5385H141.987C145.528 11.5385 148.397 14.4083 148.397 17.9487V23.3699Z" fill="#AD9CDB"/>
<path d="M93.9978 11.5385H89.1901C86.0038 11.5385 83.4208 14.1215 83.4208 17.3077V23.3699H88.2285V17.3077C88.2285 14.1215 90.8115 11.5385 93.9978 11.5385Z" fill="#C7C1E8"/>
<path d="M141.149 19.2099C142.116 19.2099 142.899 18.4238 142.899 17.4541C142.899 16.4844 142.116 15.6984 141.149 15.6984C140.183 15.6984 139.4 16.4844 139.4 17.4541C139.4 18.4238 140.183 19.2099 141.149 19.2099Z" fill="#5B5B7F"/>
<path d="M133.652 19.2099C134.618 19.2099 135.401 18.4238 135.401 17.4541C135.401 16.4844 134.618 15.6984 133.652 15.6984C132.686 15.6984 131.903 16.4844 131.903 17.4541C131.903 18.4238 132.686 19.2099 133.652 19.2099Z" fill="#5B5B7F"/>
<path d="M126.155 19.2099C127.121 19.2099 127.904 18.4238 127.904 17.4541C127.904 16.4844 127.121 15.6984 126.155 15.6984C125.189 15.6984 124.406 16.4844 124.406 17.4541C124.406 18.4238 125.189 19.2099 126.155 19.2099Z" fill="#5B5B7F"/>
<path d="M92.6282 99.7673V92.9904L87.8154 91.8138C87.4641 90.5728 86.9718 89.391 86.358 88.2859L88.9378 84.0365L84.1459 79.2445L79.9083 81.8173C78.8051 81.2003 77.625 80.7045 76.385 80.3497L75.2051 75.5231H68.4282L67.2516 80.3359C66.0106 80.6872 64.8289 81.1795 63.7237 81.7933L59.4744 79.2135L54.6824 84.0054L57.2551 88.2429C56.6381 89.3461 56.1423 90.5263 55.7875 91.7663L50.9615 92.9461V99.7231L55.7744 100.9C56.1256 102.141 56.618 103.322 57.2317 104.428L54.6519 108.677L59.4439 113.469L63.6814 110.896C64.7846 111.513 65.9647 112.009 67.2048 112.364L68.3846 117.19H75.1615L76.3382 112.378C77.5792 112.026 78.7609 111.534 79.866 110.92L84.1154 113.5L88.9074 108.708L86.3346 104.471C86.9516 103.367 87.4474 102.187 87.8023 100.947L92.6282 99.7673Z" fill="#B1F0A8"/>
<path d="M70.6292 111.526C70.3285 110.296 69.3917 109.322 68.1747 108.974C67.2131 108.698 66.2804 108.31 65.4026 107.819C64.2946 107.198 62.9378 107.222 61.8516 107.882L59.9798 109.018L59.1019 108.14L60.2452 106.257C60.9026 105.174 60.9288 103.823 60.3141 102.716C59.8253 101.835 59.4391 100.9 59.1667 99.9384C58.8208 98.717 57.8449 97.7756 56.6115 97.4743L54.4872 96.9551V95.7131L56.6253 95.1907C57.8548 94.89 58.8292 93.9532 59.1776 92.7362C59.4526 91.7753 59.8414 90.8426 60.3327 89.9631C60.9529 88.8548 60.9282 87.4984 60.2692 86.4128L59.133 84.5413L60.0109 83.6631L61.8946 84.8067C62.9779 85.4641 64.3295 85.4897 65.4366 84.875C66.3167 84.3862 67.2506 84.0003 68.2119 83.7282C69.4337 83.3824 70.375 82.4064 70.6766 81.1731L71.8532 76.3603L68.4285 75.5231L67.2519 80.3359C66.0106 80.6872 64.8292 81.1795 63.724 81.7933L59.475 79.2135L54.683 84.0054L57.2558 88.2429C56.6388 89.3461 56.143 90.5263 55.7881 91.7663L50.9615 92.9461V99.7231L55.7744 100.9C56.1256 102.141 56.618 103.322 57.2317 104.428L54.6519 108.677L59.4439 113.469L63.6811 110.896C64.7843 111.513 65.9644 112.009 67.2045 112.364L68.3843 117.19L71.8093 116.353L70.6292 111.526Z" fill="#DFF9D9"/>
<path d="M75.1612 118.793H68.3843C67.6458 118.793 67.0029 118.288 66.8276 117.571L65.8619 113.62C65.1372 113.371 64.4273 113.075 63.7385 112.736L60.2753 114.838C59.6439 115.222 58.8327 115.124 58.3106 114.602L53.5186 109.81C52.9962 109.288 52.8984 108.476 53.2817 107.845L55.3933 104.367C55.0555 103.677 54.7616 102.966 54.5147 102.241L50.5811 101.28C49.8638 101.105 49.359 100.462 49.359 99.7231V92.9462C49.359 92.2077 49.8635 91.5648 50.5811 91.3894L54.5314 90.4237C54.7804 89.6994 55.0763 88.9894 55.416 88.3003L53.3131 84.8372C52.9301 84.2061 53.0276 83.3946 53.55 82.8725L58.342 78.0805C58.8641 77.5587 59.6756 77.4603 60.3067 77.8439L63.7843 79.9551C64.4744 79.6173 65.1853 79.3237 65.9103 79.0763L66.8718 75.1426C67.0474 74.4253 67.6904 73.9205 68.4285 73.9205H75.2055C75.9439 73.9205 76.5869 74.425 76.7622 75.1426L77.7279 79.093C78.4526 79.3423 79.1625 79.6378 79.8513 79.9776L83.3144 77.875C83.9458 77.4914 84.7574 77.5894 85.2792 78.1116L90.0712 82.9035C90.5936 83.4257 90.6913 84.2372 90.308 84.8683L88.1965 88.3459C88.5343 89.0359 88.8282 89.7468 89.075 90.4718L93.0087 91.4334C93.726 91.6087 94.2308 92.2516 94.2308 92.9901V99.767C94.2308 100.505 93.7263 101.148 93.0087 101.324L89.0583 102.289C88.8093 103.014 88.5138 103.724 88.1737 104.413L90.2766 107.876C90.6596 108.507 90.5622 109.319 90.0397 109.841L85.2478 114.633C84.7257 115.155 83.9141 115.253 83.283 114.869L79.8051 112.758C79.1151 113.096 78.4045 113.389 77.6795 113.637L76.718 117.57C76.5426 118.288 75.8997 118.793 75.1612 118.793L75.1612 118.793ZM69.6423 115.588H73.9032L74.7808 111.996C74.918 111.436 75.3462 110.992 75.9013 110.835C77.0051 110.522 78.0769 110.08 79.0869 109.519C79.5894 109.239 80.2042 109.251 80.6965 109.55L83.8705 111.477L86.8833 108.464L84.9635 105.302C84.6638 104.808 84.6529 104.192 84.9346 103.688C85.4987 102.68 85.9445 101.609 86.2606 100.506C86.4189 99.9529 86.8615 99.5269 87.4205 99.3904L91.0256 98.5093V94.2484L87.4349 93.3705C86.8744 93.2333 86.4308 92.8058 86.2737 92.2503C85.9609 91.1462 85.5183 90.074 84.9574 89.0638C84.6779 88.5606 84.6897 87.9462 84.9885 87.4545L86.9157 84.2808L83.9029 81.268L80.7407 83.1875C80.2468 83.4872 79.6304 83.4981 79.1266 83.2164C78.1192 82.6529 77.049 82.2067 75.9449 81.8907C75.3913 81.7324 74.9657 81.2894 74.8292 80.7305L73.9481 77.1257H69.6872L68.8096 80.7167C68.6724 81.2773 68.2442 81.7208 67.6891 81.8782C66.5853 82.1907 65.5135 82.6334 64.5035 83.1942C64.0003 83.4741 63.3859 83.4619 62.8939 83.1632L59.7199 81.2362L56.7071 84.2491L58.6269 87.4109C58.9266 87.9045 58.9375 88.5208 58.6558 89.0247C58.0917 90.033 57.6459 91.1039 57.3298 92.2067C57.1715 92.7599 56.7289 93.1859 56.1699 93.3224L52.5641 94.2042V98.4651L56.1548 99.3426C56.7154 99.4795 57.159 99.9074 57.316 100.463C57.6288 101.567 58.0715 102.639 58.6324 103.649C58.9119 104.153 58.9 104.767 58.6013 105.259L56.674 108.432L59.6869 111.445L62.849 109.525C63.3426 109.225 63.959 109.214 64.4632 109.496C65.4705 110.06 66.5407 110.506 67.6449 110.822C68.1984 110.98 68.624 111.423 68.7606 111.982L69.6423 115.588Z" fill="#5B5B7F"/>
<path d="M71.7946 104.473C76.2775 104.473 79.9116 100.839 79.9116 96.3563C79.9116 91.8735 76.2775 88.2394 71.7946 88.2394C67.3118 88.2394 63.6777 91.8735 63.6777 96.3563C63.6777 100.839 67.3118 104.473 71.7946 104.473Z" fill="white"/>
<path d="M71.7949 106.076C66.4356 106.076 62.0757 101.716 62.0757 96.3568C62.0757 90.9975 66.4359 86.6372 71.7949 86.6372C77.1539 86.6372 81.5141 90.9975 81.5141 96.3568C81.5141 101.716 77.1542 106.076 71.7949 106.076ZM71.7949 89.8423C68.2029 89.8423 65.2808 92.7648 65.2808 96.3568C65.2808 99.9487 68.2029 102.871 71.7949 102.871C75.3869 102.871 78.309 99.9487 78.309 96.3568C78.309 92.7648 75.3869 89.8423 71.7949 89.8423Z" fill="#5B5B7F"/>
<path d="M57.4981 34.8022C57.4981 22.2923 47.3465 12.1512 34.8237 12.1512C22.301 12.1512 12.1494 22.2923 12.1494 34.8022C12.1494 41.541 15.0958 47.5907 19.7715 51.7391C23.7343 55.2551 26.1343 60.2435 26.1343 65.5903V70.7669H43.5131V65.5903C43.5131 60.2439 45.9131 55.2551 49.876 51.7391C54.5516 47.591 57.4981 41.541 57.4981 34.8022Z" fill="#FFF099"/>
<path d="M30.301 70.7669V64.3083C30.301 58.9618 27.901 53.973 23.9381 50.457C19.2625 46.3086 16.316 40.2586 16.316 33.5202C16.316 24.0993 22.0744 16.024 30.2657 12.6093C19.9276 14.7169 12.1494 23.8519 12.1494 34.8022C12.1494 41.541 15.0958 47.591 19.7715 51.7391C23.7343 55.2551 26.1343 60.2435 26.1343 65.5903V70.7669H30.301Z" fill="#FFFAE6"/>
<path d="M19.4385 36.4048C18.5532 36.4048 17.8359 35.6872 17.8359 34.8022C17.8359 25.4939 25.4564 17.9211 34.8234 17.9211C35.7087 17.9211 36.426 18.6388 36.426 19.5237C36.426 20.4086 35.7087 21.1263 34.8234 21.1263C27.2237 21.1263 21.041 27.2615 21.041 34.8022C21.041 35.6872 20.3237 36.4048 19.4385 36.4048L19.4385 36.4048Z" fill="#5B5B7F"/>
<path d="M43.5519 59.4807H26.2494C23.4148 59.4807 21.117 61.7785 21.117 64.6131C21.117 67.4477 23.4148 69.7455 26.2494 69.7455H43.5519C46.3866 69.7455 48.6843 67.4477 48.6843 64.6131C48.6843 61.7785 46.3866 59.4807 43.5519 59.4807Z" fill="#AD9CDB"/>
<path d="M25.6042 64.6131C25.6042 61.7785 27.9019 59.4807 30.7365 59.4807H26.2493C23.4147 59.4807 21.117 61.7785 21.117 64.6131C21.117 67.4477 23.4147 69.7455 26.2493 69.7455H30.7365C27.9022 69.7455 25.6042 67.4477 25.6042 64.6131Z" fill="#C7C1E8"/>
<path d="M43.7763 69.7455H26.0253V75.3205C26.0253 77.0907 27.4602 78.5256 29.2304 78.5256H40.5711C42.3413 78.5256 43.7763 77.0907 43.7763 75.3205L43.7763 69.7455Z" fill="#AD9CDB"/>
<path d="M30.5125 75.3205V69.7455H26.0253V75.3205C26.0253 77.0907 27.4603 78.5256 29.2305 78.5256H33.7176C31.9474 78.5256 30.5125 77.0907 30.5125 75.3205Z" fill="#C7C1E8"/>
<path d="M34.9005 44.7951C38.2555 44.7951 40.9752 42.0445 40.9752 38.6515C40.9752 35.2585 38.2555 32.5079 34.9005 32.5079C31.5456 32.5079 28.8259 35.2585 28.8259 38.6515C28.8259 42.0445 31.5456 44.7951 34.9005 44.7951Z" fill="#EFEFEF"/>
<path d="M32.9929 38.6516C32.9929 36 34.657 33.7475 36.9843 32.8869C36.3336 32.6462 35.634 32.5081 34.9009 32.5081C31.5461 32.5081 28.8263 35.2587 28.8263 38.6516C28.8263 42.0446 31.5458 44.7949 34.9009 44.7949C35.634 44.7949 36.3336 44.6568 36.9843 44.4161C34.657 43.5558 32.9929 41.3032 32.9929 38.6516Z" fill="#F9F9F9"/>
<path d="M34.8446 5.99616C33.9593 5.99616 33.242 5.27854 33.242 4.3936V1.60257C33.242 0.717628 33.9593 0 34.8446 0C35.7298 0 36.4471 0.717628 36.4471 1.60257V4.3936C36.4471 5.27854 35.7298 5.99616 34.8446 5.99616Z" fill="#5B5B7F"/>
<path d="M11.1981 16.5161C10.7836 16.5161 10.3696 16.3561 10.0558 16.0375L8.1141 14.0641C7.49326 13.433 7.5016 12.4186 8.13269 11.7978C8.76314 11.1773 9.77756 11.185 10.399 11.8161L12.3407 13.7895C13.2804 14.7449 12.5362 16.5161 11.1981 16.5161Z" fill="#5B5B7F"/>
<path d="M4.34808 33.201H1.60257C0.717314 33.201 0 32.4834 0 31.5984C0 30.7135 0.717305 29.9958 1.60257 29.9958H4.34808C5.23333 29.9958 5.95065 30.7135 5.95065 31.5984C5.95065 32.4834 5.23334 33.201 4.34808 33.201Z" fill="#5B5B7F"/>
<path d="M68.199 33.0869H65.4535C64.5683 33.0869 63.851 32.3692 63.851 31.4843C63.851 30.5993 64.5683 29.8817 65.4535 29.8817H68.199C69.0843 29.8817 69.8016 30.5993 69.8016 31.4843C69.8016 32.3692 69.0843 33.0869 68.199 33.0869Z" fill="#5B5B7F"/>
<path d="M58.524 16.4352C57.1862 16.4352 56.4417 14.6641 57.3817 13.7086L59.3234 11.7353C59.9445 11.1042 60.9593 11.0965 61.5897 11.717C62.2208 12.3378 62.2288 13.3522 61.6083 13.9833L59.6667 15.9567C59.3529 16.2753 58.9385 16.4352 58.524 16.4352Z" fill="#5B5B7F"/>
<path d="M148.397 125.614V116.752L142.104 115.213C141.645 113.59 141.001 112.045 140.198 110.6L143.572 105.044L137.305 98.7773L131.764 102.141C130.322 101.335 128.779 100.686 127.157 100.222L125.614 93.9103H116.752L115.213 100.204C113.59 100.663 112.045 101.307 110.6 102.11L105.044 98.7359L98.7772 105.002L102.141 110.543C101.335 111.986 100.686 113.529 100.222 115.151L93.9102 116.694V125.556L100.204 127.094C100.663 128.717 101.307 130.263 102.11 131.707L98.7359 137.264L105.002 143.53L110.543 140.166C111.986 140.973 113.529 141.622 115.151 142.086L116.694 148.397H125.556L127.094 142.104C128.717 141.645 130.262 141.001 131.707 140.198L137.264 143.572L143.53 137.305L140.166 131.764C140.973 130.322 141.621 128.779 142.086 127.157L148.397 125.614Z" fill="#FF8A80"/>
<path d="M118.887 141.172C118.559 139.831 117.537 138.769 116.209 138.388C114.896 138.012 113.621 137.481 112.421 136.81C111.212 136.134 109.732 136.16 108.547 136.879L105.587 138.676L103.591 136.679L105.398 133.704C106.114 132.522 106.143 131.048 105.472 129.84C104.804 128.637 104.277 127.361 103.905 126.047C103.528 124.714 102.463 123.688 101.118 123.358L97.7564 122.537V119.713L101.135 118.887C102.477 118.559 103.539 117.537 103.92 116.209C104.296 114.896 104.827 113.621 105.498 112.421C106.175 111.212 106.148 109.732 105.429 108.547L103.632 105.587L105.629 103.591L108.604 105.397C109.786 106.114 111.26 106.143 112.468 105.472C113.671 104.804 114.947 104.277 116.261 103.905C117.594 103.528 118.621 102.463 118.95 101.117L120.489 94.8234L116.752 93.9103L115.213 100.204C113.59 100.663 112.045 101.307 110.6 102.11L105.044 98.7359L98.7772 105.002L102.141 110.544C101.334 111.986 100.686 113.53 100.222 115.151L93.9102 116.694V125.556L100.204 127.094C100.663 128.717 101.307 130.263 102.11 131.707L98.7359 137.264L105.002 143.53L110.544 140.166C111.986 140.973 113.529 141.621 115.151 142.086L116.694 148.397L120.43 147.484L118.887 141.172Z" fill="#FFA8A4"/>
<path d="M121.153 135.424C129.035 135.424 135.424 129.035 135.424 121.153C135.424 113.272 129.035 106.883 121.153 106.883C113.272 106.883 106.883 113.272 106.883 121.153C106.883 129.035 113.272 135.424 121.153 135.424Z" fill="#EDEDED"/>
<path d="M111.05 121.154C111.05 113.98 116.344 108.045 123.237 107.037C122.557 106.937 121.862 106.884 121.154 106.884C113.272 106.884 106.883 113.273 106.883 121.154C106.883 129.036 113.272 135.424 121.154 135.424C121.862 135.424 122.557 135.371 123.237 135.271C116.344 134.263 111.05 128.327 111.05 121.154V121.154Z" fill="white"/>
<path d="M121.154 137.027C112.401 137.027 105.281 129.906 105.281 121.154C105.281 112.401 112.402 105.281 121.154 105.281C129.906 105.281 137.027 112.401 137.027 121.154C137.027 129.906 129.906 137.027 121.154 137.027ZM121.154 108.486C114.169 108.486 108.486 114.169 108.486 121.154C108.486 128.139 114.169 133.822 121.154 133.822C128.139 133.822 133.821 128.139 133.821 121.154C133.821 114.169 128.139 108.486 121.154 108.486Z" fill="#5B5B7F"/>
<path d="M121.154 126.343C118.292 126.343 115.965 124.015 115.965 121.154C115.965 118.293 118.293 115.965 121.154 115.965C124.015 115.965 126.343 118.293 126.343 121.154C126.343 124.015 124.015 126.343 121.154 126.343Z" fill="#FF8A80"/>
<path d="M119.17 121.154C119.17 118.852 120.678 116.898 122.756 116.221C122.251 116.056 121.713 115.965 121.154 115.965C118.292 115.965 115.965 118.293 115.965 121.154C115.965 124.015 118.293 126.343 121.154 126.343C121.713 126.343 122.251 126.251 122.756 126.087C120.678 125.41 119.17 123.456 119.17 121.154Z" fill="#FFA8A4"/>
<path d="M121.154 127.946C117.409 127.946 114.362 124.899 114.362 121.154C114.362 117.409 117.409 114.362 121.154 114.362C124.899 114.362 127.945 117.409 127.945 121.154C127.945 124.899 124.899 127.946 121.154 127.946ZM121.154 117.567C119.176 117.567 117.567 119.176 117.567 121.154C117.567 123.131 119.176 124.74 121.154 124.74C123.131 124.74 124.74 123.131 124.74 121.154C124.74 119.176 123.132 117.567 121.154 117.567Z" fill="#5B5B7F"/>
<path d="M142.628 71.4744C146.693 71.4744 150 68.1673 150 64.1026V17.9487C150 13.5305 146.405 9.93591 141.987 9.93591H89.1897C85.1247 9.93591 81.8179 13.243 81.8179 17.3077V55.3753H48.6641C49.34 54.4991 50.1013 53.6817 50.9394 52.9382C56.1259 48.3366 59.1003 41.7263 59.1003 34.8023C59.1003 21.4289 48.2096 10.5487 34.8234 10.5487C21.4372 10.5487 10.5468 21.4289 10.5468 34.8023C10.5468 41.7263 13.5211 48.3366 18.7077 52.9382C20.5397 54.5635 21.9993 56.542 23.001 58.7173C20.9247 59.866 19.5147 62.0773 19.5147 64.6135C19.5147 67.6933 21.5952 70.291 24.4227 71.0898V75.3205C24.4227 75.8952 24.5295 76.4442 24.715 76.9555V134.133H20.8333C19.9481 134.133 19.2308 134.851 19.2308 135.736V141.987C19.2308 146.405 22.8253 150 27.2436 150H125.556C126.294 150 126.937 149.495 127.112 148.778L128.434 143.37C129.536 143.009 130.613 142.563 131.653 142.04L136.432 144.941C137.064 145.325 137.875 145.227 138.397 144.705L144.663 138.438C145.186 137.916 145.284 137.105 144.9 136.474L142.009 131.712C142.536 130.674 142.984 129.599 143.348 128.498L148.778 127.171C149.495 126.995 150 126.352 150 125.614V116.752C150 116.013 149.495 115.371 148.778 115.195L143.369 113.873C143.008 112.771 142.563 111.694 142.039 110.654L144.941 105.875C145.324 105.244 145.227 104.432 144.704 103.91L138.438 97.6439C137.916 97.1215 137.105 97.0237 136.473 97.4074L131.712 100.298C130.674 99.7718 129.598 99.3237 128.498 98.9593L127.17 93.5301C126.995 92.8128 126.352 92.308 125.614 92.308H118.875V71.4747H142.628V71.4744ZM85.0231 17.3077C85.0231 15.0103 86.8923 13.141 89.1897 13.141H141.987C144.638 13.141 146.795 15.2978 146.795 17.9487V21.7673H85.0231V17.3077ZM89.1897 71.4744H105.779V97.3189C105.163 96.9987 104.407 97.1064 103.91 97.6029L97.6439 103.869C97.1215 104.391 97.0237 105.203 97.4071 105.834L100.298 110.596C99.7715 111.633 99.3237 112.709 98.959 113.81L93.5298 115.137C92.8125 115.313 92.3077 115.955 92.3077 116.694V124.393H37.8103V80.1282H40.5712C43.2221 80.1282 45.3789 77.9715 45.3789 75.3205V71.093C46.949 70.6491 48.2885 69.6503 49.1689 68.3205H83.1494C84.4833 70.2253 86.693 71.4744 89.1898 71.4744H89.1897ZM27.9202 79.942C28.3375 80.0606 28.7756 80.1282 29.2304 80.1282H34.6051V125.995C34.6051 126.88 35.3224 127.598 36.2077 127.598H95.5151L98.9381 128.435C99.2994 129.537 99.7445 130.613 100.268 131.653L98.759 134.139C98.7397 134.138 98.7221 134.133 98.7029 134.133H27.9202L27.9202 79.942ZM27.6279 75.3205V71.3481H42.1737V75.3205C42.1737 76.2042 41.4548 76.9231 40.5711 76.9231H29.2304C28.3468 76.9231 27.6279 76.2042 27.6279 75.3205H27.6279ZM81.8179 58.5805V64.1026C81.8179 64.4465 81.8436 64.784 81.8891 65.1154H50.2612C50.2737 64.9491 50.2865 64.7827 50.2865 64.6132C50.2865 62.0273 48.8199 59.7805 46.6766 58.6523C46.6878 58.6282 46.699 58.6042 46.7102 58.5805L81.8179 58.5805ZM20.8349 50.5407C16.3336 46.5471 13.7519 40.8106 13.7519 34.8023C13.7519 23.1962 23.2045 13.7539 34.8234 13.7539C46.4423 13.7539 55.8952 23.1962 55.8952 34.8023C55.8952 40.8106 53.3135 46.5471 48.8122 50.5407C46.5096 52.5837 44.6917 55.1016 43.5038 57.8785H36.5032V46.2269C39.9695 45.4811 42.5776 42.3686 42.5776 38.6519C42.5776 34.3808 39.1336 30.9061 34.9006 30.9061C30.6673 30.9061 27.2234 34.3808 27.2234 38.6519C27.2234 42.3686 29.8317 45.4811 33.2981 46.2269V57.8785H26.2493C26.2144 57.8785 26.1808 57.8833 26.1461 57.8837C24.959 55.1048 23.1401 52.5856 20.8349 50.5407ZM34.9009 43.1926C32.4352 43.1926 30.4288 41.1558 30.4288 38.6519C30.4288 36.1481 32.4352 34.1112 34.9009 34.1112C37.3667 34.1112 39.3727 36.1481 39.3727 38.6519C39.3727 41.1558 37.3667 43.1926 34.9009 43.1926ZM22.7199 64.6132C22.7199 62.6667 24.3032 61.0834 26.2497 61.0834H43.5522C45.4984 61.0834 47.082 62.6667 47.082 64.6132C47.082 66.5593 45.4987 68.143 43.5522 68.143H26.2493C24.3032 68.143 22.7199 66.5596 22.7199 64.6132H22.7199ZM22.4359 141.987V137.338H97.1404C97.1583 137.727 97.3125 138.107 97.6029 138.397L103.869 144.664C104.391 145.186 105.203 145.284 105.834 144.9L110.595 142.009C111.633 142.536 112.709 142.984 113.81 143.348L114.652 146.795H27.2436C24.5926 146.795 22.4359 144.638 22.4359 141.987ZM124.356 95.5128L125.6 100.603C125.737 101.162 126.162 101.604 126.716 101.763C128.195 102.186 129.63 102.784 130.982 103.54C131.486 103.821 132.103 103.811 132.596 103.511L137.062 100.8L141.549 105.287L138.828 109.768C138.529 110.26 138.518 110.875 138.797 111.378C139.549 112.732 140.143 114.169 140.562 115.649C140.719 116.205 141.162 116.633 141.723 116.77L146.795 118.01V124.356L141.705 125.6C141.146 125.737 140.704 126.163 140.545 126.716C140.121 128.196 139.523 129.631 138.768 130.982C138.486 131.486 138.497 132.102 138.796 132.596L141.508 137.062L137.021 141.549L132.539 138.829C132.047 138.529 131.433 138.518 130.93 138.797C129.575 139.55 128.138 140.143 126.658 140.562C126.103 140.719 125.675 141.163 125.538 141.724L124.298 146.795H117.952L116.708 141.705C116.571 141.146 116.145 140.704 115.592 140.545C114.113 140.122 112.677 139.524 111.326 138.768C110.822 138.486 110.205 138.497 109.712 138.797L105.246 141.508L100.759 137.021L103.479 132.539C103.778 132.047 103.79 131.433 103.511 130.93C102.758 129.576 102.165 128.139 101.746 126.658C101.589 126.103 101.145 125.675 100.585 125.538L95.5128 124.298V117.952L100.603 116.708C101.162 116.571 101.604 116.145 101.763 115.592C102.186 114.112 102.784 112.677 103.54 111.326C103.822 110.822 103.811 110.205 103.511 109.712L100.8 105.246L105.287 100.759L109.768 103.479C110.26 103.778 110.875 103.79 111.378 103.51C112.732 102.758 114.17 102.164 115.649 101.746C116.204 101.588 116.633 101.145 116.77 100.584L118.01 95.5128H124.356ZM108.985 99.2542V71.4744H115.669V92.7359C115.443 92.9442 115.272 93.2144 115.195 93.5298L113.873 98.9378C112.771 99.2991 111.694 99.7442 110.654 100.268L108.985 99.2542ZM89.1897 68.2692C86.8923 68.2692 85.0231 66.4 85.0231 64.1026V24.9725H146.795V64.1026C146.795 66.4 144.926 68.2692 142.628 68.2692H89.1897Z" fill="#5B5B7F"/>
</svg>
