<svg width="136" height="120" viewBox="0 0 136 120" fill="none" xmlns="http://www.w3.org/2000/svg">
<path d="M65.6562 10.6094H56.8672C56.22 10.6094 55.6953 10.0847 55.6953 9.4375C55.6953 8.79029 56.22 8.26562 56.8672 8.26562H65.6563C66.3035 8.26562 66.8281 8.79029 66.8281 9.4375C66.8281 10.0847 66.3035 10.6094 65.6563 10.6094H65.6562Z" fill="#E67701"/>
<path d="M11.9866 12.1511L4.34503 17.7183L40.228 66.9712L47.8695 61.404L11.9866 12.1511Z" fill="#FCC419"/>
<path d="M46.9062 110.219H0.03125V96.1562L2.375 91.4688H39.875L46.9062 96.1562V110.219Z" fill="#FCC419"/>
<path d="M32.844 86.782H9.40637V91.4695H32.844V86.782Z" fill="#F5A000"/>
<path d="M37.5316 79.7507H4.71881V86.782H37.5316V79.7507Z" fill="#FCC419"/>
<path d="M36.4273 79.75H4.71875V70.375L9.40625 61H30.5L32.9044 56.9928C34.1106 54.9817 36.0879 53.5523 38.3758 53.0375C40.6637 52.5228 43.0626 52.9675 45.014 54.2682C48.7309 56.7462 49.9227 61.6626 47.7532 65.5677L41.5493 76.7348C40.5163 78.5954 38.5556 79.7497 36.4273 79.75Z" fill="#F5A000"/>
<path d="M10.8207 23.0248L7.0625 15.7331L25.8125 4.75H35.1875V14.125H26.5798L16.632 21.3807L10.8207 23.0248Z" fill="#FCC419"/>
<path d="M51.5942 4.75012H39.8754V14.1252H51.5942V4.75012Z" fill="#FCC419"/>
<path d="M58.6255 7.09387H51.5942V11.7814H58.6255V7.09387Z" fill="#F5A000"/>
<path d="M42.2191 0.0625H32.8441V7.0938H42.2191V0.0625Z" fill="#F5A000"/>
<path d="M23.469 65.6881H16.4377V75.0632H23.469V65.6881Z" fill="#E67701"/>
<path d="M39.8753 66.8599C42.4642 66.8599 44.5629 64.7613 44.5629 62.1724C44.5629 59.5835 42.4642 57.4849 39.8753 57.4849C37.2865 57.4849 35.1878 59.5835 35.1878 62.1724C35.1878 64.7613 37.2865 66.8599 39.8753 66.8599Z" fill="#E67701"/>
<path d="M29.6706 30.5316L16.4376 40.1724L25.5685 52.7053L38.8014 43.0646L29.6706 30.5316Z" fill="#F5A000"/>
<path d="M10.8712 27.0159C15.4017 27.0159 19.0744 23.3432 19.0744 18.8127C19.0744 14.2822 15.4017 10.6095 10.8712 10.6095C6.34072 10.6095 2.66803 14.2822 2.66803 18.8127C2.66803 23.3432 6.34072 27.0159 10.8712 27.0159Z" fill="#E67701"/>
<path d="M46.9066 110.22H0.03125V119.595H46.9066V110.22Z" fill="#F5A000"/>
<path d="M14.0939 96.1571H7.06262V100.845H14.0939V96.1571Z" fill="#E67701"/>
<path d="M14.0939 100.845H7.06262V105.532H14.0939V100.845Z" fill="#F5A000"/>
<path d="M18.7811 96.1574C19.4283 96.1574 19.953 95.6327 19.953 94.9855C19.953 94.3383 19.4283 93.8136 18.7811 93.8136C18.1339 93.8136 17.6093 94.3383 17.6093 94.9855C17.6093 95.6327 18.1339 96.1574 18.7811 96.1574Z" fill="#E67701"/>
<path d="M18.7811 107.876C19.4283 107.876 19.953 107.351 19.953 106.704C19.953 106.057 19.4283 105.532 18.7811 105.532C18.1339 105.532 17.6093 106.057 17.6093 106.704C17.6093 107.351 18.1339 107.876 18.7811 107.876Z" fill="#E67701"/>
<path d="M39.8751 96.1574C40.5223 96.1574 41.047 95.6327 41.047 94.9855C41.047 94.3383 40.5223 93.8136 39.8751 93.8136C39.2279 93.8136 38.7032 94.3383 38.7032 94.9855C38.7032 95.6327 39.2279 96.1574 39.8751 96.1574Z" fill="#E67701"/>
<path d="M39.8751 107.876C40.5223 107.876 41.047 107.351 41.047 106.704C41.047 106.057 40.5223 105.532 39.8751 105.532C39.2279 105.532 38.7032 106.057 38.7032 106.704C38.7032 107.351 39.2279 107.876 39.8751 107.876Z" fill="#E67701"/>
<path d="M36.3594 99.6719H22.2969C21.6497 99.6719 21.125 99.1472 21.125 98.5C21.125 97.8528 21.6497 97.3281 22.2969 97.3281H36.3594C37.0066 97.3281 37.5312 97.8528 37.5312 98.5C37.5312 99.1472 37.0066 99.6719 36.3594 99.6719Z" fill="#E67701"/>
<path d="M36.3594 104.359H22.2969C21.6497 104.359 21.125 103.835 21.125 103.188C21.125 102.54 21.6497 102.016 22.2969 102.016H36.3594C37.0066 102.016 37.5312 102.54 37.5312 103.188C37.5312 103.835 37.0066 104.359 36.3594 104.359Z" fill="#E67701"/>
<path d="M121.907 21.1565H53.9379V58.2662H121.907V21.1565Z" fill="#5F86FE"/>
<path d="M121.907 58.2662H53.9379V65.6881H121.907V58.2662Z" fill="#3A69FF"/>
<path d="M111.36 42.2504H104.329V63.3443H111.36V42.2504Z" fill="#FFB3D0"/>
<path d="M99.6406 35.2188H111.359V49.2812H104.035C101.608 49.2812 99.6406 47.3137 99.6406 44.8867V35.2188Z" fill="#FFB3D0"/>
<path d="M135.969 60.4141V109.047H121.906V51.625H127.18C132.034 51.625 135.969 55.56 135.969 60.4141L135.969 60.4141Z" fill="#FEE066"/>
<path d="M135.969 109.047V112.562C135.969 113.857 134.919 114.906 133.625 114.906H124.25C122.956 114.906 121.906 113.857 121.906 112.562V109.047H135.969Z" fill="#FFB3D0"/>
<path d="M62.3111 90.0804L61.3086 63.0156L73.9619 61.6064L74.0352 61.6035L74.895 89.4142L62.3111 90.0804Z" fill="#FCC419"/>
<path d="M72.8838 40.3955L74.0351 61.6035L73.9619 61.6064L61.3086 63.0156L60.916 55.4072C60.7759 52.6799 62.5376 50.2171 65.164 49.4688L68.2285 48.5986L68.1142 44.667C68.0498 42.5235 69.6618 40.6986 71.7969 40.4981L72.8838 40.3955Z" fill="#FFB3D0"/>
<path d="M77.375 27.0156H58.625C57.9778 27.0156 57.4531 26.491 57.4531 25.8438C57.4531 25.1965 57.9778 24.6719 58.625 24.6719H77.375C78.0222 24.6719 78.5469 25.1965 78.5469 25.8438C78.5469 26.491 78.0222 27.0156 77.375 27.0156Z" fill="#3A69FF"/>
<path d="M70.3438 31.7031H58.625C57.9778 31.7031 57.4531 31.1785 57.4531 30.5312C57.4531 29.884 57.9778 29.3594 58.625 29.3594H70.3438C70.991 29.3594 71.5156 29.884 71.5156 30.5312C71.5156 31.1785 70.991 31.7031 70.3438 31.7031Z" fill="#3A69FF"/>
<path d="M75.0312 36.3906H58.625C57.9778 36.3906 57.4531 35.866 57.4531 35.2188C57.4531 34.5715 57.9778 34.0469 58.625 34.0469H75.0312C75.6785 34.0469 76.2031 34.5715 76.2031 35.2188C76.2031 35.866 75.6785 36.3906 75.0312 36.3906Z" fill="#3A69FF"/>
<path d="M85.5781 38.7344C81.6949 38.7344 78.5469 35.5864 78.5469 31.7031C78.5469 27.8199 81.6949 24.6719 85.5781 24.6719C89.4614 24.6719 92.6094 27.8199 92.6094 31.7031C92.605 35.5846 89.4596 38.73 85.5781 38.7344ZM85.5781 27.0156C82.9893 27.0156 80.8906 29.1143 80.8906 31.7031C80.8906 34.292 82.9893 36.3906 85.5781 36.3906C88.167 36.3906 90.2656 34.292 90.2656 31.7031C90.2626 29.1156 88.1657 27.0187 85.5781 27.0156Z" fill="#3A69FF"/>
<path d="M63.3125 41.0781H58.625C57.9778 41.0781 57.4531 40.5535 57.4531 39.9062C57.4531 39.259 57.9778 38.7344 58.625 38.7344H63.3125C63.9597 38.7344 64.4844 39.259 64.4844 39.9062C64.4844 40.5535 63.9597 41.0781 63.3125 41.0781Z" fill="#3A69FF"/>
<path d="M60.9688 45.7656H58.625C57.9778 45.7656 57.4531 45.241 57.4531 44.5938C57.4531 43.9465 57.9778 43.4219 58.625 43.4219H60.9688C61.616 43.4219 62.1406 43.9465 62.1406 44.5938C62.1406 45.241 61.616 45.7656 60.9688 45.7656Z" fill="#3A69FF"/>
<path d="M93.7812 43.4219H77.375C76.7278 43.4219 76.2031 42.8972 76.2031 42.25C76.2031 41.6028 76.7278 41.0781 77.375 41.0781H93.7812C94.4285 41.0781 94.9531 41.6028 94.9531 42.25C94.9531 42.8972 94.4285 43.4219 93.7812 43.4219Z" fill="#3A69FF"/>
<path d="M82.0625 48.1094H77.375C76.7278 48.1094 76.2031 47.5847 76.2031 46.9375C76.2031 46.2903 76.7278 45.7656 77.375 45.7656H82.0625C82.7097 45.7656 83.2344 46.2903 83.2344 46.9375C83.2344 47.5847 82.7097 48.1094 82.0625 48.1094Z" fill="#3A69FF"/>
<path d="M93.7812 48.1094H86.75C86.1028 48.1094 85.5781 47.5847 85.5781 46.9375C85.5781 46.2903 86.1028 45.7656 86.75 45.7656H93.7812C94.4285 45.7656 94.9531 46.2903 94.9531 46.9375C94.9531 47.5847 94.4285 48.1094 93.7812 48.1094Z" fill="#3A69FF"/>
<path d="M89.0938 36.3906C88.7829 36.3909 88.4847 36.2675 88.2649 36.0475L85.9212 33.7038C85.4634 33.2461 85.4634 32.5039 85.9212 32.0462C86.3789 31.5884 87.1211 31.5884 87.5788 32.0462L89.9226 34.3899C90.2579 34.7251 90.3582 35.2293 90.1767 35.6672C89.9953 36.1052 89.5678 36.3907 89.0937 36.3906L89.0938 36.3906Z" fill="#154DFC"/>
<path d="M108.72 30.5313H96.125V33.5898C96.125 35.9246 97.714 37.9597 99.979 38.5261L105.5 39.9062V43.3114C105.5 46.6085 108.173 49.2812 111.47 49.2812L114.631 38.4039C114.793 37.8457 114.875 37.2674 114.875 36.6862C114.875 35.0538 114.226 33.4882 113.072 32.3339C111.918 31.1796 110.352 30.5312 108.72 30.5313Z" fill="#1B53A6"/>
<path d="M105.927 44.5942C107.456 44.5942 108.696 43.3543 108.696 41.8248C108.696 40.2952 107.456 39.0553 105.927 39.0553C104.397 39.0553 103.157 40.2952 103.157 41.8248C103.157 43.3543 104.397 44.5942 105.927 44.5942Z" fill="#FFB3D0"/>
<path d="M74.4089 92.5234L93.7812 51.625H85.2807C81.8843 51.625 78.7918 53.582 77.3378 56.6515L62.9237 87.0815C61.9912 89.0501 62.1321 91.3591 63.2968 93.1997C64.4616 95.0403 66.488 96.1561 68.6662 96.1563C71.1215 96.1565 73.3573 94.7422 74.4089 92.5234V92.5234Z" fill="#FEE066"/>
<path d="M84.4062 100.844V56.703C84.4062 53.8985 86.6798 51.625 89.4843 51.625H124.287C125.52 51.6249 126.703 52.1149 127.575 52.9871C128.448 53.8593 128.938 55.0424 128.937 56.2759V100.844L84.4062 100.844Z" fill="#FEE066"/>
<path d="M128.938 100.844C128.29 100.844 127.766 100.319 127.766 99.6719V68.0312C127.766 67.384 128.29 66.8594 128.938 66.8594C129.585 66.8594 130.109 67.384 130.109 68.0312V99.6719C130.109 100.319 129.585 100.844 128.938 100.844Z" fill="#FCC419"/>
<path d="M128.938 100.845H84.4069V119.595H128.938V100.845Z" fill="#1B53A6"/>
<path d="M39.8753 7.09387H35.1878V11.7814H39.8753V7.09387Z" fill="#E67701"/>
<path d="M51.5942 9.43757C54.1831 9.43757 56.2817 7.33889 56.2817 4.75004C56.2817 2.16118 54.1831 0.0625 51.5942 0.0625C49.0054 0.0625 46.9067 2.16118 46.9067 4.75004C46.9067 7.33889 49.0054 9.43757 51.5942 9.43757Z" fill="#E67701"/>
<path d="M87.9053 16.469C88.5525 16.469 89.0772 15.9443 89.0772 15.2971C89.0772 14.6499 88.5525 14.1252 87.9053 14.1252C87.2581 14.1252 86.7334 14.6499 86.7334 15.2971C86.7334 15.9443 87.2581 16.469 87.9053 16.469Z" fill="#3A69FF"/>
<path d="M84.5902 13.1544C84.1161 13.1546 83.6887 12.8691 83.5072 12.4311C83.3258 11.9931 83.4261 11.4889 83.7614 11.1538C86.0496 8.86558 89.7595 8.86558 92.0477 11.1538C92.5055 11.6113 92.5056 12.3533 92.048 12.8111C91.5905 13.2688 90.8484 13.2689 90.3907 12.8114C89.7314 12.152 88.8372 11.7816 87.9047 11.7816C86.9723 11.7816 86.078 12.152 85.4187 12.8114C85.1992 13.0314 84.901 13.1548 84.5902 13.1544Z" fill="#3A69FF"/>
<path d="M94.5336 9.83976C94.2227 9.84001 93.9246 9.71633 93.7051 9.49611C92.1667 7.95755 90.0801 7.09317 87.9043 7.09317C85.7286 7.09317 83.642 7.95754 82.1035 9.49611C81.6459 9.95385 80.9038 9.95392 80.4461 9.49626C79.9883 9.03861 79.9883 8.29653 80.4459 7.83879C82.4238 5.86084 85.1065 4.74963 87.9037 4.74963C90.701 4.74963 93.3836 5.86084 95.3615 7.83879C95.6968 8.17395 95.7972 8.67811 95.6157 9.1161C95.4343 9.55409 95.0068 9.83961 94.5327 9.83948L94.5336 9.83976Z" fill="#3A69FF"/>
<path d="M97.8482 6.5251C97.5375 6.5254 97.2393 6.40196 97.0197 6.18203C91.9856 1.14801 83.8238 1.14801 78.7897 6.18203C78.332 6.63969 77.5899 6.63963 77.1323 6.18188C76.6746 5.72415 76.6747 4.98207 77.1324 4.52441C83.0818 -1.42497 92.7277 -1.42497 98.6771 4.52441C99.0123 4.85957 99.1127 5.36373 98.9312 5.80172C98.7498 6.23971 98.3223 6.52523 97.8482 6.5251Z" fill="#3A69FF"/>
</svg>
