<svg width="800" height="800" viewBox="0 0 800 800" fill="none" xmlns="http://www.w3.org/2000/svg">
<g opacity="0.4">
<g opacity="0.4">
<g opacity="0.4">
<path opacity="0.4" d="M368.4 184.56L222.08 269.04C220.24 270.08 218.72 272.72 218.72 274.88L219.12 414.56C219.12 416.72 220.64 417.6 222.48 416.48L368.8 332C370.64 330.96 372.16 328.32 372.16 326.16L371.76 186.48C371.84 184.32 370.24 183.44 368.4 184.56Z" fill="#4B25B7"/>
</g>
</g>
</g>
<g opacity="0.2">
<g opacity="0.2">
<g opacity="0.2">
<path opacity="0.2" d="M206.72 185.28L149.04 218.64C147.44 219.52 146.24 221.76 146.24 223.52L146.48 294.64C146.48 296.48 147.76 297.2 149.36 296.24L207.04 262.88C208.64 262 209.84 259.76 209.84 258L209.6 186.88C209.6 185.12 208.32 184.4 206.72 185.28Z" fill="#37B5F4"/>
</g>
</g>
</g>
<path d="M138 295.6C136.72 296.32 135.76 295.76 135.76 294.32L135.52 223.2C135.52 221.76 136.56 220 137.76 219.28L195.44 185.92C196.72 185.2 197.68 185.76 197.68 187.2L197.92 258.32C197.92 259.76 196.88 261.52 195.68 262.24L138 295.6ZM195.52 184.64L137.84 218C136 219.12 134.4 221.76 134.48 223.84L134.72 294.96C134.72 297.12 136.24 298 138.16 296.88L195.84 263.52C197.68 262.4 199.28 259.76 199.2 257.68L198.96 186.56C198.88 184.4 197.36 183.52 195.52 184.64Z" fill="#7CE7F2"/>
<g opacity="0.2">
<g opacity="0.2">
<g opacity="0.2">
<path opacity="0.2" d="M114.88 281.04L79.68 301.36C78.08 302.24 76.88 304.48 76.88 306.24L77.04 349.84C77.04 351.68 78.32 352.4 79.92 351.44L115.12 331.12C116.72 330.24 117.92 328 117.92 326.24L117.76 282.64C117.76 280.88 116.48 280.16 114.88 281.04Z" fill="#37B5F4"/>
</g>
</g>
</g>
<path d="M72.56 350.8C71.28 351.52 70.32 350.96 70.24 349.52L70.08 305.92C70.08 304.48 71.12 302.72 72.32 302L107.52 281.68C108.8 280.96 109.76 281.52 109.84 282.96L110 326.56C110 328 108.96 329.76 107.76 330.48L72.56 350.8ZM107.68 280.4L72.48 300.72C70.64 301.84 69.04 304.48 69.12 306.56L69.28 350.16C69.28 352.32 70.8 353.2 72.72 352.08L107.92 331.76C109.76 330.64 111.36 328 111.28 325.84L111.12 282.24C111.04 280.16 109.52 279.28 107.68 280.4Z" fill="#7CE7F2"/>
<g opacity="0.4">
<g opacity="0.4">
<g opacity="0.4">
<path opacity="0.4" d="M157.92 307.6L125.44 326.4C123.84 327.28 122.64 329.52 122.64 331.28L122.72 371.52C122.72 373.36 124 374.08 125.6 373.12L158.08 354.4C159.68 353.52 160.88 351.28 160.88 349.52L160.8 309.28C160.8 307.44 159.52 306.72 157.92 307.6Z" fill="#4B25B7"/>
</g>
</g>
</g>
<g opacity="0.4">
<g opacity="0.4">
<g opacity="0.4">
<path opacity="0.4" d="M578 247.44L504.48 205.04C502.88 204.16 501.68 204.88 501.6 206.64L501.36 279.52C501.36 281.28 502.64 283.52 504.16 284.4L577.68 326.8C579.28 327.68 580.56 326.96 580.56 325.2L580.8 252.32C580.8 250.56 579.52 248.4 578 247.44Z" fill="#4B25B7"/>
</g>
</g>
</g>
<g opacity="0.4">
<g opacity="0.4">
<g opacity="0.4">
<path opacity="0.4" d="M624.64 232.96L595.2 216C593.6 215.12 592.4 215.84 592.32 217.6L592.24 251.36C592.24 253.2 593.52 255.36 595.04 256.24L624.4 273.2C626 274.08 627.28 273.36 627.28 271.6L627.36 237.84C627.44 236.08 626.16 233.84 624.64 232.96Z" fill="#4B25B7"/>
</g>
</g>
</g>
<path d="M649.84 282.64C648.56 281.92 647.6 280.16 647.6 278.72L647.68 244.96C647.68 243.52 648.72 242.96 650 243.68L679.36 260.64C680.64 261.36 681.6 263.12 681.6 264.56L681.52 298.32C681.52 299.76 680.48 300.32 679.28 299.6L649.84 282.64ZM679.28 259.28L649.92 242.32C648.08 241.2 646.48 242.08 646.48 244.24L646.4 278C646.4 280.16 647.92 282.8 649.76 283.92L679.12 300.88C680.96 302 682.56 301.12 682.56 298.96L682.64 265.2C682.72 263.04 681.2 260.4 679.28 259.28Z" fill="#7CE7F2"/>
<g opacity="0.2">
<g opacity="0.2">
<g opacity="0.2">
<path opacity="0.2" d="M670.24 262.96L640.88 246C639.28 245.12 638.08 245.84 638 247.6L637.92 281.36C637.92 283.12 639.2 285.36 640.72 286.24L670.08 303.2C671.68 304.08 672.88 303.36 672.96 301.6L673.04 267.84C673.04 266.08 671.76 263.84 670.24 262.96Z" fill="#37B5F4"/>
</g>
</g>
</g>
<path d="M430.32 566.08L428.08 564.72L369.76 598.64L300.96 558.96L298.64 560.24L369.76 601.28L430.32 566.08Z" fill="#2833C0"/>
<path d="M409.76 554.72L407.52 553.44L369.2 575.68L319.84 547.2L317.52 548.48L369.2 578.32L409.76 554.72Z" fill="#2833C0"/>
<path d="M369.28 390.56L367.04 389.28L337.6 406.4L362.4 420.72L334.88 436.72L337.12 438L366.96 420.72L342.08 406.4L369.28 390.56Z" fill="#2833C0"/>
<path d="M561.68 416.08L523.76 394.16L499.04 408.56L479.6 397.28L477.36 398.64L499.04 411.12L523.76 396.8L559.36 417.36L561.68 416.08Z" fill="#2833C0"/>
<path d="M516.88 439.2L462.16 407.68L459.92 408.96L514.64 440.56L516.88 439.2Z" fill="#2833C0"/>
<path d="M170.08 497.28L167.76 496L129.84 518L132.16 519.28L170.08 497.28Z" fill="#2833C0"/>
<path d="M177.76 503.68L175.52 502.4L137.6 524.4L139.84 525.76L177.76 503.68Z" fill="#2833C0"/>
<path d="M384.32 399.28L382.08 398L365.12 407.84L412.8 435.36L372.72 458.64L374.96 459.92L417.28 435.36L369.6 407.84L384.32 399.28Z" fill="#2833C0"/>
<path d="M199.2 463.6L166.8 443.36V368.96L324.08 279.52" stroke="#2833C0" stroke-width="3" stroke-miterlimit="10"/>
<path d="M166.8 402.88V368.96L230 333.04" stroke="url(#paint0_linear_20_1022)" stroke-width="3" stroke-miterlimit="10" stroke-linecap="round"/>
<path d="M412.96 195.92L429.6 185.76L494.4 222.96V244.48" stroke="#2833C0" stroke-width="3" stroke-miterlimit="10"/>
<path d="M368.72 363.68L358.16 358.4V326.72" stroke="#2833C0" stroke-width="3" stroke-miterlimit="10"/>
<path d="M605.04 311.52L548 276.4V348.32L504.64 371.92" stroke="#2833C0" stroke-width="3" stroke-miterlimit="10"/>
<path d="M589.2 301.76L548 276.4V314.32" stroke="url(#paint1_linear_20_1022)" stroke-width="3" stroke-miterlimit="10" stroke-linecap="round"/>
<path d="M667.36 377.92V398.08L646.96 386.88V416.72L625.92 428.08" stroke="#2833C0" stroke-width="3" stroke-miterlimit="10"/>
<path d="M158 489.76C156.72 489.04 156.72 487.84 158 487.12L285.6 413.04C286.88 412.32 288.88 412.32 290.16 413.04L418.56 487.2C419.84 487.92 419.84 489.12 418.56 489.84L290.96 564C289.68 564.72 287.68 564.72 286.4 564L158 489.76ZM419.6 486.48L291.2 412.32C289.36 411.2 286.24 411.2 284.4 412.32L156.8 486.48C154.96 487.6 154.96 489.36 156.8 490.4L285.2 564.56C287.04 565.68 290.16 565.68 292 564.56L419.68 490.4C421.52 489.36 421.52 487.6 419.6 486.48Z" fill="#7CE7F2"/>
<path d="M68.64 541.2C67.36 540.48 67.36 539.28 68.64 538.56L112.48 513.12C113.76 512.4 115.76 512.4 117.04 513.12L161.2 538.56C162.48 539.28 162.48 540.48 161.2 541.2L117.36 566.64C116.08 567.36 114.08 567.36 112.8 566.64L68.64 541.2ZM162.24 537.92L118.08 512.48C116.24 511.36 113.12 511.36 111.28 512.48L67.44 537.92C65.6 539.04 65.6 540.8 67.44 541.84L111.6 567.28C113.44 568.4 116.48 568.4 118.4 567.28L162.24 541.84C164.08 540.72 164.08 538.96 162.24 537.92Z" fill="#7CE7F2"/>
<path d="M648.24 525.44C646.96 524.72 646.96 523.52 648.24 522.8L660.24 515.84C661.52 515.12 663.52 515.12 664.8 515.84L676.88 522.8C678.16 523.52 678.16 524.72 676.88 525.44L664.88 532.4C663.6 533.12 661.6 533.12 660.32 532.4L648.24 525.44ZM677.92 522.16L665.84 515.2C664 514.08 660.88 514.08 659.04 515.2L647.04 522.16C645.2 523.28 645.2 525.04 647.04 526.08L659.12 533.04C660.96 534.16 664.08 534.16 665.92 533.04L677.92 526.08C679.84 525.04 679.76 523.28 677.92 522.16Z" fill="#7CE7F2"/>
<path d="M683.04 509.84C681.76 509.12 681.76 507.92 683.04 507.2L710.96 490.96C712.24 490.24 714.24 490.24 715.52 490.96L743.6 507.2C744.88 507.92 744.88 509.12 743.6 509.84L715.68 526.08C714.4 526.8 712.4 526.8 711.12 526.08L683.04 509.84ZM744.64 506.56L716.56 490.4C714.72 489.28 711.6 489.28 709.76 490.4L681.84 506.64C680 507.76 680 509.52 681.84 510.56L709.92 526.8C711.76 527.92 714.88 527.92 716.72 526.8L744.64 510.56C746.56 509.44 746.56 507.68 744.64 506.56Z" fill="#7CE7F2"/>
<path d="M400.48 548.56C399.2 547.84 399.2 546.64 400.48 545.92L459.52 511.6C460.8 510.88 462.8 510.88 464.08 511.6L523.52 545.92C524.8 546.64 524.8 547.84 523.52 548.56L464.48 582.88C463.2 583.6 461.2 583.6 459.92 582.88L400.48 548.56ZM524.56 545.28L465.12 510.96C463.28 509.84 460.16 509.84 458.32 510.96L399.28 545.28C397.44 546.4 397.44 548.16 399.28 549.2L458.72 583.52C460.56 584.64 463.6 584.64 465.52 583.52L524.56 549.2C526.48 548.16 526.48 546.4 524.56 545.28Z" fill="#7CE7F2"/>
<path d="M470.88 469.36C469.6 468.64 469.6 467.44 470.88 466.72L578.16 404.4C579.44 403.68 581.44 403.68 582.72 404.4L690.72 466.72C692 467.44 692 468.64 690.72 469.36L583.44 531.68C582.16 532.4 580.16 532.4 578.88 531.68L470.88 469.36ZM691.76 466.08L583.76 403.76C581.92 402.64 578.8 402.64 576.96 403.76L469.68 466.08C467.84 467.2 467.84 468.96 469.68 470L577.68 532.32C579.52 533.44 582.56 533.44 584.48 532.32L691.76 470C693.68 468.96 693.6 467.2 691.76 466.08Z" fill="#7CE7F2"/>
<path d="M349.12 378.48C347.84 377.76 347.84 376.56 349.12 375.84L427.2 330.48C428.48 329.76 430.48 329.76 431.76 330.48L510.4 375.84C511.68 376.56 511.68 377.76 510.4 378.48L432.32 423.84C431.04 424.56 429.04 424.56 427.76 423.84L349.12 378.48ZM511.44 375.2L432.8 329.84C430.96 328.72 427.84 328.72 426 329.84L348 375.2C346.16 376.32 346.16 378.08 348 379.12L426.64 424.48C428.48 425.6 431.6 425.6 433.44 424.48L511.52 379.12C513.36 378.08 513.36 376.32 511.44 375.2Z" fill="#7CE7F2"/>
<g opacity="0.2">
<g opacity="0.2">
<g opacity="0.2">
<path opacity="0.2" d="M161.68 528.64L117.52 503.2C115.92 502.32 113.44 502.32 111.84 503.2L68 528.64C66.48 529.52 66.48 531.04 68 531.92L112.16 557.36C113.76 558.24 116.24 558.24 117.84 557.36L161.68 531.92C163.28 530.96 163.2 529.52 161.68 528.64Z" fill="#37B5F4"/>
</g>
</g>
</g>
<g opacity="0.2">
<g opacity="0.2">
<g opacity="0.2">
<path opacity="0.2" d="M677.36 516.08L665.28 509.12C663.68 508.24 661.2 508.24 659.6 509.12L647.6 516.08C646.08 516.96 646.08 518.48 647.6 519.36L659.68 526.32C661.28 527.2 663.76 527.2 665.36 526.32L677.36 519.36C678.96 518.48 678.96 517.04 677.36 516.08Z" fill="#37B5F4"/>
</g>
</g>
</g>
<g opacity="0.2">
<g opacity="0.2">
<g opacity="0.2">
<path opacity="0.2" d="M744.08 498.88L716 482.72C714.4 481.84 711.92 481.84 710.32 482.72L682.4 498.88C680.88 499.76 680.88 501.28 682.4 502.16L710.48 518.4C712.08 519.28 714.56 519.28 716.16 518.4L744.08 502.16C745.68 501.28 745.68 499.84 744.08 498.88Z" fill="#37B5F4"/>
</g>
</g>
</g>
<g opacity="0.2">
<g opacity="0.2">
<g opacity="0.2">
<path opacity="0.2" d="M524 536.8L464.56 502.48C462.96 501.6 460.48 501.6 458.88 502.48L399.84 536.8C398.32 537.68 398.32 539.2 399.84 540.08L459.28 574.4C460.88 575.28 463.36 575.28 464.96 574.4L524 540.08C525.6 539.2 525.6 537.76 524 536.8Z" fill="#37B5F4"/>
</g>
</g>
</g>
<g opacity="0.2">
<g opacity="0.2">
<g opacity="0.2">
<path opacity="0.2" d="M691.2 450.4L583.2 388.08C581.6 387.2 579.12 387.2 577.52 388.08L470.32 450.4C468.8 451.28 468.8 452.8 470.32 453.68L578.32 516C579.92 516.88 582.4 516.88 584 516L691.2 453.68C692.8 452.8 692.8 451.36 691.2 450.4Z" fill="#37B5F4"/>
</g>
</g>
</g>
<g opacity="0.2">
<g opacity="0.2">
<g opacity="0.2">
<path opacity="0.2" d="M510.88 359.52L432.24 314.16C430.64 313.28 428.16 313.28 426.56 314.16L348.48 359.52C346.96 360.4 346.96 361.92 348.48 362.8L427.12 408.16C428.72 409.04 431.2 409.04 432.8 408.16L510.88 362.8C512.48 361.92 512.48 360.48 510.88 359.52Z" fill="#37B5F4"/>
</g>
</g>
</g>
<g opacity="0.2">
<g opacity="0.2">
<g opacity="0.2">
<path opacity="0.2" d="M419.04 461.2L290.64 387.04C289.04 386.16 286.56 386.16 284.96 387.04L157.36 461.2C155.84 462.08 155.84 463.6 157.36 464.48L285.76 538.64C287.36 539.52 289.84 539.52 291.44 538.64L419.04 464.48C420.64 463.6 420.64 462.16 419.04 461.2Z" fill="#37B5F4"/>
</g>
</g>
</g>
<path d="M294.64 324.24C294.64 335.12 287.28 344.32 277.28 347.12L271.12 361.76L265.04 347.36C254.72 344.8 247.04 335.44 247.04 324.24C247.04 311.12 257.68 300.4 270.88 300.4C284 300.48 294.64 311.12 294.64 324.24Z" fill="#C92F5B" stroke="#4CF2E2" stroke-width="4" stroke-miterlimit="10" stroke-linecap="round" stroke-linejoin="round"/>
<path d="M261.92 315.36L279.76 333.2" stroke="white" stroke-width="7.536" stroke-miterlimit="10"/>
<path d="M261.92 333.2L279.76 315.36" stroke="white" stroke-width="7.536" stroke-miterlimit="10"/>
<path d="M441.12 438.64L450.72 433.12L453.76 438.32L441.12 445.52L433.84 432.88L436.88 431.12L441.12 438.64ZM443.76 419.44C439.44 416.96 435.44 416.72 432.64 418.32C429.76 419.92 428 423.44 428 428.48C428 432.72 429.28 437.36 431.36 441.68C433.44 446 436.48 450 439.84 452.96C440.16 453.28 440.48 453.68 440.64 454.16L443.92 464.96L447.28 457.84C447.44 457.52 447.68 457.44 448 457.52C451.28 458.32 454.16 457.76 456.24 455.84C458.32 454 459.52 450.88 459.52 446.72L460.64 447.36L459.52 446.72C459.52 441.68 457.76 436.16 454.96 431.28C452.08 426.24 448.16 422 443.76 419.44Z" fill="#0DCC87"/>
<path d="M443.84 416.88C433.92 411.12 425.76 415.76 425.76 427.2C425.76 432.08 427.2 437.36 429.6 442.32C431.92 447.04 435.12 451.36 438.8 454.72L442.88 468.24C443.04 468.8 443.44 469.36 443.92 469.6C444.4 469.84 444.8 469.76 444.96 469.44L449.2 460.48C452.8 461.28 455.84 460.48 458.08 458.48C460.4 456.32 461.84 452.8 461.84 448L460.72 447.36L459.6 446.72C459.6 450.88 458.4 454 456.32 455.84C454.24 457.68 451.36 458.32 448.08 457.52C447.76 457.44 447.44 457.52 447.36 457.84L444 464.96L440.72 454.16C440.56 453.68 440.32 453.28 439.92 452.96C436.48 450 433.52 446 431.44 441.68C429.36 437.36 428.08 432.72 428.08 428.48C428.08 423.44 429.84 420 432.72 418.32C435.6 416.72 439.52 416.96 443.84 419.44C448.16 421.92 452.08 426.24 454.96 431.2C457.84 436.16 459.52 441.68 459.52 446.64L460.64 447.28L461.76 447.92C461.84 436.56 453.76 422.56 443.84 416.88Z" fill="#4CF2E2"/>
<path d="M450.72 433.2L441.12 438.64L436.8 431.28L433.76 433.04L441.04 445.6L453.68 438.4L450.72 433.2Z" fill="white"/>
<path d="M584.4 364.72L594 359.2L597.04 364.4L584.4 371.6L577.12 358.96L580.16 357.2L584.4 364.72ZM587.12 345.52C582.8 343.04 578.8 342.72 575.92 344.4C573.04 346 571.28 349.52 571.28 354.56C571.28 358.8 572.56 363.44 574.64 367.76C576.72 372.08 579.76 376.08 583.12 379.04C583.44 379.36 583.76 379.76 583.92 380.24L587.2 391.04L590.56 383.92C590.72 383.6 590.96 383.52 591.28 383.6C594.56 384.4 597.44 383.84 599.52 381.92C601.6 380.08 602.8 376.96 602.8 372.8L603.92 373.44L602.8 372.8C602.8 367.76 601.04 362.24 598.24 357.36C595.44 352.32 591.52 348 587.12 345.52Z" fill="#0DCC87"/>
<path d="M587.12 342.88C577.12 337.12 569.04 341.76 569.04 353.2C569.04 358.08 570.48 363.36 572.88 368.32C575.2 373.04 578.4 377.36 582.08 380.72L586.16 394.24C586.32 394.8 586.72 395.36 587.2 395.6C587.68 395.84 588.08 395.76 588.24 395.44L592.48 386.48C596.08 387.28 599.12 386.48 601.36 384.48C603.68 382.32 605.12 378.8 605.12 374L604 373.36L602.88 372.72C602.88 376.88 601.68 380 599.6 381.84C597.52 383.68 594.72 384.32 591.36 383.52C591.04 383.44 590.72 383.52 590.64 383.84L587.28 390.96L584 380.16C583.84 379.68 583.6 379.28 583.2 378.96C579.76 376 576.8 372 574.72 367.68C572.64 363.36 571.36 358.72 571.36 354.48C571.36 349.44 573.12 346 576 344.32C578.88 342.72 582.8 342.96 587.2 345.44C591.52 347.92 595.44 352.24 598.32 357.2C601.2 362.16 602.88 367.68 602.88 372.64L604 373.28L605.12 373.92C605.12 362.56 597.12 348.64 587.12 342.88Z" fill="#4CF2E2"/>
<path d="M594 359.28L584.4 364.72L580.16 357.36L577.12 359.04L584.4 371.68L597.04 364.48L594 359.28Z" fill="white"/>
<path opacity="0.2" d="M404.8 230.88C404.48 231.04 404.24 230.88 404.24 230.56V229.68C404.24 229.28 404.48 228.88 404.8 228.72L409.2 226.16C409.52 226 409.76 226.16 409.76 226.48V227.36C409.76 227.68 409.52 228.16 409.2 228.32L404.8 230.88ZM389.6 233.68C389.28 233.84 389.04 233.68 389.04 233.36V232.48C389.04 232.16 389.28 231.68 389.6 231.52L399.52 225.84C399.84 225.68 400.08 225.84 400.08 226.16V227.04C400.08 227.44 399.84 227.84 399.52 228L389.6 233.68ZM389.6 229.12C389.28 229.28 389.04 229.12 389.04 228.8V227.92C389.04 227.52 389.28 227.12 389.6 226.96L406.48 217.2C406.8 217.04 407.04 217.2 407.04 217.52V218.4C407.04 218.72 406.8 219.2 406.48 219.36L389.6 229.12ZM398.72 213.2C400.64 212.08 402.32 209.92 403.12 207.52L406.72 207.44C405.2 211.84 402.16 215.76 398.8 217.76C397.04 218.8 395.28 219.2 393.84 218.88L396.08 213.84C396.72 214 397.68 213.76 398.72 213.2ZM397.44 202.8L396.48 198.96C397.2 198.32 397.92 197.84 398.64 197.36C403.52 194.56 407.52 196.8 407.52 202.4C407.52 204 407.2 205.68 406.64 207.44L403.04 207.52C403.36 206.56 403.52 205.6 403.52 204.8C403.52 201.68 401.28 200.48 398.64 202C398.24 202.16 397.84 202.48 397.44 202.8C395.28 204.72 393.76 207.76 393.76 210.4C393.76 212.24 394.56 213.52 395.92 213.84L393.68 218.88C391.2 218.4 389.76 216.08 389.76 212.72C389.76 208.08 392.48 202.4 396.4 199.04L397.44 202.8ZM410.08 187.28L387.12 200.56C385.84 201.28 384.88 203.04 384.88 204.48L384.96 243.92C384.96 245.36 386 245.92 387.2 245.2L410.16 231.92C411.44 231.2 412.4 229.44 412.4 228L412.32 188.56C412.4 187.12 411.36 186.56 410.08 187.28Z" fill="#37B5F4"/>
<path d="M387.28 245.2C386 245.92 385.04 245.36 385.04 243.92L384.96 204.48C384.96 203.04 386 201.28 387.2 200.56L410.16 187.28C411.44 186.56 412.4 187.12 412.4 188.56L412.48 228C412.48 229.44 411.44 231.2 410.24 231.92L387.28 245.2ZM410.08 186L387.12 199.2C385.28 200.32 383.68 202.96 383.76 205.12L383.84 244.56C383.84 246.72 385.36 247.6 387.28 246.48L410.24 233.2C412.08 232.08 413.6 229.52 413.6 227.36L413.52 187.92C413.52 185.76 412 184.88 410.08 186Z" fill="#7CE7F2"/>
<path d="M403.04 207.52C402.24 209.92 400.56 212.16 398.64 213.2C397.68 213.76 396.72 214 395.92 213.84L393.68 218.88C395.12 219.2 396.88 218.8 398.64 217.76C402.08 215.76 405.12 211.84 406.56 207.44L403.04 207.52Z" fill="#EDCC45"/>
<path d="M398.64 197.36C397.92 197.76 397.2 198.32 396.48 198.96L397.44 202.8C397.84 202.48 398.24 202.16 398.64 201.92C401.36 200.4 403.52 201.6 403.52 204.72C403.52 205.6 403.36 206.48 403.04 207.44L406.64 207.36C407.2 205.6 407.52 203.92 407.52 202.32C407.52 196.88 403.52 194.56 398.64 197.36Z" fill="#4CF2E2"/>
<path d="M396.48 198.96C392.56 202.4 389.84 208 389.84 212.64C389.84 216 391.28 218.32 393.76 218.8L396 213.76C394.64 213.52 393.84 212.24 393.84 210.32C393.84 207.76 395.36 204.64 397.52 202.72L396.48 198.96Z" fill="#D852EF"/>
<path d="M406.48 217.28L389.6 226.96C389.28 227.12 389.04 227.6 389.04 227.92V228.8C389.04 229.12 389.28 229.28 389.6 229.12L406.48 219.36C406.8 219.2 407.04 218.72 407.04 218.4V217.52C407.04 217.2 406.8 217.12 406.48 217.28Z" fill="#37B5F4"/>
<path d="M399.52 225.76L389.6 231.44C389.28 231.6 389.04 232.08 389.04 232.4V233.28C389.04 233.68 389.28 233.76 389.6 233.6L399.52 227.92C399.84 227.76 400.08 227.28 400.08 226.96V226.08C400.08 225.76 399.84 225.6 399.52 225.76Z" fill="#37B5F4"/>
<path d="M409.2 226.24L404.8 228.8C404.48 228.96 404.24 229.44 404.24 229.76V230.64C404.24 230.96 404.48 231.12 404.8 230.96L409.2 228.4C409.52 228.24 409.76 227.76 409.76 227.44V226.56C409.76 226.16 409.52 226 409.2 226.24Z" fill="#37B5F4"/>
<path opacity="0.2" d="M364.08 289.36L355.84 294.08C354.56 294.8 353.6 296.56 353.6 298L353.68 312.72L361.92 308C363.2 307.28 364.16 305.52 364.16 304.08L364.08 289.36ZM331.76 315.28C331.44 315.44 331.2 315.28 331.2 314.96V313.52C331.2 313.12 331.44 312.72 331.76 312.56L343.04 306.08C343.36 305.92 343.6 306.08 343.6 306.4V307.84C343.6 308.16 343.36 308.64 343.04 308.8L331.76 315.28ZM331.68 294.8C331.36 294.96 331.12 294.8 331.12 294.48V293.04C331.12 292.64 331.36 292.24 331.68 292.08L349.12 282C349.44 281.84 349.68 281.92 349.68 282.32V283.76C349.68 284.08 349.44 284.56 349.12 284.72L331.68 294.8ZM331.68 285.92C331.36 286.08 331.12 285.92 331.12 285.6V284.16C331.12 283.76 331.36 283.36 331.68 283.2L342.96 276.72C343.28 276.56 343.52 276.72 343.52 277.04V278.48C343.52 278.8 343.28 279.28 342.96 279.44L331.68 285.92ZM331.6 278.56C331.28 278.72 331.04 278.56 331.04 278.24V276.8C331.04 276.4 331.28 276 331.6 275.84L355.2 262.24C355.52 262.08 355.76 262.24 355.76 262.56V264C355.76 264.32 355.52 264.8 355.2 264.96L331.6 278.56ZM331.6 271.28C331.28 271.44 331.04 271.28 331.04 270.96V269.52C331.04 269.12 331.28 268.72 331.6 268.56L355.2 254.96C355.52 254.8 355.76 254.96 355.76 255.28V256.72C355.76 257.04 355.52 257.52 355.2 257.68L331.6 271.28ZM361.68 244L327.36 263.84C326.08 264.56 325.12 266.32 325.12 267.76L325.28 326.56C325.28 328 326.32 328.56 327.6 327.84L352.56 313.44L352.48 298.72C352.48 296.56 354 293.92 355.84 292.88L364.08 288.16L363.92 245.44C363.92 243.92 362.88 243.28 361.68 244Z" fill="#37B5F4"/>
<path d="M365.2 288.72L364.08 289.36L364.16 304.08C364.16 305.52 363.12 307.28 361.92 308L353.68 312.72V314L361.92 309.28C363.76 308.16 365.28 305.6 365.28 303.44L365.2 288.72ZM361.68 242.72L327.36 262.56C325.52 263.68 323.92 266.32 324 268.48L324.16 327.28C324.16 329.44 325.68 330.32 327.6 329.2L352.56 314.8V313.52L327.6 327.92C326.32 328.64 325.36 328.08 325.28 326.64L325.12 267.84C325.12 266.4 326.16 264.64 327.36 263.92L361.68 244.08C362.96 243.36 363.92 243.92 363.92 245.36L364.08 288.08L365.2 287.44L365.04 244.72C365.04 242.48 363.52 241.68 361.68 242.72Z" fill="#7CE7F2"/>
<path d="M365.2 288.72L373.28 284.08C374.56 283.36 375.52 283.92 375.52 285.36L375.6 313.44C375.6 314.88 374.56 316.64 373.36 317.36L355.92 327.44C354.64 328.16 353.68 327.6 353.68 326.16V314.16V312.88L353.6 298.16C353.6 296.72 354.64 294.96 355.84 294.24L364.08 289.52L365.2 288.72ZM373.28 282.72L365.2 287.36L364.08 288L355.84 292.72C354 293.84 352.48 296.4 352.48 298.56L352.56 313.28V314.56V326.56C352.56 328.72 354.08 329.6 356 328.48L373.44 318.4C375.28 317.28 376.8 314.72 376.8 312.56L376.72 284.48C376.64 282.56 375.12 281.68 373.28 282.72Z" fill="#7CE7F2"/>
<path d="M355.2 254.88L331.6 268.48C331.28 268.64 331.04 269.12 331.04 269.44V270.88C331.04 271.2 331.28 271.36 331.6 271.2L355.2 257.6C355.52 257.44 355.76 256.96 355.76 256.64V255.2C355.76 254.8 355.52 254.64 355.2 254.88Z" fill="#EDCC45"/>
<path d="M355.2 262.16L331.6 275.76C331.28 275.92 331.04 276.4 331.04 276.72V278.16C331.04 278.48 331.28 278.64 331.6 278.48L355.2 264.88C355.52 264.72 355.76 264.24 355.76 263.92V262.48C355.84 262.16 355.52 262 355.2 262.16Z" fill="#D852EF"/>
<path d="M342.88 276.64L331.6 283.12C331.28 283.28 331.04 283.76 331.04 284.08V285.52C331.04 285.84 331.28 286 331.6 285.84L342.88 279.36C343.2 279.2 343.44 278.72 343.44 278.4V276.96C343.44 276.64 343.2 276.48 342.88 276.64Z" fill="#37B5F4"/>
<path d="M342.96 306L331.68 312.48C331.36 312.64 331.12 313.12 331.12 313.44V314.88C331.12 315.2 331.36 315.36 331.68 315.2L342.96 308.72C343.28 308.56 343.52 308.08 343.52 307.76V306.32C343.52 306 343.28 305.84 342.96 306Z" fill="#4CF2E2"/>
<path d="M349.12 281.92L331.68 292C331.36 292.16 331.12 292.64 331.12 292.96V294.4C331.12 294.72 331.36 294.88 331.68 294.72L349.12 284.64C349.44 284.48 349.68 284 349.68 283.68V282.24C349.68 281.92 349.44 281.76 349.12 281.92Z" fill="#37B5F4"/>
<path opacity="0.2" d="M512.88 282.88L510.72 281.68C510.48 283.04 510.16 284.32 509.84 285.36C509.04 287.76 508 289.36 506.72 289.92C505.84 290.32 504.88 290.24 503.84 289.6C502.56 288.88 501.2 287.36 499.68 285.12C499.28 284.48 498.88 284.08 498.56 283.92C498.32 283.76 498.08 283.76 497.84 283.84C497.6 283.92 497.36 284.16 497.12 284.48C496.64 285.12 496.24 286.24 495.84 287.52C495.12 290.16 494.48 293.84 493.84 297.04C493.44 299.2 492.96 301.04 492.4 302.32C492.08 303.04 491.76 303.6 491.28 303.76C491.04 303.84 490.8 303.92 490.48 303.84C490.32 303.76 490.24 303.76 490.08 303.68C489.76 303.44 489.36 303.12 489.12 302.72C488.8 302.32 488.56 301.84 488.32 301.28C487.84 300.24 487.52 298.96 487.12 297.52C486.4 294.72 485.84 291.36 484.96 288.48C484.4 286.56 483.76 284.8 482.88 283.6C482.4 282.88 481.92 282.4 481.28 282.08C481.2 282 481.04 281.92 480.96 281.92C480.4 281.68 479.84 281.68 479.36 281.92C478.88 282.16 478.4 282.64 478 283.28C477.12 284.56 476.48 286.56 475.92 288.8C474.88 293.2 474.32 298.4 474.16 300.56C474.08 301.12 474.08 301.52 474.08 301.52C474.08 301.68 473.92 301.76 473.76 301.68C473.6 301.6 473.52 301.36 473.52 301.2C473.52 301.2 474.08 291.6 476.08 285.68C476.8 283.68 477.6 282.16 478.72 281.44C479.36 281.04 480.08 280.96 480.88 281.36C481.04 281.44 481.12 281.52 481.28 281.6C482.24 282.16 483.04 283.12 483.68 284.24C484.32 285.44 484.88 286.8 485.28 288.24C486.16 291.2 486.8 294.56 487.44 297.36C487.92 299.2 488.4 300.88 488.96 301.92C489.28 302.48 489.6 302.88 489.92 303.12C490 303.2 490.08 303.2 490.16 303.2C490.4 303.28 490.56 303.2 490.8 303.04C491.04 302.88 491.28 302.64 491.44 302.24C491.84 301.44 492.24 300.24 492.56 298.88C493.28 296.08 493.84 292.32 494.56 289.28C495.04 287.2 495.52 285.44 496.16 284.32C496.56 283.68 496.96 283.28 497.44 283.2C497.68 283.12 498 283.2 498.32 283.36C498.8 283.6 499.28 284.16 499.76 284.88C501.12 287.04 502.4 288.32 503.52 288.96C504.4 289.52 505.28 289.6 506.08 289.2C506.88 288.88 507.52 288.08 508.16 286.88C508.88 285.52 509.44 283.6 509.84 281.28L471.2 258.96L471.04 301.28L512.4 325.12L512.88 282.88ZM517.04 328C516.72 327.84 516.48 327.36 516.48 327.04L516.56 292.96C516.56 292.64 516.8 292.48 517.12 292.64L518.96 293.68C519.28 293.84 519.52 294.32 519.52 294.64L519.44 328.72C519.44 329.04 519.2 329.2 518.88 329.04L517.04 328ZM510.24 280.64C510.48 279.04 510.72 277.2 510.88 275.2C510.88 275.04 511.04 274.96 511.2 275.04C511.36 275.12 511.44 275.36 511.44 275.52C511.28 277.52 511.12 279.36 510.8 280.96L513.44 282.48L513.28 326.16L470.8 301.6L470.96 257.92L510.24 280.64ZM471.84 253.2C471.52 253.04 471.28 252.56 471.28 252.24V250.08C471.28 249.68 471.52 249.6 471.84 249.76L486.08 258C486.4 258.16 486.64 258.64 486.64 258.96V261.12C486.64 261.44 486.4 261.6 486.08 261.44L471.84 253.2ZM471.84 244.08C471.52 243.92 471.28 243.44 471.28 243.12V240.96C471.28 240.64 471.52 240.48 471.84 240.64L501.52 257.76C501.84 257.92 502.08 258.4 502.08 258.72V260.88C502.08 261.2 501.84 261.36 501.52 261.2L471.84 244.08ZM522.88 261.12L466 228.24C464.72 227.52 463.76 228.08 463.68 229.52L463.44 304.24C463.44 305.68 464.48 307.44 465.68 308.16L522.56 341.04C523.84 341.76 524.8 341.2 524.8 339.76L525.04 265.04C525.2 263.6 524.16 261.84 522.88 261.12Z" fill="#37B5F4"/>
<path d="M465.84 308.24C464.56 307.52 463.6 305.76 463.6 304.32L463.84 229.6C463.84 228.16 464.88 227.6 466.16 228.32L523.04 261.2C524.32 261.92 525.28 263.68 525.28 265.12L525.04 339.84C525.04 341.28 524 341.84 522.8 341.12L465.84 308.24ZM522.96 259.84L466.08 226.96C464.24 225.84 462.64 226.72 462.64 228.88L462.4 303.6C462.4 305.76 463.92 308.4 465.76 309.52L522.64 342.4C524.48 343.52 526.08 342.64 526.08 340.48L526.32 265.76C526.32 263.6 524.8 260.96 522.96 259.84Z" fill="#7CE7F2"/>
<path d="M501.52 257.76L471.84 240.64C471.52 240.48 471.28 240.64 471.28 240.96V243.12C471.28 243.44 471.52 243.92 471.84 244.08L501.52 261.2C501.84 261.36 502.08 261.2 502.08 260.88V258.72C502.08 258.4 501.84 258 501.52 257.76Z" fill="#EDCC45"/>
<path d="M519.04 293.68L517.2 292.64C516.88 292.48 516.64 292.64 516.64 292.96L516.56 327.04C516.56 327.36 516.8 327.84 517.12 328L518.96 329.04C519.28 329.2 519.52 329.04 519.52 328.72L519.6 294.64C519.6 294.32 519.28 293.84 519.04 293.68Z" fill="#37B5F4"/>
<path d="M486.08 258L471.84 249.76C471.52 249.6 471.28 249.76 471.28 250.08V252.24C471.28 252.56 471.52 253.04 471.84 253.2L486.08 261.44C486.4 261.6 486.64 261.44 486.64 261.12V258.96C486.64 258.64 486.4 258.24 486.08 258Z" fill="#D852EF"/>
<path d="M513.44 282.56L510.8 281.04C510.8 281.28 510.72 281.44 510.72 281.6L512.88 282.8L512.72 325.12L471.36 301.28L471.52 258.96L510.16 281.28C510.16 281.12 510.24 280.88 510.24 280.72L470.96 258L470.8 301.68L513.28 326.24L513.44 282.56Z" fill="#7CE7F2"/>
<path d="M511.12 275.04C510.96 274.96 510.88 275.04 510.8 275.2C510.64 277.2 510.48 279.04 510.16 280.64C510.16 280.88 510.08 281.04 510.08 281.2C509.68 283.6 509.12 285.44 508.4 286.8C507.76 288 507.12 288.8 506.32 289.12C505.52 289.44 504.72 289.36 503.76 288.88C502.64 288.24 501.36 286.88 500 284.8C499.52 284.08 499.04 283.52 498.56 283.28C498.24 283.12 497.92 283.04 497.68 283.12C497.2 283.2 496.8 283.6 496.4 284.24C495.76 285.36 495.28 287.2 494.8 289.2C494.08 292.32 493.52 296 492.8 298.8C492.48 300.24 492.08 301.36 491.68 302.16C491.44 302.56 491.28 302.8 491.04 302.96C490.8 303.12 490.64 303.12 490.4 303.12C490.32 303.12 490.24 303.04 490.16 303.04C489.84 302.8 489.52 302.48 489.2 301.84C488.64 300.8 488.16 299.2 487.68 297.28C486.96 294.48 486.4 291.12 485.52 288.16C485.04 286.72 484.56 285.28 483.92 284.16C483.28 283.04 482.48 282 481.52 281.52C481.36 281.44 481.28 281.36 481.12 281.28C480.32 280.96 479.6 281.04 478.96 281.36C477.84 282 477.04 283.6 476.32 285.6C474.24 291.52 473.76 301.12 473.76 301.12C473.76 301.28 473.84 301.52 474 301.6C474.16 301.68 474.32 301.6 474.32 301.44C474.32 301.44 474.32 301.12 474.4 300.48C474.56 298.4 475.04 293.12 476.16 288.72C476.72 286.48 477.36 284.56 478.24 283.2C478.64 282.56 479.12 282.08 479.6 281.84C480.08 281.6 480.64 281.6 481.2 281.84C481.28 281.92 481.44 281.92 481.52 282C482.08 282.32 482.64 282.88 483.12 283.52C483.92 284.72 484.64 286.48 485.2 288.4C486.08 291.28 486.64 294.64 487.36 297.44C487.68 298.88 488.08 300.16 488.56 301.2C488.8 301.76 489.04 302.16 489.36 302.64C489.68 303.04 490 303.36 490.32 303.6C490.48 303.68 490.56 303.76 490.72 303.76C491.04 303.84 491.28 303.84 491.52 303.68C492 303.44 492.32 302.96 492.64 302.24C493.2 300.96 493.68 299.04 494.08 296.96C494.72 293.76 495.36 290.08 496.08 287.44C496.48 286.08 496.88 285.04 497.36 284.4C497.6 284.08 497.84 283.84 498.08 283.76C498.32 283.68 498.56 283.68 498.8 283.84C499.12 284 499.44 284.4 499.92 285.04C501.36 287.28 502.72 288.8 504.08 289.52C505.12 290.16 506.16 290.24 506.96 289.84C508.24 289.28 509.28 287.68 510.08 285.28C510.4 284.24 510.72 282.96 510.96 281.6C510.96 281.44 511.04 281.2 511.04 281.04C511.28 279.44 511.52 277.6 511.68 275.6C511.44 275.44 511.28 275.2 511.12 275.04Z" fill="#D852EF"/>
<path opacity="0.2" d="M625.04 341.12C624.72 340.96 624.48 340.48 624.48 340.16L624.56 324C624.56 323.6 624.8 323.52 625.12 323.68L626.72 324.56C627.04 324.72 627.28 325.2 627.28 325.52L627.2 341.68C627.2 342.08 626.96 342.16 626.64 342L625.04 341.12ZM619.04 337.6C618.72 337.44 618.48 336.96 618.48 336.64L618.56 308.16C618.56 307.76 618.8 307.68 619.12 307.84L620.72 308.72C621.04 308.88 621.28 309.36 621.28 309.68L621.2 338.16C621.2 338.56 620.96 338.64 620.64 338.48L619.04 337.6ZM632.16 310.8L614.16 300.4L614.08 338.64L632.08 349.04L632.16 310.8ZM644.48 347.68C644.16 347.52 643.92 347.04 643.92 346.72V344.88C643.92 344.56 644.16 344.4 644.48 344.56L648 346.56C648.32 346.72 648.56 347.2 648.56 347.52V349.36C648.56 349.68 648.32 349.84 648 349.68L644.48 347.68ZM640.88 338.56C640.56 338.4 640.32 337.92 640.32 337.6V335.76C640.32 335.44 640.56 335.28 640.88 335.44L648.08 339.6C648.4 339.76 648.64 340.24 648.64 340.56V342.4C648.64 342.72 648.4 342.88 648.08 342.72L640.88 338.56ZM659.92 361.84C655.6 357.28 652.88 350.8 652.88 345.44C652.88 342.32 653.84 339.92 655.52 338.48L658.56 343.12C657.44 344 656.8 345.68 656.8 347.68C656.8 351.2 658.64 355.44 661.44 358.48C662.4 359.44 663.36 360.32 664.4 360.88C666.24 361.92 668 362.16 669.36 361.68L671.92 366.64C669.84 367.52 667.12 367.04 664.4 365.52C662.88 364.56 661.36 363.36 659.92 361.84ZM637.52 329.6C637.2 329.44 636.96 328.96 636.96 328.64V326.8C636.96 326.4 637.2 326.32 637.52 326.48L648.08 332.56C648.4 332.72 648.64 333.2 648.64 333.52V335.36C648.64 335.76 648.4 335.84 648.08 335.68L637.52 329.6ZM658.56 343.2L655.52 338.56C657.76 336.72 661.04 336.88 664.48 338.88C670.88 342.56 676.08 351.52 676 358.88C676 362.8 674.48 365.6 671.92 366.64L669.36 361.68C671.04 360.96 672.08 359.12 672.08 356.56C672.08 351.76 668.72 345.84 664.48 343.44C662.16 342.08 660 342 658.56 343.2ZM650.64 325.04C650.32 324.88 650.08 324.4 650.08 324.08V322.24C650.08 321.84 650.32 321.76 650.64 321.92L675.44 336.24C675.76 336.4 676 336.88 676 337.2V339.04C676 339.44 675.76 339.52 675.44 339.36L650.64 325.04ZM613.52 339.04L613.6 299.44L632.72 310.48L632.64 350.08L613.52 339.04ZM679.92 330.32L609.52 289.68C608.24 288.96 607.28 289.52 607.28 290.96L607.12 338.88C607.12 340.32 608.16 342.08 609.36 342.8L679.76 383.44C681.04 384.16 682 383.6 682 382.16L682.16 334.24C682.16 332.8 681.12 331.04 679.92 330.32Z" fill="#37B5F4"/>
<path d="M609.36 342.88C608.08 342.16 607.12 340.4 607.12 338.96L607.28 291.04C607.28 289.6 608.32 289.04 609.52 289.76L679.92 330.4C681.2 331.12 682.16 332.88 682.16 334.32L682 382.24C682 383.68 680.96 384.24 679.76 383.52L609.36 342.88ZM679.92 329.04L609.52 288.4C607.68 287.28 606.08 288.16 606.08 290.32L605.92 338.24C605.92 340.4 607.44 343.04 609.28 344.08L679.68 384.72C681.52 385.84 683.12 384.96 683.12 382.8L683.28 334.88C683.28 332.72 681.76 330.08 679.92 329.04Z" fill="#7CE7F2"/>
<path d="M620.72 308.72L619.12 307.84C618.8 307.68 618.56 307.84 618.56 308.16L618.48 336.64C618.48 337.04 618.72 337.44 619.04 337.6L620.64 338.48C620.96 338.64 621.2 338.48 621.2 338.16L621.28 309.68C621.28 309.36 621.04 308.96 620.72 308.72Z" fill="#37B5F4"/>
<path d="M675.44 336.24L650.64 321.92C650.32 321.76 650.08 321.92 650.08 322.24V324.08C650.08 324.48 650.32 324.88 650.64 325.04L675.44 339.36C675.76 339.52 676 339.36 676 339.04V337.2C676 336.8 675.76 336.4 675.44 336.24Z" fill="#37B5F4"/>
<path d="M626.72 324.56L625.12 323.68C624.8 323.52 624.56 323.68 624.56 324L624.48 340.16C624.48 340.56 624.72 340.96 625.04 341.12L626.64 342C626.96 342.16 627.2 342 627.2 341.68L627.28 325.52C627.28 325.2 626.96 324.72 626.72 324.56Z" fill="#37B5F4"/>
<path d="M655.52 338.56C653.84 339.92 652.88 342.4 652.88 345.52C652.88 350.88 655.6 357.36 659.92 361.92L661.44 358.64C658.64 355.6 656.8 351.44 656.8 347.84C656.8 345.84 657.44 344.16 658.56 343.28L655.52 338.56Z" fill="#4CF2E2"/>
<path d="M669.36 361.68C668 362.24 666.24 362 664.4 360.88C663.36 360.32 662.4 359.44 661.44 358.48L659.92 361.76C661.36 363.28 662.88 364.48 664.4 365.36C667.12 366.96 669.84 367.36 671.92 366.48L669.36 361.68Z" fill="#D852EF"/>
<path d="M664.48 338.88C661.04 336.88 657.76 336.72 655.52 338.56L658.56 343.2C660 342 662.16 342.08 664.48 343.44C668.72 345.84 672.08 351.76 672.08 356.56C672.08 359.12 671.12 360.96 669.36 361.68L671.92 366.64C674.48 365.6 676 362.72 676 358.88C676.08 351.52 670.88 342.56 664.48 338.88Z" fill="#EDCC45"/>
<path d="M614.08 338.72L614.16 300.48L632.16 310.88L632.08 349.12L614.08 338.72ZM632.8 310.48L613.6 299.44L613.52 339.04L632.64 350.08L632.8 310.48Z" fill="#7CE7F2"/>
<path d="M648.08 332.56L637.52 326.48C637.2 326.32 636.96 326.48 636.96 326.8V328.64C636.96 329.04 637.2 329.44 637.52 329.6L648.08 335.68C648.4 335.84 648.64 335.68 648.64 335.36V333.52C648.64 333.2 648.4 332.72 648.08 332.56Z" fill="#D852EF"/>
<path d="M648.08 339.6L640.88 335.44C640.56 335.28 640.32 335.44 640.32 335.76V337.6C640.32 337.92 640.56 338.4 640.88 338.56L648.08 342.72C648.4 342.88 648.64 342.72 648.64 342.4V340.56C648.64 340.16 648.4 339.76 648.08 339.6Z" fill="#D852EF"/>
<path d="M648 346.64L644.48 344.64C644.16 344.48 643.92 344.64 643.92 344.96V346.8C643.92 347.12 644.16 347.6 644.48 347.76L648 349.76C648.32 349.92 648.56 349.76 648.56 349.44V347.6C648.64 347.2 648.32 346.8 648 346.64Z" fill="#D852EF"/>
<path d="M442.16 297.12C445.12 297.2 448.16 289.44 448.88 286C449.6 282.56 450.4 281.12 448.88 280.56C447.36 280 445.68 279.6 444 283.2C442.32 286.88 437.84 290.08 437.76 292.32C437.68 294.48 438.32 297.04 442.16 297.12Z" fill="#337CF2"/>
<path d="M445.68 292.8C445.68 295.12 443.76 297.04 441.44 297.04C440.4 297.04 439.44 296.64 438.72 296C438.72 296 438.64 296 438.64 295.92L438.48 295.76C437.68 295.04 435.36 292.96 432.48 287.04C431.12 284.16 428.8 280.72 428.8 277.68V277.6V277.36C428.96 274.64 430.08 272.24 432.88 272.24C434.8 272.24 436.64 273.68 437.52 275.2C437.52 275.28 437.76 275.68 438 276.32C439.52 279.76 444.8 289.68 445.12 290.72C445.44 291.44 445.68 292.08 445.68 292.8Z" fill="#337CF2"/>
<path d="M443.68 276.4C446.8 277.04 448.32 278.16 449.04 278.96C449.76 279.76 450.32 280.4 449.6 281.44C448.88 282.4 448.88 283.28 447.36 283.36C445.92 283.44 444.56 282.96 443.28 282.16C442 281.36 443.36 279.76 442.72 278.88C441.36 276.96 443.68 276.4 443.68 276.4Z" fill="#F4CCB8"/>
<path d="M428 304.08C430.88 301.92 437.04 300.96 438.56 305.28C440.08 309.52 439.84 326.96 439.6 331.36C439.36 335.76 439.12 349.68 438.8 352.32C438.48 354.88 434.88 356.4 431.52 355.92C429.36 355.6 430.4 351.84 430.16 342.56C430 336.4 429.52 332 429.52 332C429.52 332 428.56 320.24 426.88 314.8C425.6 310.96 425.2 306.08 428 304.08Z" fill="#256ED8"/>
<path d="M418.88 304.24C421.92 302.24 431.68 302.08 432.8 306.64C434 311.2 430 330.24 428.72 336.32C427.76 340.8 427.44 355.92 425.92 361.36C425.2 364 421.44 365.92 418.88 363.68C416.32 361.44 416.48 357.44 416.96 348.08C417.28 341.68 417.84 334.32 417.84 334.32C417.84 334.32 417.52 323.76 416.56 317.92C415.36 310.96 415.92 306.16 418.88 304.24Z" fill="#337CF2"/>
<path d="M416.08 304.08V309.12C416.08 309.12 418 310.72 422.24 311.28C425.92 311.76 430.16 311.28 433.36 310.56C436.72 309.76 439.12 307.84 439.12 307.84V302.4C439.12 302.4 434.08 303.6 427.44 303.76C420.8 303.92 416.08 304.08 416.08 304.08Z" fill="#23283F"/>
<path d="M434.48 307.36C432.24 308.16 429.36 308.88 426.24 308.8C420.32 308.64 416.72 307.68 416.24 305.52C416.08 304.72 416.08 303.6 416.08 302.4C416.08 301.52 416.16 300.48 416.16 299.36V296.48C416.16 296 416.08 295.52 416.08 295.04C416 294.4 415.92 293.84 415.84 293.36C415.04 290 412.88 287.36 413.04 281.6C413.2 274.64 415.44 274.8 421.76 271.28C422.4 270.96 423.04 270.72 423.84 270.64C426.16 272.72 430 276.32 430.88 278.56C431.04 278.96 431.2 279.52 431.44 280.16C431.52 280.4 431.6 280.56 431.6 280.8V280.88L431.76 281.36C432.16 282.88 432.56 284.72 432.88 286.56C432.88 286.72 432.96 286.96 432.96 287.12C432.96 287.28 433.04 287.52 433.04 287.68C433.04 287.84 433.12 288.08 433.12 288.24C433.2 288.88 433.36 289.44 433.44 290.08C433.52 290.32 433.52 290.64 433.6 290.88C433.76 291.92 433.84 292.88 433.92 293.68V294V294.48V295.04V295.52C433.92 295.92 434 296.4 434 296.96V297.52V298.16C434 298.64 434.08 299.12 434.08 299.68C434.08 300.16 434.16 300.72 434.16 301.28C434.16 301.84 434.24 302.32 434.24 302.88V303.12C434.24 303.68 434.24 304.24 434.32 304.72C434.4 305.6 434.4 306.56 434.48 307.36Z" fill="#EDCC45"/>
<path d="M438.88 305.12C438.08 305.68 436.48 306.56 434.48 307.36C434.4 306 434.4 304.4 434.32 302.72C434.24 301.68 434.24 300.56 434.16 299.52C434.16 298.56 434.08 297.68 434.08 296.8C434 295.6 434 294.56 433.92 293.92V293.6C433.52 289.52 432.16 281.76 430.88 278.56C430 276.32 426.16 272.72 423.84 270.64C426.88 270.16 430.88 271.2 432.88 271.92C435.36 272.8 439.12 279.52 439.04 286.48C439.04 288.16 439.12 290 439.12 291.76C439.12 292.8 439.2 293.84 439.28 294.88C439.36 295.84 439.36 296.72 439.44 297.6C439.52 298.72 439.52 299.84 439.52 300.72C439.52 303.12 439.36 304.8 438.88 305.12Z" fill="#E2A333"/>
<path d="M439.52 300.8C439.04 301.12 438.48 301.36 437.92 301.6C436.56 302.08 435.44 302.4 434.4 302.72C430.8 303.76 428.48 304.08 424.88 304.24C421.52 304.4 417.92 303.12 416.16 302.32C416.16 301.44 416.24 300.4 416.24 299.28C418.24 299.84 422.48 300.88 424.88 300.8C427.84 300.64 431.52 300.08 434.32 299.44C435.68 299.12 436.88 298.8 437.6 298.48C438.32 298.16 438.96 297.84 439.52 297.6C439.44 298.8 439.52 299.84 439.52 300.8Z" fill="white"/>
<path d="M439.28 294.88C438.8 295.12 438.32 295.36 437.76 295.6C436.4 296.08 435.2 296.48 434.08 296.8C430.56 297.84 428.24 298.16 424.64 298.32C421.36 298.48 417.92 297.28 416.16 296.56C416.16 296.08 416.08 295.6 416.08 295.12C416 294.48 415.92 293.92 415.84 293.44C417.76 294 422.16 295.12 424.72 294.96C427.6 294.8 431.2 294.24 434 293.6C435.44 293.28 436.72 292.96 437.52 292.64C438.16 292.4 438.72 292.08 439.28 291.84C439.12 292.8 439.2 293.84 439.28 294.88Z" fill="white"/>
<path d="M421.12 281.04C420.8 280.4 420.64 279.92 420.64 279.84L421.12 281.04Z" fill="#EDCC45"/>
<path d="M427.76 297.52C427.76 299.84 425.84 301.76 423.52 301.76C422.48 301.76 421.52 301.36 420.8 300.72C420.8 300.72 420.72 300.72 420.72 300.64L420.56 300.48C419.76 299.76 418.32 297.04 415.2 291.28C413.36 287.76 412.16 284.96 412.16 282V281.92V281.68C412.32 278.96 413.36 276.4 416.08 276.4C418 276.4 419.52 278.24 420.4 279.76C420.4 279.84 420.64 280.24 420.88 280.88C422.4 284.32 426.88 294.48 427.2 295.44C427.52 296.16 427.76 296.8 427.76 297.52Z" fill="#337CF2"/>
<path d="M431.28 284.8L430.8 285.28C431.12 285.04 431.28 284.88 431.28 284.8Z" fill="#EDCC45"/>
<path d="M437.2 287.52C437.2 288.56 436.8 289.52 436.08 290.24C436.08 290.24 433.04 293.52 431.12 296.08C429.52 298.24 427.76 300.72 425.52 301.2C424.96 301.52 424.24 301.68 423.6 301.68C421.28 301.68 419.36 299.76 419.36 297.44C419.36 296.32 419.76 295.28 420.48 294.56C421.36 293.2 425.2 290.48 426 289.68C426.64 289.04 429.36 286.24 430.48 285.04C430.72 284.8 430.88 284.56 430.96 284.56C431.6 284 432.48 283.68 433.44 283.68C435.52 283.76 437.2 285.44 437.2 287.52Z" fill="#337CF2"/>
<path d="M422.72 269.44C422.08 269.52 420.64 271.44 420.64 272.08C420.64 273.84 423.68 278.32 423.68 278.32L428.16 274.8L433.44 276C433.44 276 431.44 273.12 430.64 272C429.36 270.24 427.28 268.72 422.72 269.44Z" fill="#337CF2"/>
<path d="M437.2 276.16L436.16 291.6C436.08 292.24 436.8 292.64 437.36 292.32L445.2 287.68C445.44 287.52 445.52 287.36 445.6 287.12L447.28 272.56C447.36 271.92 446.72 271.52 446.16 271.76L437.68 275.52C437.36 275.6 437.2 275.84 437.2 276.16Z" fill="#23283F"/>
<path d="M434.24 282.48C433.36 283.04 432.48 284.16 432.8 285.68C433.12 287.2 433.76 288.96 434.8 289.52C435.84 290.08 438.4 288.56 439.04 287.84C439.68 287.12 440 281.92 439.76 280.72C439.52 279.68 434.56 282.32 434.24 282.48Z" fill="#F4CCB8"/>
<path d="M423.36 269.36L423.92 262.64C423.92 262.64 424.96 260.96 427.68 260.96C430.48 260.96 432.32 262 432.72 263.52C433.12 265.12 431.28 271.28 430.48 272.48C429.68 273.68 429.28 274.4 428.32 274.48C427.28 274.56 425.92 274.64 424.56 273.12C423.28 271.76 423.2 270.32 423.36 269.36Z" fill="#D3AA9B"/>
<path d="M424.56 256.24C422.88 258.08 422.8 261.2 423.04 262.96C423.36 264.8 424.48 269.2 425.84 270.24C427.28 271.36 428.88 273.28 430.8 273.36C432.72 273.44 433.84 271.28 434.64 268.96C435.44 266.64 437.2 261.44 436.32 258.96C435.44 256.4 433.84 254 430.48 253.76C427.12 253.52 424.56 256.24 424.56 256.24Z" fill="#F4CCB8"/>
<path d="M424.4 264.56C424.32 261.2 426.96 268.16 428.08 261.44C428.32 259.92 426.88 256.72 424.4 256.72C422.88 256.72 421.6 257.92 422 261.04C422.4 264.16 422.8 267.52 423.92 267.76C424.16 267.76 424.4 266.8 424.4 264.56Z" fill="#23283F"/>
<path d="M425.52 263.36C425.36 263.28 425.6 261.04 424.24 261.12C422.88 261.2 423.2 263.36 423.28 263.68C423.36 264 423.76 266.16 424.48 265.92C425.28 265.68 425.52 263.36 425.52 263.36Z" fill="#F4CCB8"/>
<path d="M424.4 254.72C424.4 254.72 422.72 255.28 421.68 256.4C421.12 256.96 420.56 258.72 421.28 259.04C422 259.36 421.68 259.04 422.48 259.6C423.28 260.16 426.96 263.2 428.08 264C429.2 264.8 431.04 265.84 432.32 265.92C433.6 265.92 435.36 265.84 437.04 264.72C438.72 263.68 439.28 262.8 438.96 261.44C438.64 260.16 437.6 258.72 435.68 257.28C433.76 255.76 428.72 253.84 424.4 254.72Z" fill="#37B5F4"/>
<path d="M429.04 250.72C427.44 250.64 425.2 251.44 423.92 253.28C422.64 255.12 421.76 256.24 421.92 257.52C422.08 258.8 424.8 261.28 426.32 262.16C427.84 263.04 431.2 264.08 433.6 263.52C436 262.96 437.04 262.16 437.36 261.36C437.68 260.56 437.84 258.24 437.04 256.24C436.16 254.24 434 250.88 429.04 250.72Z" fill="#4CF2E2"/>
<path d="M425.44 251.84C425.44 251.84 425.6 251.28 427.04 250.64C428.08 250.16 429.44 250.24 430 250.4C430.56 250.56 433.6 251.36 435.2 253.76C436.96 256.64 437.44 258.96 437.28 260.4C437.2 261.76 436 262.48 435.12 262.64C434.24 262.72 433.12 262.16 432.96 260.72C432.8 259.28 432.32 255.68 429.92 253.92C427.52 252.08 425.44 251.84 425.44 251.84Z" fill="#37B5F4"/>
<path d="M427.68 258.96C428.24 256.72 429.44 256.32 430 256.72C430.56 257.12 431.68 259.92 431.52 261.04C431.36 262.16 429.36 261.68 428.56 261.36C427.84 260.96 427.44 260.08 427.68 258.96Z" fill="#37B5F4"/>
<path d="M417.68 361.2C417.68 361.2 419.68 359.12 421.52 358.64C423.44 358.16 424.48 358.24 425.44 359.2C426.4 360.16 428.96 364.56 430.32 365.68C431.6 366.72 431.52 368.32 431.2 368.64C430.88 368.96 429.76 370.96 426.32 370.48C422.88 370.08 421.76 366.4 420 365.76C418.24 365.12 418.08 364.48 417.68 363.36C417.36 362.32 417.68 361.2 417.68 361.2Z" fill="#23283F"/>
<path d="M431.2 354.64C431.2 354.64 431.92 355.04 434.8 352.72C436.16 351.6 438.16 351.76 439.04 352.64C439.92 353.52 441.68 355.68 444.08 356.88C445.44 357.6 445.52 359.12 445.28 359.68C445.04 360.24 444 361.6 440.88 361.28C437.76 360.88 435.36 358.88 433.44 358.4C431.84 358 431.52 357.6 431.12 356.72C430.8 355.68 431.2 354.64 431.2 354.64Z" fill="#23283F"/>
<path d="M443.24 282.221C443.503 281.058 443.297 280.02 442.78 279.903C442.263 279.786 441.63 280.635 441.367 281.798C441.104 282.962 441.311 284 441.828 284.117C442.345 284.234 442.977 283.385 443.24 282.221Z" stroke="#4CF2E2" stroke-width="0.5" stroke-miterlimit="10" stroke-linejoin="round"/>
<path d="M475.12 483.68C475.12 483.68 479.84 482.8 480.88 485.6C481.84 488.4 478.96 491.52 477.28 493.2C475.6 494.88 474.8 497.6 475.6 500.08C476.4 502.56 479.52 506.08 478.88 508.64C478.24 511.2 474.56 513.6 474.56 513.6" stroke="#337CF2" stroke-width="0.75" stroke-miterlimit="10"/>
<path d="M472.48 482.08C472.48 482.08 478.88 481.2 482.16 483.68C485.44 486.16 486.24 488.88 485.76 491.84C485.28 494.8 479.52 507.68 471.84 511.92" stroke="#7CE7F2" stroke-width="0.5" stroke-miterlimit="10"/>
<path d="M467.619 486.271C469.358 485.507 469.789 482.658 468.581 479.907C467.373 477.156 464.984 475.546 463.244 476.31C461.505 477.074 461.074 479.923 462.282 482.674C463.49 485.425 465.879 487.035 467.619 486.271Z" fill="#1D65BC"/>
<path d="M448.16 484.8L463.2 476.32L467.6 486.24L452.56 494.8L448.16 484.8Z" fill="#1D65BC"/>
<path d="M466 486.56C467.325 486.56 468.4 485.271 468.4 483.68C468.4 482.089 467.325 480.8 466 480.8C464.674 480.8 463.6 482.089 463.6 483.68C463.6 485.271 464.674 486.56 466 486.56Z" fill="#155284"/>
<path d="M453.568 509.794C454.269 507.238 453.627 504.834 452.136 504.425C450.644 504.016 448.867 505.758 448.167 508.315C447.467 510.872 448.108 513.276 449.599 513.684C451.091 514.093 452.868 512.351 453.568 509.794Z" fill="#5ADCE2"/>
<path d="M452.334 509.456C452.707 508.093 452.354 506.807 451.544 506.585C450.734 506.364 449.775 507.289 449.402 508.653C449.028 510.017 449.382 511.302 450.191 511.524C451.001 511.746 451.96 510.82 452.334 509.456Z" fill="#5ADCE2"/>
<path d="M451.711 508.833C452.411 506.276 451.77 503.872 450.279 503.463C448.787 503.055 447.01 504.796 446.31 507.353C445.609 509.91 446.251 512.314 447.742 512.722C449.234 513.131 451.011 511.389 451.711 508.833Z" fill="#5ADCE2"/>
<path d="M450.48 503.52L452.48 504.56L449.6 513.76L447.68 512.72L450.48 503.52Z" fill="#5ADCE2"/>
<path d="M429.6 535.04L462 517.76L496.56 536.08L463.04 554.72L429.6 535.04Z" fill="#337CF2"/>
<path d="M429.6 538.64L463.04 558.32V554.72L429.6 535.04V538.64Z" fill="#256ED8"/>
<path d="M496.56 539.68L463.04 558.32V554.72L496.56 536.08V539.68Z" fill="#1D65BC"/>
<path d="M463.04 552.72C464.012 552.72 464.8 552.29 464.8 551.76C464.8 551.23 464.012 550.8 463.04 550.8C462.068 550.8 461.28 551.23 461.28 551.76C461.28 552.29 462.068 552.72 463.04 552.72Z" stroke="#7CE7F2" stroke-width="0.75" stroke-miterlimit="10"/>
<path d="M434.72 536C435.692 536 436.48 535.57 436.48 535.04C436.48 534.51 435.692 534.08 434.72 534.08C433.748 534.08 432.96 534.51 432.96 535.04C432.96 535.57 433.748 536 434.72 536Z" stroke="#7CE7F2" stroke-width="0.75" stroke-miterlimit="10"/>
<path d="M491.6 536.96C492.572 536.96 493.36 536.53 493.36 536C493.36 535.47 492.572 535.04 491.6 535.04C490.628 535.04 489.84 535.47 489.84 536C489.84 536.53 490.628 536.96 491.6 536.96Z" stroke="#7CE7F2" stroke-width="0.75" stroke-miterlimit="10"/>
<path d="M463.2 544.96C474.069 544.96 482.88 540.375 482.88 534.72C482.88 529.065 474.069 524.48 463.2 524.48C452.331 524.48 443.52 529.065 443.52 534.72C443.52 540.375 452.331 544.96 463.2 544.96Z" fill="#256ED8"/>
<path d="M482.88 530.4H443.44V534.8H482.88V530.4Z" fill="#256ED8"/>
<path d="M463.2 540.64C474.069 540.64 482.88 536.055 482.88 530.4C482.88 524.745 474.069 520.16 463.2 520.16C452.331 520.16 443.52 524.745 443.52 530.4C443.52 536.055 452.331 540.64 463.2 540.64Z" fill="#438AEF"/>
<path d="M463.2 538.4C472.699 538.4 480.4 534.424 480.4 529.52C480.4 524.616 472.699 520.64 463.2 520.64C453.701 520.64 446 524.616 446 529.52C446 534.424 453.701 538.4 463.2 538.4Z" fill="#256ED8"/>
<path d="M480.32 525.84H446V529.52H480.32V525.84Z" fill="#256ED8"/>
<path d="M463.2 534.72C472.699 534.72 480.4 530.744 480.4 525.84C480.4 520.936 472.699 516.96 463.2 516.96C453.701 516.96 446 520.936 446 525.84C446 530.744 453.701 534.72 463.2 534.72Z" fill="#438AEF"/>
<path d="M448.48 525.6L462 532.88V522.88L448.48 515.6V525.6Z" fill="#5ADCE2"/>
<path d="M477.84 523.52L462 532.88V522.88L477.84 513.52V523.52Z" fill="#7CE7F2"/>
<path d="M477.84 513.52L464.32 506.24L448.48 515.6L462 522.88L477.84 513.52Z" fill="#438AEF"/>
<path d="M475.12 482.16L472.88 488.96L455.04 518.16L450.48 516L450.24 515.84C448.72 515.04 448.08 512.32 448.88 509.36C449.12 508.4 449.52 507.6 450 506.88L450.16 506.56L466.16 482.24L466.56 481.68L466.64 481.6C467.68 480.24 468.96 479.44 470.16 479.76C470.4 479.84 470.56 479.92 470.8 480.08L475.12 482.16Z" fill="#337CF2"/>
<path d="M476.88 488.8C476.56 489.84 476.16 490.72 475.68 491.52L475.6 491.6L459.44 516.16C458.4 517.84 456.88 518.8 455.6 518.48C453.76 518 452.96 515.04 453.84 511.84C454.08 510.88 454.48 510.08 454.96 509.28L455.12 508.96L471.12 484.64L471.52 484.08L471.6 484C472.64 482.64 473.92 481.84 475.12 482.16C476.96 482.64 477.76 485.6 476.88 488.8Z" fill="#1D65BC"/>
<path d="M475.534 487.853C475.907 486.489 475.554 485.204 474.744 484.982C473.934 484.761 472.975 485.686 472.602 487.05C472.228 488.414 472.582 489.699 473.391 489.921C474.201 490.142 475.16 489.217 475.534 487.853Z" stroke="#7CE7F2" stroke-width="0.75" stroke-miterlimit="10"/>
<path d="M452.578 494.845C454.318 494.081 454.749 491.231 453.54 488.48C452.332 485.73 449.943 484.119 448.203 484.883C446.464 485.647 446.033 488.496 447.241 491.247C448.449 493.998 450.839 495.608 452.578 494.845Z" fill="#337CF2"/>
<path d="M451.412 492.289C452.221 491.933 452.417 490.596 451.848 489.302C451.28 488.007 450.163 487.246 449.354 487.601C448.545 487.956 448.35 489.294 448.918 490.588C449.487 491.883 450.603 492.644 451.412 492.289Z" fill="#155284"/>
<path d="M458.515 524.319C458.864 524.264 459.086 523.83 459.011 523.35C458.935 522.87 458.591 522.525 458.242 522.58C457.893 522.635 457.671 523.069 457.746 523.549C457.822 524.029 458.166 524.374 458.515 524.319Z" stroke="#337CF2" stroke-width="0.5" stroke-miterlimit="10"/>
<path d="M458.51 529.839C458.859 529.784 459.081 529.35 459.006 528.87C458.93 528.39 458.586 528.045 458.237 528.1C457.888 528.155 457.666 528.588 457.741 529.068C457.816 529.549 458.161 529.893 458.51 529.839Z" stroke="#337CF2" stroke-width="0.5" stroke-miterlimit="10"/>
<path d="M451.316 520.644C451.665 520.589 451.887 520.155 451.812 519.675C451.736 519.195 451.392 518.85 451.043 518.905C450.694 518.96 450.472 519.393 450.547 519.873C450.622 520.353 450.967 520.698 451.316 520.644Z" stroke="#337CF2" stroke-width="0.5" stroke-miterlimit="10"/>
<path d="M451.316 525.844C451.665 525.789 451.887 525.355 451.812 524.875C451.737 524.395 451.392 524.05 451.043 524.105C450.694 524.16 450.472 524.593 450.547 525.074C450.623 525.554 450.967 525.898 451.316 525.844Z" stroke="#337CF2" stroke-width="0.5" stroke-miterlimit="10"/>
<path d="M474.08 519.52L466.8 523.92V522.32L474.08 518V519.52Z" stroke="#337CF2" stroke-width="0.5" stroke-miterlimit="10"/>
<path d="M474.08 523.36L466.8 527.68V526.16L474.08 521.76V523.36Z" stroke="#337CF2" stroke-width="0.5" stroke-miterlimit="10"/>
<path d="M469.088 498.166L465.46 495.82L460.726 503.143L464.354 505.489L469.088 498.166Z" stroke="#7CE7F2" stroke-width="0.5" stroke-miterlimit="10"/>
<path d="M470.215 496.442L466.588 494.097L466.023 494.97L469.651 497.316L470.215 496.442Z" stroke="#7CE7F2" stroke-width="0.5" stroke-miterlimit="10"/>
<path d="M471.316 494.767L467.688 492.422L467.124 493.295L470.752 495.641L471.316 494.767Z" stroke="#7CE7F2" stroke-width="0.5" stroke-miterlimit="10"/>
<path d="M460.873 513.425C461.573 510.868 460.932 508.464 459.441 508.056C457.949 507.647 456.172 509.389 455.472 511.946C454.771 514.502 455.413 516.906 456.904 517.315C458.396 517.723 460.173 515.982 460.873 513.425Z" fill="#5ADCE2"/>
<path d="M459.44 508.08L461.36 509.12L458.8 518.4L456.88 517.36L459.44 508.08Z" fill="#5ADCE2"/>
<path d="M462.807 514.408C463.508 511.851 462.866 509.447 461.375 509.039C459.883 508.63 458.106 510.372 457.406 512.929C456.706 515.485 457.347 517.889 458.839 518.298C460.33 518.706 462.107 516.965 462.807 514.408Z" fill="#7CE7F2"/>
<path d="M461.573 514.07C461.946 512.706 461.593 511.421 460.783 511.199C459.973 510.977 459.014 511.903 458.641 513.267C458.267 514.63 458.621 515.916 459.43 516.137C460.24 516.359 461.199 515.433 461.573 514.07Z" fill="#155284"/>
<path d="M449.36 487.6L444.32 490.48L446.32 495.2L451.44 492.24L449.36 487.6Z" fill="#155284"/>
<path d="M434.767 498.617C435.537 495.805 434.815 493.156 433.153 492.7C431.491 492.245 429.519 494.156 428.748 496.969C427.978 499.781 428.701 502.43 430.363 502.885C432.025 503.341 433.996 501.43 434.767 498.617Z" fill="#5ADCE2"/>
<path d="M431.717 497.054C432.487 494.242 431.764 491.593 430.102 491.138C428.44 490.682 426.469 492.593 425.698 495.406C424.928 498.218 425.65 500.867 427.312 501.323C428.974 501.778 430.946 499.867 431.717 497.054Z" fill="#5ADCE2"/>
<path d="M430.16 491.12L433.12 492.72L430.32 502.96L427.36 501.36L430.16 491.12Z" fill="#5ADCE2"/>
<path d="M446.807 498.116C448.547 497.352 448.978 494.503 447.77 491.752C446.562 489.001 444.172 487.39 442.432 488.154C440.693 488.918 440.262 491.767 441.47 494.518C442.678 497.269 445.068 498.88 446.807 498.116Z" fill="#1D65BC"/>
<path d="M436.56 519.84L435.2 520.72V513.04L436.56 512.16V519.84Z" fill="#7CE7F2"/>
<path d="M435.2 520.72L434.24 520.48V512.8L435.2 513.04V520.72Z" fill="#5ADCE2"/>
<path d="M433.36 519.04L432 519.92V512.24L433.36 511.36V519.04Z" fill="#7CE7F2"/>
<path d="M432 519.92L431.12 519.68V511.92L432 512.24V519.92Z" fill="#5ADCE2"/>
<path d="M433.76 514.24C435.704 514.24 437.28 513.416 437.28 512.4C437.28 511.384 435.704 510.56 433.76 510.56C431.816 510.56 430.24 511.384 430.24 512.4C430.24 513.416 431.816 514.24 433.76 514.24Z" fill="#155284"/>
<path d="M437.28 508.56H430.24V512.4H437.28V508.56Z" fill="#155284"/>
<path d="M433.76 510.64C436.19 510.64 438.16 509.601 438.16 508.32C438.16 507.039 436.19 506 433.76 506C431.33 506 429.36 507.039 429.36 508.32C429.36 509.601 431.33 510.64 433.76 510.64Z" fill="#256ED8"/>
<path d="M438.24 502.64H429.36V508.4H438.24V502.64Z" fill="#256ED8"/>
<path d="M433.76 504.96C436.19 504.96 438.16 503.921 438.16 502.64C438.16 501.359 436.19 500.32 433.76 500.32C431.33 500.32 429.36 501.359 429.36 502.64C429.36 503.921 431.33 504.96 433.76 504.96Z" fill="#438AEF"/>
<path d="M431.84 494.32L442.4 488.16L446.8 498.16L436.24 504.32L431.84 494.32Z" fill="#1D65BC"/>
<path d="M436.24 504.282C437.979 503.518 438.41 500.669 437.202 497.918C435.994 495.167 433.604 493.556 431.865 494.32C430.125 495.084 429.694 497.934 430.902 500.684C432.111 503.435 434.5 505.046 436.24 504.282Z" fill="#337CF2"/>
<path d="M439.072 500.749C439.842 497.937 439.119 495.288 437.457 494.832C435.795 494.377 433.823 496.288 433.053 499.101C432.283 501.913 433.005 504.562 434.667 505.017C436.329 505.473 438.301 503.562 439.072 500.749Z" fill="#5ADCE2"/>
<path d="M437.44 494.88L440.48 496.48L437.68 506.72L434.64 505.12L437.44 494.88Z" fill="#5ADCE2"/>
<path d="M442.101 502.389C442.871 499.576 442.148 496.927 440.487 496.472C438.825 496.017 436.853 497.928 436.082 500.74C435.312 503.553 436.035 506.202 437.697 506.657C439.359 507.112 441.33 505.201 442.101 502.389Z" fill="#7CE7F2"/>
<path d="M440.712 502.009C441.132 500.474 440.747 499.032 439.853 498.787C438.958 498.542 437.891 499.587 437.471 501.121C437.051 502.655 437.436 504.097 438.331 504.342C439.226 504.588 440.292 503.543 440.712 502.009Z" fill="#155284"/>
<path d="M610.48 485.92L524.64 436.32V431.12L610.48 480.72V485.92Z" fill="#256ED8"/>
<path d="M642 467.2L610.48 485.92V480.72L642 462.08V467.2Z" fill="#1D65BC"/>
<path d="M642 462.08L556.24 412.48L524.64 431.12L610.48 480.72L642 462.08Z" fill="#337CF2"/>
<path d="M553.04 443.12L540.08 435.92V434.24L553.04 441.44V443.12Z" fill="#256ED8"/>
<path d="M566.32 435.36L553.04 443.12V441.44L566.32 433.68V435.36Z" fill="#1D65BC"/>
<path d="M540.08 434.24L553.04 441.44L566.32 433.68L553.28 426.48L540.08 434.24Z" fill="#337CF2"/>
<path d="M548 438.64L540.08 434.24V426.16L548 430.56V438.64Z" fill="#256ED8"/>
<path d="M561.2 430.8L548 438.64V430.56L561.2 422.8V430.8Z" fill="#155284"/>
<path d="M553.2 439.36C554.26 439.36 555.12 438.93 555.12 438.4C555.12 437.87 554.26 437.44 553.2 437.44C552.14 437.44 551.28 437.87 551.28 438.4C551.28 438.93 552.14 439.36 553.2 439.36Z" stroke="#7CE7F2" stroke-width="0.75" stroke-miterlimit="10"/>
<path d="M610.48 477.68C611.54 477.68 612.4 477.25 612.4 476.72C612.4 476.19 611.54 475.76 610.48 475.76C609.42 475.76 608.56 476.19 608.56 476.72C608.56 477.25 609.42 477.68 610.48 477.68Z" stroke="#7CE7F2" stroke-width="0.75" stroke-miterlimit="10"/>
<path d="M529.76 431.76C530.82 431.76 531.68 431.33 531.68 430.8C531.68 430.27 530.82 429.84 529.76 429.84C528.7 429.84 527.84 430.27 527.84 430.8C527.84 431.33 528.7 431.76 529.76 431.76Z" stroke="#7CE7F2" stroke-width="0.75" stroke-miterlimit="10"/>
<path d="M636.4 462.72C637.46 462.72 638.32 462.29 638.32 461.76C638.32 461.23 637.46 460.8 636.4 460.8C635.34 460.8 634.48 461.23 634.48 461.76C634.48 462.29 635.34 462.72 636.4 462.72Z" stroke="#7CE7F2" stroke-width="0.75" stroke-miterlimit="10"/>
<path d="M561.2 434.64C562.26 434.64 563.12 434.21 563.12 433.68C563.12 433.15 562.26 432.72 561.2 432.72C560.14 432.72 559.28 433.15 559.28 433.68C559.28 434.21 560.14 434.64 561.2 434.64Z" stroke="#7CE7F2" stroke-width="0.75" stroke-miterlimit="10"/>
<path d="M547.36 432.4C547.36 432.4 546.48 433.04 542.4 431.04C538.32 429.04 536.16 427.12 536.16 427.12C536.16 427.12 533.52 424 534 418.16C534.48 412.32 536.96 408.32 538.48 405.76C540 403.2 542 400.88 542.96 398.8C543.92 396.72 543.28 392.08 543.28 392.08L556.56 390.96V424.4L547.36 432.4Z" fill="#337CF2"/>
<path d="M550.88 431.68C545.52 434.24 542.16 430.08 542.16 430.08C542.16 430.08 539.52 426.96 540 421.12C540.48 415.28 542.96 411.28 544.48 408.72C546 406.16 548 403.84 548.96 401.76C549.92 399.68 549.28 395.04 549.28 395.04L558 392.56L557.76 400.16C557.76 400.16 565.04 401.52 565.04 410.32C565.04 413.92 564.16 422.96 560 426.4C558 427.92 554.96 429.68 550.88 431.68Z" fill="#1D65BC"/>
<path d="M550.56 398.08C555.597 398.08 559.68 395.68 559.68 392.72C559.68 389.76 555.597 387.36 550.56 387.36C545.523 387.36 541.44 389.76 541.44 392.72C541.44 395.68 545.523 398.08 550.56 398.08Z" fill="#256ED8"/>
<path d="M559.68 390.96H541.36V392.96H559.68V390.96Z" fill="#256ED8"/>
<path d="M550.56 396.32C555.597 396.32 559.68 393.92 559.68 390.96C559.68 388 555.597 385.6 550.56 385.6C545.523 385.6 541.44 388 541.44 390.96C541.44 393.92 545.523 396.32 550.56 396.32Z" fill="#337CF2"/>
<path d="M550.56 394.72C554.095 394.72 556.96 393.037 556.96 390.96C556.96 388.883 554.095 387.2 550.56 387.2C547.025 387.2 544.16 388.883 544.16 390.96C544.16 393.037 547.025 394.72 550.56 394.72Z" fill="#155284"/>
<path d="M562.167 419.536C565.473 412.694 564.574 405.417 560.158 403.283C555.742 401.149 549.482 404.966 546.175 411.809C542.869 418.652 543.768 425.928 548.184 428.062C552.6 430.196 558.86 426.379 562.167 419.536Z" fill="#1D65BC"/>
<path d="M563.125 420.201C566.432 413.359 565.532 406.082 561.117 403.948C556.701 401.814 550.441 405.631 547.134 412.474C543.828 419.316 544.727 426.593 549.143 428.727C553.559 430.861 559.819 427.044 563.125 420.201Z" fill="#155284"/>
<path d="M562.331 419.991C565.003 414.461 564.235 408.56 560.615 406.811C556.994 405.062 551.894 408.126 549.221 413.656C546.549 419.186 547.318 425.086 550.938 426.836C554.558 428.585 559.659 425.521 562.331 419.991Z" stroke="#7CE7F2" stroke-width="0.75" stroke-miterlimit="10"/>
<path d="M561.538 419.463C563.806 414.769 563.162 409.764 560.098 408.283C557.035 406.803 552.713 409.409 550.445 414.103C548.176 418.797 548.821 423.803 551.884 425.283C554.947 426.763 559.269 424.158 561.538 419.463Z" fill="#256ED8"/>
<path d="M573.6 422.16L574.4 428.88L569.6 430.64L564.16 433.44L555.12 428.56V421.04C555.2 419.84 555.52 418.48 556.16 417.2C557.92 413.52 561.28 411.52 563.68 412.64L563.92 412.8L572.72 417.6L573.6 422.16Z" fill="#5ADCE2"/>
<path d="M560.243 427.493C561.047 427.03 561.125 425.661 560.418 424.436C559.711 423.212 558.487 422.596 557.683 423.06C556.88 423.523 556.802 424.892 557.508 426.116C558.215 427.341 559.44 427.957 560.243 427.493Z" stroke="#337CF2" stroke-width="0.5" stroke-miterlimit="10"/>
<path d="M569.84 416C569.84 416 569.2 415.84 568.24 416.08C564.48 417.12 562.56 421.36 562.56 421.36L558.08 419.12C558.08 419.12 559.92 414.4 563.52 413.6C564.56 413.36 565.44 413.6 565.44 413.6" stroke="#337CF2" stroke-width="0.5" stroke-miterlimit="10" stroke-linecap="round"/>
<path d="M568.08 445.04L564.08 443.04V441.28L568.08 443.36V445.04Z" fill="#256ED8"/>
<path d="M578.32 439.12L568.08 445.04V443.36L578.32 437.44V439.12Z" fill="#1D65BC"/>
<path d="M574.4 435.36L564.08 441.28V426.32L574.4 420.4V435.36Z" fill="#155284"/>
<path d="M578.32 437.44L574.4 435.36L564.08 441.28L568.08 443.36L578.32 437.44Z" fill="#337CF2"/>
<path d="M573.807 426.245C575.576 422.585 575.075 418.683 572.688 417.529C570.301 416.376 566.932 418.408 565.164 422.068C563.395 425.728 563.896 429.63 566.283 430.783C568.67 431.937 572.039 429.905 573.807 426.245Z" fill="#1D65BC"/>
<path d="M572.727 417.523L566.338 430.784L567.563 431.374L573.952 418.113L572.727 417.523Z" fill="#1D65BC"/>
<path d="M575.064 426.875C576.833 423.215 576.331 419.313 573.945 418.159C571.558 417.006 568.189 419.038 566.42 422.698C564.652 426.358 565.153 430.26 567.54 431.413C569.927 432.567 573.296 430.535 575.064 426.875Z" fill="#7CE7F2"/>
<path d="M572.143 425.725C572.624 424.731 572.498 423.675 571.861 423.367C571.224 423.06 570.319 423.617 569.838 424.611C569.358 425.606 569.484 426.661 570.121 426.969C570.757 427.277 571.663 426.72 572.143 425.725Z" fill="#256ED8"/>
<path d="M571.143 421.114C571.432 420.517 571.343 419.878 570.945 419.685C570.547 419.493 569.991 419.821 569.703 420.418C569.414 421.015 569.503 421.654 569.901 421.846C570.299 422.039 570.855 421.711 571.143 421.114Z" stroke="#337CF2" stroke-width="0.5" stroke-miterlimit="10"/>
<path d="M574.177 420.715C574.465 420.118 574.377 419.478 573.979 419.286C573.581 419.094 573.025 419.422 572.736 420.019C572.448 420.615 572.537 421.255 572.935 421.447C573.332 421.639 573.889 421.311 574.177 420.715Z" stroke="#337CF2" stroke-width="0.5" stroke-miterlimit="10"/>
<path d="M575.035 423.623C575.323 423.027 575.234 422.387 574.836 422.195C574.439 422.003 573.882 422.331 573.594 422.927C573.306 423.524 573.394 424.164 573.792 424.356C574.19 424.548 574.746 424.22 575.035 423.623Z" stroke="#337CF2" stroke-width="0.5" stroke-miterlimit="10"/>
<path d="M574.163 427.123C574.451 426.527 574.362 425.887 573.965 425.695C573.567 425.503 573.011 425.83 572.722 426.427C572.434 427.024 572.523 427.664 572.92 427.856C573.318 428.048 573.874 427.72 574.163 427.123Z" stroke="#337CF2" stroke-width="0.5" stroke-miterlimit="10"/>
<path d="M571.865 429.43C572.153 428.833 572.064 428.193 571.667 428.001C571.269 427.809 570.712 428.137 570.424 428.734C570.136 429.33 570.224 429.97 570.622 430.162C571.02 430.354 571.576 430.026 571.865 429.43Z" stroke="#337CF2" stroke-width="0.5" stroke-miterlimit="10"/>
<path d="M568.907 429.671C569.195 429.075 569.106 428.435 568.708 428.243C568.311 428.051 567.754 428.378 567.466 428.975C567.177 429.572 567.266 430.212 567.664 430.404C568.062 430.596 568.618 430.268 568.907 429.671Z" stroke="#337CF2" stroke-width="0.5" stroke-miterlimit="10"/>
<path d="M567.76 426.934C568.048 426.337 567.959 425.697 567.561 425.505C567.164 425.313 566.607 425.641 566.319 426.237C566.031 426.834 566.119 427.474 566.517 427.666C566.915 427.858 567.471 427.53 567.76 426.934Z" stroke="#337CF2" stroke-width="0.5" stroke-miterlimit="10"/>
<path d="M568.872 423.618C569.16 423.021 569.072 422.382 568.674 422.189C568.276 421.997 567.72 422.325 567.431 422.922C567.143 423.518 567.232 424.158 567.63 424.35C568.027 424.543 568.584 424.215 568.872 423.618Z" stroke="#337CF2" stroke-width="0.5" stroke-miterlimit="10"/>
<path d="M571.544 425.444C571.756 425.006 571.701 424.542 571.423 424.408C571.144 424.273 570.747 424.519 570.536 424.956C570.324 425.394 570.379 425.858 570.657 425.992C570.936 426.127 571.333 425.881 571.544 425.444Z" fill="#155284"/>
<path d="M571.44 424.4L576 426.96L575.12 428.4L570.64 426L571.44 424.4Z" fill="#155284"/>
<path d="M575.947 427.984C576.524 426.79 576.379 425.527 575.623 425.162C574.867 424.796 573.787 425.468 573.21 426.661C572.633 427.855 572.779 429.118 573.535 429.483C574.29 429.849 575.371 429.177 575.947 427.984Z" fill="#256ED8"/>
<path d="M575.566 425.154L573.477 429.475L576.863 431.111L578.951 426.79L575.566 425.154Z" fill="#256ED8"/>
<path d="M579.29 429.631C579.867 428.437 579.722 427.174 578.966 426.808C578.21 426.443 577.13 427.114 576.553 428.308C575.976 429.501 576.121 430.765 576.877 431.13C577.633 431.496 578.713 430.824 579.29 429.631Z" fill="#7CE7F2"/>
<path d="M578.426 429.213C578.637 428.775 578.583 428.312 578.304 428.177C578.026 428.042 577.629 428.288 577.417 428.726C577.206 429.163 577.26 429.627 577.539 429.762C577.817 429.896 578.214 429.651 578.426 429.213Z" fill="#155284"/>
<path d="M578.32 428.16L582.88 430.72L582 432.16L577.52 429.76L578.32 428.16Z" fill="#155284"/>
<path d="M568.08 441.84C568.743 441.84 569.28 441.553 569.28 441.2C569.28 440.847 568.743 440.56 568.08 440.56C567.417 440.56 566.88 440.847 566.88 441.2C566.88 441.553 567.417 441.84 568.08 441.84Z" stroke="#7CE7F2" stroke-width="0.75" stroke-miterlimit="10"/>
<path d="M574.4 438.08C575.063 438.08 575.6 437.793 575.6 437.44C575.6 437.087 575.063 436.8 574.4 436.8C573.737 436.8 573.2 437.087 573.2 437.44C573.2 437.793 573.737 438.08 574.4 438.08Z" stroke="#7CE7F2" stroke-width="0.75" stroke-miterlimit="10"/>
<path d="M602.48 473.44L573.44 456.72V449.6L602.48 466.32V473.44Z" fill="#256ED8"/>
<path d="M614 461.28L602.48 467.36V466.32L614 460.24V461.28Z" fill="#1D65BC"/>
<path d="M603.6 466.72L602.48 467.36V473.44L603.6 472.8V466.72Z" fill="#1D65BC"/>
<path d="M573.44 449.6L588.88 441.2L620.88 456.56L602.48 466.32L573.44 449.6Z" fill="#337CF2"/>
<path d="M595.524 439.056C598.811 432.253 597.896 425.009 593.48 422.875C589.064 420.741 582.82 424.526 579.532 431.329C576.245 438.132 577.16 445.376 581.576 447.51C585.992 449.644 592.236 445.859 595.524 439.056Z" fill="#1D65BC"/>
<path d="M619.04 436.8L593.52 422.88L581.6 447.52L607.12 461.44L619.04 436.8Z" fill="#1D65BC"/>
<path d="M598.16 425.44C593.76 423.28 587.52 427.12 584.16 433.92C580.8 440.72 581.76 448 586.24 450.16" stroke="#337CF2" stroke-width="0.5" stroke-miterlimit="10" stroke-linecap="round"/>
<path d="M609.04 466L601.12 461.6V442.16L609.04 446.56V466Z" fill="#256ED8"/>
<path d="M625.92 436.8L618 432.4L601.12 442.16L609.04 446.56L625.92 436.8Z" fill="#337CF2"/>
<path d="M625.92 436.8V456.16L609.04 466V446.56L625.92 436.8Z" fill="#1D65BC"/>
<path d="M624.643 454.996C627.353 449.387 626.584 443.406 622.924 441.637C619.264 439.868 614.099 442.982 611.389 448.591C608.678 454.201 609.448 460.182 613.108 461.95C616.768 463.719 621.932 460.605 624.643 454.996Z" fill="#155284"/>
<path d="M622.906 441.565L613.09 461.878L616.547 463.549L626.363 443.236L622.906 441.565Z" fill="#155284"/>
<path d="M627.974 456.507C630.685 450.897 629.915 444.916 626.255 443.148C622.595 441.379 617.431 444.493 614.72 450.102C612.01 455.711 612.779 461.692 616.439 463.461C620.099 465.23 625.263 462.116 627.974 456.507Z" fill="#1D65BC"/>
<path d="M626.702 455.961C628.317 452.619 627.884 449.068 625.736 448.03C623.588 446.992 620.537 448.86 618.923 452.201C617.308 455.543 617.74 459.094 619.888 460.132C622.037 461.17 625.087 459.302 626.702 455.961Z" stroke="#7CE7F2" stroke-width="0.75" stroke-miterlimit="10"/>
<path d="M235.12 427.28C235.12 427.28 227.92 417.84 229.28 404.32C230.64 390.8 238.8 386.16 244.16 384.4C249.52 382.64 254.08 382.16 261.28 382.72C268.48 383.36 271.04 400.96 264.56 412.72C258.08 424.48 243.2 432.56 235.12 427.28Z" fill="#155284"/>
<path d="M267.482 416.603C276.075 401.719 276.032 385.605 267.384 380.613C258.737 375.62 244.761 383.639 236.167 398.523C227.573 413.407 227.617 429.52 236.264 434.512C244.912 439.505 258.888 431.487 267.482 416.603Z" fill="#256ED8"/>
<path d="M236.32 434.48L302.08 472.4L333.52 418.8L267.76 380.8L236.32 434.48Z" fill="#256ED8"/>
<path d="M228.16 452.32L286.16 485.92L303.76 475.52L245.76 442.08L228.16 452.32Z" fill="#337CF2"/>
<path d="M235.68 452.08L285.92 480.96L302.08 471.44L251.76 442.72L235.68 452.08Z" fill="#155284"/>
<path d="M286.16 485.92V492.56L228.16 458.88V452.32L286.16 485.92Z" fill="#256ED8"/>
<path d="M303.76 428.64V435.28L245.76 401.6V395.04L303.76 428.64Z" fill="#438AEF"/>
<path d="M303.76 475.52V482.24L286.16 492.56V485.92L303.76 475.52Z" fill="#1D65BC"/>
<path d="M330.96 441.68V441.84C331.6 441.84 332.16 442 332.64 442.24C335.2 443.68 335.12 448.48 332.64 452.88C330.64 456.32 327.6 458.64 325.12 458.64C324.48 458.64 323.92 458.48 323.44 458.24C322.24 457.52 321.6 456.08 321.6 454.08C321.6 452.08 322.24 449.76 323.52 447.6C325.52 444.16 328.56 441.84 331.04 441.84V441.68H330.96ZM330.96 441.68C328.48 441.68 325.36 443.92 323.28 447.6C320.64 452.08 320.72 457.04 323.28 458.56C323.84 458.88 324.4 459.04 325.04 459.04C327.52 459.04 330.64 456.8 332.72 453.12C335.36 448.64 335.28 443.68 332.72 442.16C332.16 441.84 331.6 441.68 330.96 441.68Z" fill="black"/>
<path d="M286.32 464.64L291.84 468.08L284.48 478.96L278.88 475.76L286.32 464.64Z" fill="#256ED8"/>
<path d="M238.48 405.84L296.48 439.52L303.76 435.28L245.76 401.6L238.48 405.84Z" fill="#337CF2"/>
<path d="M245.44 385.68L286.16 409.04V418.4L250.72 398.08L245.44 385.68Z" fill="#337CF2"/>
<path d="M245.44 385.68L286.16 409.04L301.04 400L260.64 376.72L245.44 385.68Z" fill="#438AEF"/>
<path d="M307.36 417.92V430.8L286.16 418.4V405.6L307.36 417.92Z" fill="#337CF2"/>
<path d="M329.44 404.88V417.92L307.36 430.8V417.92L329.44 404.88Z" fill="#155284"/>
<path d="M286.16 405.6L308.16 392.72L329.44 404.88L307.36 417.92L286.16 405.6Z" fill="#438AEF"/>
<path d="M245.44 385.68L240.96 392.24L250.72 398.08L245.44 385.68Z" fill="#337CF2"/>
<path d="M276.24 419.28L268.88 423.6L276.24 412.72V419.28Z" fill="#1D65BC"/>
<path d="M289.12 426.8L281.76 431.2L289.12 420.24V426.8Z" fill="#1D65BC"/>
<path d="M259.2 409.36L251.84 413.76L259.2 402.8V409.36Z" fill="#1D65BC"/>
<path d="M254.88 400.24L259.2 402.8L251.84 413.76L247.52 411.2L254.88 400.24Z" fill="#256ED8"/>
<path d="M310.8 461.68C302.88 468.64 294 471.36 287.76 467.68C282.48 464.64 280.16 457.76 280.8 449.52C281.2 444.4 282.72 438.72 285.36 433.04L288.08 434.64C282.08 448.08 283.04 461.44 290.88 465.92C296.24 469.04 303.76 467.12 310.8 461.68Z" fill="#5ADCE2"/>
<path d="M265.28 406.32L276.24 412.72L268.88 423.6L257.92 417.2L265.28 406.32Z" fill="#256ED8"/>
<path d="M262 450.8L272.96 457.2L265.6 468.08L254.56 461.84L262 450.8Z" fill="#256ED8"/>
<path d="M283.6 416.88L289.12 420.24L281.76 431.2L276.24 427.76L283.6 416.88Z" fill="#256ED8"/>
<path d="M245.04 441.2L250.56 444.56L243.28 455.36L237.68 452.08L245.04 441.2Z" fill="#256ED8"/>
<path d="M287.68 467.68L246.16 443.68C237.6 438.72 236.8 423.76 243.84 408.88L277.44 428.4L285.36 432.96C282.72 438.64 281.2 444.32 280.8 449.44C280.08 457.76 282.4 464.64 287.68 467.68Z" fill="#7CE7F2"/>
<path d="M291.92 429.92L293.6 430.88V486.56L291.92 485.6V429.92Z" fill="#438AEF"/>
<path d="M338.4 404.48V460.4L293.6 486.56V430.88L338.4 404.48Z" fill="#1D65BC"/>
<path d="M333.254 454.558C341.847 439.674 341.804 423.561 333.156 418.569C324.509 413.576 310.533 421.594 301.939 436.478C293.345 451.362 293.389 467.476 302.036 472.468C310.684 477.461 324.66 469.442 333.254 454.558Z" fill="#337CF2"/>
<path d="M338.4 404.48L336.8 403.52L291.92 429.92L293.6 430.88L338.4 404.48Z" fill="#337CF2"/>
<path d="M302.08 472.4L310.4 477.2L341.44 423.36L333.52 418.8L302.08 472.4Z" fill="#337CF2"/>
<path d="M341.57 459.361C350.164 444.477 350.12 428.364 341.473 423.371C332.826 418.379 318.849 426.397 310.256 441.281C301.662 456.165 301.706 472.279 310.353 477.271C319 482.264 332.977 474.245 341.57 459.361Z" fill="#1D65BC"/>
<path d="M333.92 433.12C335.2 433.12 336.32 433.44 337.36 434C342.56 436.96 342.56 446.72 337.36 455.68C333.28 462.72 327.12 467.44 322 467.44C320.72 467.44 319.6 467.12 318.56 466.56C313.36 463.6 313.36 453.84 318.56 444.88C322.64 437.84 328.8 433.12 333.92 433.12ZM333.92 432.96C328.88 432.96 322.56 437.52 318.4 444.8C313.12 453.92 313.2 463.76 318.48 466.8C319.52 467.44 320.72 467.68 322 467.68C327.04 467.68 333.36 463.12 337.52 455.84C342.8 446.72 342.72 436.88 337.44 433.84C336.4 433.28 335.2 432.96 333.92 432.96Z" fill="black"/>
<path d="M337.546 455.832C342.781 446.764 342.745 436.941 337.465 433.893C332.185 430.844 323.66 435.724 318.424 444.792C313.189 453.86 313.225 463.683 318.505 466.731C323.785 469.78 332.31 464.9 337.546 455.832Z" fill="#5ADCE2"/>
<path d="M331.934 452.592C334.099 448.842 334.086 444.782 331.905 443.523C329.724 442.263 326.201 444.282 324.036 448.032C321.871 451.782 321.884 455.842 324.065 457.101C326.246 458.361 329.769 456.342 331.934 452.592Z" fill="#1D65BC"/>
<path d="M330.064 451.512C331.19 449.561 331.173 447.442 330.025 446.779C328.877 446.116 327.033 447.161 325.907 449.112C324.78 451.063 324.797 453.183 325.945 453.845C327.093 454.508 328.937 453.463 330.064 451.512Z" fill="#155284"/>
<path d="M299.212 434.422C299.563 433.143 299.225 431.937 298.458 431.726C297.69 431.516 296.785 432.382 296.435 433.661C296.084 434.939 296.422 436.146 297.189 436.356C297.956 436.566 298.862 435.7 299.212 434.422Z" stroke="#7CE7F2" stroke-width="0.75" stroke-miterlimit="10"/>
<path d="M299.226 480.013C299.576 478.735 299.238 477.528 298.471 477.318C297.704 477.108 296.798 477.974 296.448 479.252C296.098 480.531 296.436 481.737 297.203 481.948C297.97 482.158 298.875 481.292 299.226 480.013Z" stroke="#7CE7F2" stroke-width="0.75" stroke-miterlimit="10"/>
<path d="M336.394 411.639C336.744 410.36 336.406 409.153 335.639 408.943C334.872 408.733 333.966 409.599 333.616 410.878C333.266 412.156 333.604 413.363 334.371 413.573C335.138 413.783 336.044 412.917 336.394 411.639Z" stroke="#7CE7F2" stroke-width="0.75" stroke-miterlimit="10"/>
<path d="M255.12 388.4L266.16 381.92L271.76 385.12L260.64 391.68L255.12 388.4Z" stroke="#7CE7F2" stroke-width="0.75" stroke-miterlimit="10"/>
<path d="M262.4 392.64L273.44 386.16L279.04 389.36L267.92 395.92L262.4 392.64Z" stroke="#7CE7F2" stroke-width="0.75" stroke-miterlimit="10"/>
<path d="M276.24 400.32L287.28 393.84L292.88 397.04L281.84 403.52L276.24 400.32Z" stroke="#7CE7F2" stroke-width="0.75" stroke-miterlimit="10"/>
<path d="M330.03 446.706L325.91 453.842L339.42 461.642L343.54 454.506L330.03 446.706Z" fill="#155284"/>
<path d="M343.504 459.313C344.63 457.362 344.613 455.242 343.465 454.58C342.317 453.917 340.474 454.962 339.347 456.913C338.22 458.864 338.237 460.983 339.385 461.646C340.533 462.309 342.377 461.264 343.504 459.313Z" fill="#7CE7F2"/>
<path d="M343.5 454.479L339.38 461.615L341.251 462.695L345.371 455.559L343.5 454.479Z" fill="#7CE7F2"/>
<path d="M345.434 460.37C346.56 458.419 346.543 456.3 345.395 455.637C344.247 454.974 342.403 456.019 341.277 457.97C340.15 459.922 340.167 462.041 341.315 462.704C342.463 463.366 344.307 462.322 345.434 460.37Z" fill="#5ADCE2"/>
<path d="M345.935 460.71C346.664 459.447 346.666 458.083 345.939 457.663C345.212 457.244 344.031 457.927 343.302 459.19C342.573 460.452 342.572 461.816 343.299 462.236C344.026 462.656 345.206 461.972 345.935 460.71Z" fill="#7CE7F2"/>
<path d="M328.08 436.72V442.48" stroke="#155284" stroke-miterlimit="10" stroke-linecap="round"/>
<path d="M329.6 435.76V441.52" stroke="#155284" stroke-miterlimit="10" stroke-linecap="round"/>
<path d="M326.32 437.52V443.28" stroke="#155284" stroke-miterlimit="10" stroke-linecap="round"/>
<path d="M328.08 458.24V464" stroke="#155284" stroke-miterlimit="10" stroke-linecap="round"/>
<path d="M329.6 457.36V463.12" stroke="#155284" stroke-miterlimit="10" stroke-linecap="round"/>
<path d="M326.32 459.04V464.8" stroke="#155284" stroke-miterlimit="10" stroke-linecap="round"/>
<path d="M244.88 415.44L278.32 434.8" stroke="#155284" stroke-miterlimit="10" stroke-linecap="round"/>
<path d="M243.44 419.2L276.88 438.64" stroke="#155284" stroke-miterlimit="10" stroke-linecap="round"/>
<path d="M242.48 423.28L276 442.72" stroke="#155284" stroke-miterlimit="10" stroke-linecap="round"/>
<path d="M242.08 427.28L275.52 446.72" stroke="#155284" stroke-miterlimit="10" stroke-linecap="round"/>
<path d="M242.48 431.84L276 451.28" stroke="#155284" stroke-miterlimit="10" stroke-linecap="round"/>
<path d="M243.44 436.32L276.88 455.76" stroke="#155284" stroke-miterlimit="10" stroke-linecap="round"/>
<path d="M244.88 440.56L278.32 460" stroke="#155284" stroke-miterlimit="10" stroke-linecap="round"/>
<defs>
<linearGradient id="paint0_linear_20_1022" x1="165.56" y1="367.936" x2="231.192" y2="367.936" gradientUnits="userSpaceOnUse">
<stop stop-color="#2833C0"/>
<stop offset="1" stop-color="#4CF2E2"/>
</linearGradient>
<linearGradient id="paint1_linear_20_1022" x1="546.784" y1="294.904" x2="590.408" y2="294.904" gradientUnits="userSpaceOnUse">
<stop stop-color="#4CF2E2"/>
<stop offset="1" stop-color="#2833C0"/>
</linearGradient>
</defs>
</svg>
